%TF.GenerationSoftware,KiCad,Pcbnew,7.0.9*%
%TF.CreationDate,2024-10-01T20:52:59+03:00*%
%TF.ProjectId,LED-HeadBand,4c45442d-4865-4616-9442-616e642e6b69,rev?*%
%TF.SameCoordinates,Original*%
%TF.FileFunction,Soldermask,Top*%
%TF.FilePolarity,Negative*%
%FSLAX46Y46*%
G04 Gerber Fmt 4.6, Leading zero omitted, Abs format (unit mm)*
G04 Created by KiCad (PCBNEW 7.0.9) date 2024-10-01 20:52:59*
%MOMM*%
%LPD*%
G01*
G04 APERTURE LIST*
G04 Aperture macros list*
%AMRoundRect*
0 Rectangle with rounded corners*
0 $1 Rounding radius*
0 $2 $3 $4 $5 $6 $7 $8 $9 X,Y pos of 4 corners*
0 Add a 4 corners polygon primitive as box body*
4,1,4,$2,$3,$4,$5,$6,$7,$8,$9,$2,$3,0*
0 Add four circle primitives for the rounded corners*
1,1,$1+$1,$2,$3*
1,1,$1+$1,$4,$5*
1,1,$1+$1,$6,$7*
1,1,$1+$1,$8,$9*
0 Add four rect primitives between the rounded corners*
20,1,$1+$1,$2,$3,$4,$5,0*
20,1,$1+$1,$4,$5,$6,$7,0*
20,1,$1+$1,$6,$7,$8,$9,0*
20,1,$1+$1,$8,$9,$2,$3,0*%
%AMFreePoly0*
4,1,6,1.000000,0.000000,0.500000,-0.750000,-0.500000,-0.750000,-0.500000,0.750000,0.500000,0.750000,1.000000,0.000000,1.000000,0.000000,$1*%
%AMFreePoly1*
4,1,6,0.500000,-0.750000,-0.650000,-0.750000,-0.150000,0.000000,-0.650000,0.750000,0.500000,0.750000,0.500000,-0.750000,0.500000,-0.750000,$1*%
G04 Aperture macros list end*
%ADD10RoundRect,0.140000X-0.170000X0.140000X-0.170000X-0.140000X0.170000X-0.140000X0.170000X0.140000X0*%
%ADD11RoundRect,0.135000X-0.185000X0.135000X-0.185000X-0.135000X0.185000X-0.135000X0.185000X0.135000X0*%
%ADD12RoundRect,0.135000X0.185000X-0.135000X0.185000X0.135000X-0.185000X0.135000X-0.185000X-0.135000X0*%
%ADD13RoundRect,0.140000X0.140000X0.170000X-0.140000X0.170000X-0.140000X-0.170000X0.140000X-0.170000X0*%
%ADD14RoundRect,0.140000X-0.140000X-0.170000X0.140000X-0.170000X0.140000X0.170000X-0.140000X0.170000X0*%
%ADD15RoundRect,0.150000X-0.150000X0.512500X-0.150000X-0.512500X0.150000X-0.512500X0.150000X0.512500X0*%
%ADD16RoundRect,0.135000X-0.135000X-0.185000X0.135000X-0.185000X0.135000X0.185000X-0.135000X0.185000X0*%
%ADD17R,1.700000X1.700000*%
%ADD18O,1.700000X1.700000*%
%ADD19RoundRect,0.050000X-0.050000X0.387500X-0.050000X-0.387500X0.050000X-0.387500X0.050000X0.387500X0*%
%ADD20RoundRect,0.050000X-0.387500X0.050000X-0.387500X-0.050000X0.387500X-0.050000X0.387500X0.050000X0*%
%ADD21R,3.200000X3.200000*%
%ADD22C,2.100000*%
%ADD23C,1.300000*%
%ADD24R,1.000000X1.150000*%
%ADD25R,0.700000X0.250000*%
%ADD26R,1.780000X2.350000*%
%ADD27RoundRect,0.140000X0.170000X-0.140000X0.170000X0.140000X-0.170000X0.140000X-0.170000X-0.140000X0*%
%ADD28FreePoly0,0.000000*%
%ADD29FreePoly1,0.000000*%
%ADD30RoundRect,0.250000X0.325000X0.450000X-0.325000X0.450000X-0.325000X-0.450000X0.325000X-0.450000X0*%
%ADD31RoundRect,0.135000X0.135000X0.185000X-0.135000X0.185000X-0.135000X-0.185000X0.135000X-0.185000X0*%
%ADD32RoundRect,0.102000X-0.300000X-0.150000X0.300000X-0.150000X0.300000X0.150000X-0.300000X0.150000X0*%
%ADD33RoundRect,0.102000X-0.150000X-0.850000X0.150000X-0.850000X0.150000X0.850000X-0.150000X0.850000X0*%
%ADD34C,2.000000*%
%ADD35C,0.700025*%
%ADD36O,2.000000X1.000000*%
%ADD37O,1.800000X1.000000*%
%ADD38R,1.300000X0.300000*%
%ADD39FreePoly0,180.000000*%
%ADD40FreePoly1,180.000000*%
%ADD41R,1.676403X1.676403*%
%ADD42C,1.676403*%
G04 APERTURE END LIST*
D10*
%TO.C,C20*%
X144610000Y-31262000D03*
X144610000Y-32222000D03*
%TD*%
D11*
%TO.C,R10*%
X145415000Y-36320000D03*
X145415000Y-37340000D03*
%TD*%
%TO.C,R9*%
X146431000Y-36320000D03*
X146431000Y-37340000D03*
%TD*%
D12*
%TO.C,R3*%
X137414000Y-52707000D03*
X137414000Y-51687000D03*
%TD*%
D13*
%TO.C,C12*%
X151483000Y-38481000D03*
X150523000Y-38481000D03*
%TD*%
D14*
%TO.C,C7*%
X134889400Y-45339000D03*
X135849400Y-45339000D03*
%TD*%
D15*
%TO.C,Q1*%
X133639600Y-26782600D03*
X131739600Y-26782600D03*
X132689600Y-29057600D03*
%TD*%
D14*
%TO.C,C4*%
X137696000Y-48514000D03*
X138656000Y-48514000D03*
%TD*%
D16*
%TO.C,R11*%
X138682000Y-30607000D03*
X139702000Y-30607000D03*
%TD*%
D12*
%TO.C,R6*%
X131826000Y-36324000D03*
X131826000Y-35304000D03*
%TD*%
D17*
%TO.C,J2*%
X142748000Y-27490000D03*
D18*
X140208000Y-27490000D03*
X137668000Y-27490000D03*
%TD*%
D19*
%TO.C,U2*%
X143659000Y-40339500D03*
X143259000Y-40339500D03*
X142859000Y-40339500D03*
X142459000Y-40339500D03*
X142059000Y-40339500D03*
X141659000Y-40339500D03*
X141259000Y-40339500D03*
X140859000Y-40339500D03*
X140459000Y-40339500D03*
X140059000Y-40339500D03*
X139659000Y-40339500D03*
X139259000Y-40339500D03*
X138859000Y-40339500D03*
X138459000Y-40339500D03*
D20*
X137621500Y-41177000D03*
X137621500Y-41577000D03*
X137621500Y-41977000D03*
X137621500Y-42377000D03*
X137621500Y-42777000D03*
X137621500Y-43177000D03*
X137621500Y-43577000D03*
X137621500Y-43977000D03*
X137621500Y-44377000D03*
X137621500Y-44777000D03*
X137621500Y-45177000D03*
X137621500Y-45577000D03*
X137621500Y-45977000D03*
X137621500Y-46377000D03*
D19*
X138459000Y-47214500D03*
X138859000Y-47214500D03*
X139259000Y-47214500D03*
X139659000Y-47214500D03*
X140059000Y-47214500D03*
X140459000Y-47214500D03*
X140859000Y-47214500D03*
X141259000Y-47214500D03*
X141659000Y-47214500D03*
X142059000Y-47214500D03*
X142459000Y-47214500D03*
X142859000Y-47214500D03*
X143259000Y-47214500D03*
X143659000Y-47214500D03*
D20*
X144496500Y-46377000D03*
X144496500Y-45977000D03*
X144496500Y-45577000D03*
X144496500Y-45177000D03*
X144496500Y-44777000D03*
X144496500Y-44377000D03*
X144496500Y-43977000D03*
X144496500Y-43577000D03*
X144496500Y-43177000D03*
X144496500Y-42777000D03*
X144496500Y-42377000D03*
X144496500Y-41977000D03*
X144496500Y-41577000D03*
X144496500Y-41177000D03*
D21*
X141059000Y-43777000D03*
%TD*%
D12*
%TO.C,R4*%
X138557000Y-34800000D03*
X138557000Y-33780000D03*
%TD*%
D22*
%TO.C,SW2*%
X149280000Y-35830000D03*
X149280000Y-27630000D03*
D23*
X149280000Y-33730000D03*
X149280000Y-31730000D03*
X149280000Y-29730000D03*
%TD*%
D13*
%TO.C,C6*%
X147152400Y-44945400D03*
X146192400Y-44945400D03*
%TD*%
D24*
%TO.C,Y1*%
X135367400Y-41744400D03*
X135367400Y-39994400D03*
X133967400Y-39994400D03*
X133967400Y-41744400D03*
%TD*%
D15*
%TO.C,U4*%
X142682000Y-32517500D03*
X141732000Y-32517500D03*
X140782000Y-32517500D03*
X140782000Y-34792500D03*
X142682000Y-34792500D03*
%TD*%
D13*
%TO.C,C8*%
X147927000Y-42926000D03*
X146967000Y-42926000D03*
%TD*%
D16*
%TO.C,R8*%
X134872000Y-46355000D03*
X135892000Y-46355000D03*
%TD*%
D17*
%TO.C,BT1*%
X128579800Y-27381200D03*
D18*
X126039800Y-27381200D03*
%TD*%
D14*
%TO.C,C1*%
X142776000Y-38608000D03*
X143736000Y-38608000D03*
%TD*%
D25*
%TO.C,U1*%
X142508000Y-52333500D03*
X142508000Y-51933500D03*
X142508000Y-51533500D03*
X142508000Y-51133500D03*
X142508000Y-50733500D03*
X142508000Y-50333500D03*
X142508000Y-49933500D03*
X139558000Y-49933500D03*
X139558000Y-50333500D03*
X139558000Y-50733500D03*
X139558000Y-51133500D03*
X139558000Y-51533500D03*
X139558000Y-51933500D03*
X139558000Y-52333500D03*
D26*
X141033000Y-51133500D03*
%TD*%
D27*
%TO.C,C22*%
X133477000Y-34770000D03*
X133477000Y-33810000D03*
%TD*%
D28*
%TO.C,JP1*%
X134276000Y-52451000D03*
D29*
X135726000Y-52451000D03*
%TD*%
D16*
%TO.C,R13*%
X127252000Y-29845000D03*
X128272000Y-29845000D03*
%TD*%
D30*
%TO.C,D1*%
X126873000Y-31369000D03*
X124823000Y-31369000D03*
%TD*%
D14*
%TO.C,C14*%
X134889400Y-43167400D03*
X135849400Y-43167400D03*
%TD*%
D31*
%TO.C,R12*%
X137690000Y-30607000D03*
X136670000Y-30607000D03*
%TD*%
D32*
%TO.C,U3*%
X146668500Y-38497000D03*
X146668500Y-38997000D03*
X146668500Y-39497000D03*
X146668500Y-39997000D03*
X149168500Y-39997000D03*
X149168500Y-39497000D03*
X149168500Y-38997000D03*
X149168500Y-38497000D03*
D33*
X147918500Y-39247000D03*
%TD*%
D12*
%TO.C,R15*%
X143637000Y-54231000D03*
X143637000Y-53211000D03*
%TD*%
D13*
%TO.C,C11*%
X151483000Y-39624000D03*
X150523000Y-39624000D03*
%TD*%
D34*
%TO.C,SW1*%
X145832000Y-57098000D03*
X145832000Y-50598000D03*
X150332000Y-57098000D03*
X150332000Y-50598000D03*
%TD*%
D14*
%TO.C,C17*%
X136807000Y-50641000D03*
X137767000Y-50641000D03*
%TD*%
D16*
%TO.C,R2*%
X134491000Y-50673000D03*
X135511000Y-50673000D03*
%TD*%
D14*
%TO.C,C19*%
X136807000Y-49657000D03*
X137767000Y-49657000D03*
%TD*%
D10*
%TO.C,C16*%
X143764000Y-51082000D03*
X143764000Y-52042000D03*
%TD*%
D27*
%TO.C,C18*%
X144582000Y-34215000D03*
X144582000Y-33255000D03*
%TD*%
D16*
%TO.C,R14*%
X129284000Y-29845000D03*
X130304000Y-29845000D03*
%TD*%
D13*
%TO.C,C10*%
X147152400Y-45961400D03*
X146192400Y-45961400D03*
%TD*%
D31*
%TO.C,R5*%
X130354800Y-31496000D03*
X129334800Y-31496000D03*
%TD*%
D28*
%TO.C,JP2*%
X149376400Y-43802400D03*
D29*
X150826400Y-43802400D03*
%TD*%
D31*
%TO.C,R1*%
X135511000Y-49530000D03*
X134491000Y-49530000D03*
%TD*%
D13*
%TO.C,C24*%
X147152400Y-46977400D03*
X146192400Y-46977400D03*
%TD*%
D35*
%TO.C,U6*%
X128975975Y-34739982D03*
X128975975Y-40520018D03*
D36*
X129506075Y-33309959D03*
X129506075Y-41950041D03*
D37*
X125325988Y-33309959D03*
X125325988Y-41950041D03*
D38*
X130156062Y-34279987D03*
X130156062Y-35080089D03*
X130156062Y-36380064D03*
X130156062Y-37380064D03*
X130156062Y-37879936D03*
X130156062Y-38879682D03*
X130155808Y-40180165D03*
X130156062Y-40980013D03*
X130156062Y-40680038D03*
X130155808Y-39879936D03*
X130156062Y-39380064D03*
X130156062Y-38380064D03*
X130156062Y-36879936D03*
X130156062Y-35879936D03*
X130156062Y-35380064D03*
X130156062Y-34579962D03*
%TD*%
D14*
%TO.C,C15*%
X141633000Y-53594000D03*
X142593000Y-53594000D03*
%TD*%
D39*
%TO.C,JP3*%
X150802000Y-46736000D03*
D40*
X149352000Y-46736000D03*
%TD*%
D41*
%TO.C,U7*%
X130429003Y-45618396D03*
D42*
X127888997Y-45618396D03*
%TD*%
D12*
%TO.C,R7*%
X131826000Y-39118000D03*
X131826000Y-38098000D03*
%TD*%
D13*
%TO.C,C13*%
X135187400Y-38468400D03*
X134227400Y-38468400D03*
%TD*%
%TO.C,C9*%
X147927000Y-43929400D03*
X146967000Y-43929400D03*
%TD*%
D14*
%TO.C,C2*%
X138712000Y-38481000D03*
X139672000Y-38481000D03*
%TD*%
D15*
%TO.C,U5*%
X136967000Y-32517500D03*
X136017000Y-32517500D03*
X135067000Y-32517500D03*
X135067000Y-34792500D03*
X136967000Y-34792500D03*
%TD*%
D13*
%TO.C,C21*%
X135608000Y-30607000D03*
X134648000Y-30607000D03*
%TD*%
%TO.C,C5*%
X145006000Y-48514000D03*
X144046000Y-48514000D03*
%TD*%
D14*
%TO.C,C3*%
X134889400Y-44183400D03*
X135849400Y-44183400D03*
%TD*%
D13*
%TO.C,C23*%
X142565000Y-54610000D03*
X141605000Y-54610000D03*
%TD*%
M02*
