%TF.GenerationSoftware,KiCad,Pcbnew,7.0.9*%
%TF.CreationDate,2024-09-29T22:30:58+03:00*%
%TF.ProjectId,LED-HeadBand,4c45442d-4865-4616-9442-616e642e6b69,rev?*%
%TF.SameCoordinates,Original*%
%TF.FileFunction,Legend,Top*%
%TF.FilePolarity,Positive*%
%FSLAX46Y46*%
G04 Gerber Fmt 4.6, Leading zero omitted, Abs format (unit mm)*
G04 Created by KiCad (PCBNEW 7.0.9) date 2024-09-29 22:30:58*
%MOMM*%
%LPD*%
G01*
G04 APERTURE LIST*
%ADD10C,0.150000*%
%ADD11C,0.300000*%
%ADD12C,0.120000*%
%ADD13C,0.100000*%
%ADD14C,0.127000*%
%ADD15C,0.200000*%
%ADD16C,0.254000*%
%ADD17C,0.059995*%
G04 APERTURE END LIST*
D10*
X125018969Y-56384819D02*
X124542779Y-56384819D01*
X124542779Y-56384819D02*
X124542779Y-55384819D01*
X125352303Y-56384819D02*
X125352303Y-55384819D01*
X126352302Y-55432438D02*
X126257064Y-55384819D01*
X126257064Y-55384819D02*
X126114207Y-55384819D01*
X126114207Y-55384819D02*
X125971350Y-55432438D01*
X125971350Y-55432438D02*
X125876112Y-55527676D01*
X125876112Y-55527676D02*
X125828493Y-55622914D01*
X125828493Y-55622914D02*
X125780874Y-55813390D01*
X125780874Y-55813390D02*
X125780874Y-55956247D01*
X125780874Y-55956247D02*
X125828493Y-56146723D01*
X125828493Y-56146723D02*
X125876112Y-56241961D01*
X125876112Y-56241961D02*
X125971350Y-56337200D01*
X125971350Y-56337200D02*
X126114207Y-56384819D01*
X126114207Y-56384819D02*
X126209445Y-56384819D01*
X126209445Y-56384819D02*
X126352302Y-56337200D01*
X126352302Y-56337200D02*
X126399921Y-56289580D01*
X126399921Y-56289580D02*
X126399921Y-55956247D01*
X126399921Y-55956247D02*
X126209445Y-55956247D01*
X126828493Y-56384819D02*
X126828493Y-55384819D01*
X126828493Y-55861009D02*
X127399921Y-55861009D01*
X127399921Y-56384819D02*
X127399921Y-55384819D01*
X127733255Y-55384819D02*
X128304683Y-55384819D01*
X128018969Y-56384819D02*
X128018969Y-55384819D01*
X128638017Y-56003866D02*
X129399922Y-56003866D01*
X129876112Y-55861009D02*
X130209445Y-55861009D01*
X130352302Y-56384819D02*
X129876112Y-56384819D01*
X129876112Y-56384819D02*
X129876112Y-55384819D01*
X129876112Y-55384819D02*
X130352302Y-55384819D01*
X130780874Y-56384819D02*
X130780874Y-55384819D01*
X130780874Y-55384819D02*
X131018969Y-55384819D01*
X131018969Y-55384819D02*
X131161826Y-55432438D01*
X131161826Y-55432438D02*
X131257064Y-55527676D01*
X131257064Y-55527676D02*
X131304683Y-55622914D01*
X131304683Y-55622914D02*
X131352302Y-55813390D01*
X131352302Y-55813390D02*
X131352302Y-55956247D01*
X131352302Y-55956247D02*
X131304683Y-56146723D01*
X131304683Y-56146723D02*
X131257064Y-56241961D01*
X131257064Y-56241961D02*
X131161826Y-56337200D01*
X131161826Y-56337200D02*
X131018969Y-56384819D01*
X131018969Y-56384819D02*
X130780874Y-56384819D01*
X124399922Y-57035819D02*
X124733255Y-58035819D01*
X124733255Y-58035819D02*
X125066588Y-57035819D01*
X125923731Y-58035819D02*
X125352303Y-58035819D01*
X125638017Y-58035819D02*
X125638017Y-57035819D01*
X125638017Y-57035819D02*
X125542779Y-57178676D01*
X125542779Y-57178676D02*
X125447541Y-57273914D01*
X125447541Y-57273914D02*
X125352303Y-57321533D01*
X126352303Y-57940580D02*
X126399922Y-57988200D01*
X126399922Y-57988200D02*
X126352303Y-58035819D01*
X126352303Y-58035819D02*
X126304684Y-57988200D01*
X126304684Y-57988200D02*
X126352303Y-57940580D01*
X126352303Y-57940580D02*
X126352303Y-58035819D01*
X127352302Y-58035819D02*
X126780874Y-58035819D01*
X127066588Y-58035819D02*
X127066588Y-57035819D01*
X127066588Y-57035819D02*
X126971350Y-57178676D01*
X126971350Y-57178676D02*
X126876112Y-57273914D01*
X126876112Y-57273914D02*
X126780874Y-57321533D01*
X129978379Y-28698866D02*
X130740284Y-28698866D01*
X130359331Y-29079819D02*
X130359331Y-28317914D01*
D11*
X144209000Y-39385400D02*
G75*
G03*
X144209000Y-39385400I-150000J0D01*
G01*
D10*
X124000000Y-25400000D02*
X152000000Y-25400000D01*
X152000000Y-58539000D01*
X124000000Y-58539000D01*
X124000000Y-25400000D01*
X142449779Y-29460866D02*
X143211684Y-29460866D01*
X142830731Y-29841819D02*
X142830731Y-29079914D01*
X145659819Y-31022744D02*
X145659819Y-30832268D01*
X145659819Y-30832268D02*
X145707438Y-30737030D01*
X145707438Y-30737030D02*
X145802676Y-30641792D01*
X145802676Y-30641792D02*
X145993152Y-30594173D01*
X145993152Y-30594173D02*
X146326485Y-30594173D01*
X146326485Y-30594173D02*
X146516961Y-30641792D01*
X146516961Y-30641792D02*
X146612200Y-30737030D01*
X146612200Y-30737030D02*
X146659819Y-30832268D01*
X146659819Y-30832268D02*
X146659819Y-31022744D01*
X146659819Y-31022744D02*
X146612200Y-31117982D01*
X146612200Y-31117982D02*
X146516961Y-31213220D01*
X146516961Y-31213220D02*
X146326485Y-31260839D01*
X146326485Y-31260839D02*
X145993152Y-31260839D01*
X145993152Y-31260839D02*
X145802676Y-31213220D01*
X145802676Y-31213220D02*
X145707438Y-31117982D01*
X145707438Y-31117982D02*
X145659819Y-31022744D01*
X146659819Y-30165601D02*
X145659819Y-30165601D01*
X145659819Y-30165601D02*
X146659819Y-29594173D01*
X146659819Y-29594173D02*
X145659819Y-29594173D01*
X145612200Y-28403697D02*
X146897914Y-29260839D01*
X145659819Y-27879887D02*
X145659819Y-27689411D01*
X145659819Y-27689411D02*
X145707438Y-27594173D01*
X145707438Y-27594173D02*
X145802676Y-27498935D01*
X145802676Y-27498935D02*
X145993152Y-27451316D01*
X145993152Y-27451316D02*
X146326485Y-27451316D01*
X146326485Y-27451316D02*
X146516961Y-27498935D01*
X146516961Y-27498935D02*
X146612200Y-27594173D01*
X146612200Y-27594173D02*
X146659819Y-27689411D01*
X146659819Y-27689411D02*
X146659819Y-27879887D01*
X146659819Y-27879887D02*
X146612200Y-27975125D01*
X146612200Y-27975125D02*
X146516961Y-28070363D01*
X146516961Y-28070363D02*
X146326485Y-28117982D01*
X146326485Y-28117982D02*
X145993152Y-28117982D01*
X145993152Y-28117982D02*
X145802676Y-28070363D01*
X145802676Y-28070363D02*
X145707438Y-27975125D01*
X145707438Y-27975125D02*
X145659819Y-27879887D01*
X146136009Y-26689411D02*
X146136009Y-27022744D01*
X146659819Y-27022744D02*
X145659819Y-27022744D01*
X145659819Y-27022744D02*
X145659819Y-26546554D01*
X146136009Y-25832268D02*
X146136009Y-26165601D01*
X146659819Y-26165601D02*
X145659819Y-26165601D01*
X145659819Y-26165601D02*
X145659819Y-25689411D01*
X124415779Y-28952866D02*
X125177684Y-28952866D01*
X137115779Y-29079866D02*
X137877684Y-29079866D01*
X138435495Y-40972219D02*
X138435495Y-41781742D01*
X138435495Y-41781742D02*
X138483114Y-41876980D01*
X138483114Y-41876980D02*
X138530733Y-41924600D01*
X138530733Y-41924600D02*
X138625971Y-41972219D01*
X138625971Y-41972219D02*
X138816447Y-41972219D01*
X138816447Y-41972219D02*
X138911685Y-41924600D01*
X138911685Y-41924600D02*
X138959304Y-41876980D01*
X138959304Y-41876980D02*
X139006923Y-41781742D01*
X139006923Y-41781742D02*
X139006923Y-40972219D01*
X139435495Y-41067457D02*
X139483114Y-41019838D01*
X139483114Y-41019838D02*
X139578352Y-40972219D01*
X139578352Y-40972219D02*
X139816447Y-40972219D01*
X139816447Y-40972219D02*
X139911685Y-41019838D01*
X139911685Y-41019838D02*
X139959304Y-41067457D01*
X139959304Y-41067457D02*
X140006923Y-41162695D01*
X140006923Y-41162695D02*
X140006923Y-41257933D01*
X140006923Y-41257933D02*
X139959304Y-41400790D01*
X139959304Y-41400790D02*
X139387876Y-41972219D01*
X139387876Y-41972219D02*
X140006923Y-41972219D01*
X141870095Y-35969819D02*
X141870095Y-36779342D01*
X141870095Y-36779342D02*
X141917714Y-36874580D01*
X141917714Y-36874580D02*
X141965333Y-36922200D01*
X141965333Y-36922200D02*
X142060571Y-36969819D01*
X142060571Y-36969819D02*
X142251047Y-36969819D01*
X142251047Y-36969819D02*
X142346285Y-36922200D01*
X142346285Y-36922200D02*
X142393904Y-36874580D01*
X142393904Y-36874580D02*
X142441523Y-36779342D01*
X142441523Y-36779342D02*
X142441523Y-35969819D01*
X143346285Y-36303152D02*
X143346285Y-36969819D01*
X143108190Y-35922200D02*
X142870095Y-36636485D01*
X142870095Y-36636485D02*
X143489142Y-36636485D01*
X127134819Y-38101904D02*
X127944342Y-38101904D01*
X127944342Y-38101904D02*
X128039580Y-38054285D01*
X128039580Y-38054285D02*
X128087200Y-38006666D01*
X128087200Y-38006666D02*
X128134819Y-37911428D01*
X128134819Y-37911428D02*
X128134819Y-37720952D01*
X128134819Y-37720952D02*
X128087200Y-37625714D01*
X128087200Y-37625714D02*
X128039580Y-37578095D01*
X128039580Y-37578095D02*
X127944342Y-37530476D01*
X127944342Y-37530476D02*
X127134819Y-37530476D01*
X127134819Y-36625714D02*
X127134819Y-36816190D01*
X127134819Y-36816190D02*
X127182438Y-36911428D01*
X127182438Y-36911428D02*
X127230057Y-36959047D01*
X127230057Y-36959047D02*
X127372914Y-37054285D01*
X127372914Y-37054285D02*
X127563390Y-37101904D01*
X127563390Y-37101904D02*
X127944342Y-37101904D01*
X127944342Y-37101904D02*
X128039580Y-37054285D01*
X128039580Y-37054285D02*
X128087200Y-37006666D01*
X128087200Y-37006666D02*
X128134819Y-36911428D01*
X128134819Y-36911428D02*
X128134819Y-36720952D01*
X128134819Y-36720952D02*
X128087200Y-36625714D01*
X128087200Y-36625714D02*
X128039580Y-36578095D01*
X128039580Y-36578095D02*
X127944342Y-36530476D01*
X127944342Y-36530476D02*
X127706247Y-36530476D01*
X127706247Y-36530476D02*
X127611009Y-36578095D01*
X127611009Y-36578095D02*
X127563390Y-36625714D01*
X127563390Y-36625714D02*
X127515771Y-36720952D01*
X127515771Y-36720952D02*
X127515771Y-36911428D01*
X127515771Y-36911428D02*
X127563390Y-37006666D01*
X127563390Y-37006666D02*
X127611009Y-37054285D01*
X127611009Y-37054285D02*
X127706247Y-37101904D01*
X125857042Y-46301863D02*
X126618947Y-46301863D01*
D12*
%TO.C,SW1*%
X151332000Y-56098000D02*
X151332000Y-51598000D01*
X144832000Y-51598000D02*
X144832000Y-56098000D01*
X148832000Y-50348000D02*
X147332000Y-50348000D01*
X147332000Y-57348000D02*
X148832000Y-57348000D01*
%TO.C,C23*%
X142192836Y-54250000D02*
X141977164Y-54250000D01*
X142192836Y-54970000D02*
X141977164Y-54970000D01*
%TO.C,R13*%
X127608359Y-29465000D02*
X127915641Y-29465000D01*
X127608359Y-30225000D02*
X127915641Y-30225000D01*
%TO.C,R14*%
X129640359Y-29465000D02*
X129947641Y-29465000D01*
X129640359Y-30225000D02*
X129947641Y-30225000D01*
%TO.C,R15*%
X143257000Y-53874641D02*
X143257000Y-53567359D01*
X144017000Y-53874641D02*
X144017000Y-53567359D01*
%TO.C,C20*%
X144970000Y-31634164D02*
X144970000Y-31849836D01*
X144250000Y-31634164D02*
X144250000Y-31849836D01*
%TO.C,R10*%
X145795000Y-36676359D02*
X145795000Y-36983641D01*
X145035000Y-36676359D02*
X145035000Y-36983641D01*
%TO.C,R9*%
X146811000Y-36676359D02*
X146811000Y-36983641D01*
X146051000Y-36676359D02*
X146051000Y-36983641D01*
%TO.C,R3*%
X137034000Y-52350641D02*
X137034000Y-52043359D01*
X137794000Y-52350641D02*
X137794000Y-52043359D01*
%TO.C,C12*%
X151110836Y-38841000D02*
X150895164Y-38841000D01*
X151110836Y-38121000D02*
X150895164Y-38121000D01*
%TO.C,C7*%
X135261564Y-44979000D02*
X135477236Y-44979000D01*
X135261564Y-45699000D02*
X135477236Y-45699000D01*
%TO.C,Q1*%
X134249600Y-27920100D02*
X134249600Y-26120100D01*
X134249600Y-27920100D02*
X134249600Y-28720100D01*
X131129600Y-27920100D02*
X131129600Y-27120100D01*
X131129600Y-27920100D02*
X131129600Y-28720100D01*
%TO.C,C4*%
X138068164Y-48154000D02*
X138283836Y-48154000D01*
X138068164Y-48874000D02*
X138283836Y-48874000D01*
%TO.C,R11*%
X139345641Y-30987000D02*
X139038359Y-30987000D01*
X139345641Y-30227000D02*
X139038359Y-30227000D01*
%TO.C,R6*%
X131446000Y-35967641D02*
X131446000Y-35660359D01*
X132206000Y-35967641D02*
X132206000Y-35660359D01*
%TO.C,J2*%
X144078000Y-26160000D02*
X144078000Y-27490000D01*
X142748000Y-26160000D02*
X144078000Y-26160000D01*
X141478000Y-26160000D02*
X136338000Y-26160000D01*
X141478000Y-26160000D02*
X141478000Y-28820000D01*
X136338000Y-26160000D02*
X136338000Y-28820000D01*
X141478000Y-28820000D02*
X136338000Y-28820000D01*
%TO.C,U2*%
X137449000Y-40167000D02*
X138099000Y-40167000D01*
X144669000Y-40817000D02*
X144669000Y-40167000D01*
X137449000Y-40817000D02*
X137449000Y-40167000D01*
X144669000Y-46737000D02*
X144669000Y-47387000D01*
X137449000Y-46737000D02*
X137449000Y-47387000D01*
X144669000Y-47387000D02*
X144019000Y-47387000D01*
X137449000Y-47387000D02*
X138099000Y-47387000D01*
%TO.C,R4*%
X138177000Y-34443641D02*
X138177000Y-34136359D01*
X138937000Y-34443641D02*
X138937000Y-34136359D01*
D13*
%TO.C,SW2*%
X147130000Y-37830000D02*
X151430000Y-37830000D01*
X151430000Y-37830000D02*
X151430000Y-25630000D01*
X151430000Y-25630000D02*
X147130000Y-25630000D01*
X147130000Y-25630000D02*
X147130000Y-37830000D01*
D12*
%TO.C,C6*%
X146780236Y-45305400D02*
X146564564Y-45305400D01*
X146780236Y-44585400D02*
X146564564Y-44585400D01*
%TO.C,Y1*%
X133267400Y-42519400D02*
X136067400Y-42519400D01*
X136067400Y-42519400D02*
X136067400Y-39219400D01*
%TO.C,U4*%
X143292000Y-33655000D02*
X143292000Y-31855000D01*
X143292000Y-33655000D02*
X143292000Y-34455000D01*
X140172000Y-33655000D02*
X140172000Y-32855000D01*
X140172000Y-33655000D02*
X140172000Y-34455000D01*
%TO.C,C8*%
X147554836Y-43286000D02*
X147339164Y-43286000D01*
X147554836Y-42566000D02*
X147339164Y-42566000D01*
%TO.C,R8*%
X135228359Y-45975000D02*
X135535641Y-45975000D01*
X135228359Y-46735000D02*
X135535641Y-46735000D01*
%TO.C,BT1*%
X129909800Y-26051200D02*
X129909800Y-27381200D01*
X128579800Y-26051200D02*
X129909800Y-26051200D01*
X127309800Y-26051200D02*
X124709800Y-26051200D01*
X127309800Y-26051200D02*
X127309800Y-28711200D01*
X124709800Y-26051200D02*
X124709800Y-28711200D01*
X127309800Y-28711200D02*
X124709800Y-28711200D01*
%TO.C,C1*%
X143148164Y-38248000D02*
X143363836Y-38248000D01*
X143148164Y-38968000D02*
X143363836Y-38968000D01*
D10*
%TO.C,U1*%
X142533000Y-49508500D02*
X139533000Y-49508500D01*
X141033000Y-52758500D02*
X139533000Y-52758500D01*
D12*
%TO.C,C22*%
X133117000Y-34397836D02*
X133117000Y-34182164D01*
X133837000Y-34397836D02*
X133837000Y-34182164D01*
%TO.C,JP1*%
X133601000Y-51451000D02*
X136401000Y-51451000D01*
X133601000Y-53451000D02*
X133601000Y-51451000D01*
X136401000Y-51451000D02*
X136401000Y-53451000D01*
X136401000Y-53451000D02*
X133601000Y-53451000D01*
%TO.C,D1*%
X127708000Y-32329000D02*
X127708000Y-30409000D01*
X127708000Y-30409000D02*
X124848000Y-30409000D01*
X124848000Y-32329000D02*
X127708000Y-32329000D01*
%TO.C,C14*%
X135261564Y-42807400D02*
X135477236Y-42807400D01*
X135261564Y-43527400D02*
X135477236Y-43527400D01*
%TO.C,R12*%
X137333641Y-30987000D02*
X137026359Y-30987000D01*
X137333641Y-30227000D02*
X137026359Y-30227000D01*
D14*
%TO.C,U3*%
X146218500Y-38147000D02*
X149618500Y-38147000D01*
X146218500Y-40347000D02*
X146218500Y-38147000D01*
X147288500Y-38247000D02*
X147448500Y-38247000D01*
X148548500Y-38247000D02*
X148388500Y-38247000D01*
X149618500Y-38147000D02*
X149618500Y-40347000D01*
X149618500Y-40347000D02*
X146218500Y-40347000D01*
D15*
X145858500Y-38487000D02*
G75*
G03*
X145858500Y-38487000I-100000J0D01*
G01*
D12*
%TO.C,C11*%
X151110836Y-39984000D02*
X150895164Y-39984000D01*
X151110836Y-39264000D02*
X150895164Y-39264000D01*
%TO.C,C17*%
X137179164Y-50281000D02*
X137394836Y-50281000D01*
X137179164Y-51001000D02*
X137394836Y-51001000D01*
%TO.C,R2*%
X134847359Y-50293000D02*
X135154641Y-50293000D01*
X134847359Y-51053000D02*
X135154641Y-51053000D01*
%TO.C,C19*%
X137179164Y-49297000D02*
X137394836Y-49297000D01*
X137179164Y-50017000D02*
X137394836Y-50017000D01*
%TO.C,C16*%
X144124000Y-51454164D02*
X144124000Y-51669836D01*
X143404000Y-51454164D02*
X143404000Y-51669836D01*
%TO.C,C18*%
X144222000Y-33842836D02*
X144222000Y-33627164D01*
X144942000Y-33842836D02*
X144942000Y-33627164D01*
%TO.C,C10*%
X146780236Y-46321400D02*
X146564564Y-46321400D01*
X146780236Y-45601400D02*
X146564564Y-45601400D01*
%TO.C,R5*%
X129998441Y-31876000D02*
X129691159Y-31876000D01*
X129998441Y-31116000D02*
X129691159Y-31116000D01*
%TO.C,JP2*%
X148701400Y-42802400D02*
X151501400Y-42802400D01*
X148701400Y-44802400D02*
X148701400Y-42802400D01*
X151501400Y-42802400D02*
X151501400Y-44802400D01*
X151501400Y-44802400D02*
X148701400Y-44802400D01*
%TO.C,R1*%
X135154641Y-49910000D02*
X134847359Y-49910000D01*
X135154641Y-49150000D02*
X134847359Y-49150000D01*
%TO.C,C24*%
X146780236Y-47337400D02*
X146564564Y-47337400D01*
X146780236Y-46617400D02*
X146564564Y-46617400D01*
D16*
%TO.C,U6*%
X128314101Y-33057965D02*
X126417809Y-33057965D01*
X124234015Y-33057965D02*
X122660939Y-33057965D01*
X122660939Y-33057965D02*
X122660939Y-42201984D01*
X126417809Y-42201984D02*
X128314101Y-42201984D01*
X122660939Y-42201984D02*
X124234015Y-42201984D01*
D12*
%TO.C,C15*%
X142005164Y-53234000D02*
X142220836Y-53234000D01*
X142005164Y-53954000D02*
X142220836Y-53954000D01*
%TO.C,JP3*%
X151477000Y-47736000D02*
X148677000Y-47736000D01*
X151477000Y-45736000D02*
X151477000Y-47736000D01*
X148677000Y-47736000D02*
X148677000Y-45736000D01*
X148677000Y-45736000D02*
X151477000Y-45736000D01*
D17*
%TO.C,U7*%
X134044015Y-42768587D02*
G75*
G03*
X134044015Y-42768587I-29998J0D01*
G01*
D16*
X134010410Y-47625000D02*
G75*
G03*
X134010410Y-47625000I-4851410J0D01*
G01*
D12*
%TO.C,R7*%
X131446000Y-38761641D02*
X131446000Y-38454359D01*
X132206000Y-38761641D02*
X132206000Y-38454359D01*
%TO.C,C13*%
X134815236Y-38828400D02*
X134599564Y-38828400D01*
X134815236Y-38108400D02*
X134599564Y-38108400D01*
%TO.C,C9*%
X147554836Y-44289400D02*
X147339164Y-44289400D01*
X147554836Y-43569400D02*
X147339164Y-43569400D01*
%TO.C,C2*%
X139084164Y-38121000D02*
X139299836Y-38121000D01*
X139084164Y-38841000D02*
X139299836Y-38841000D01*
%TO.C,U5*%
X137577000Y-33655000D02*
X137577000Y-31855000D01*
X137577000Y-33655000D02*
X137577000Y-34455000D01*
X134457000Y-33655000D02*
X134457000Y-32855000D01*
X134457000Y-33655000D02*
X134457000Y-34455000D01*
%TO.C,C21*%
X135235836Y-30967000D02*
X135020164Y-30967000D01*
X135235836Y-30247000D02*
X135020164Y-30247000D01*
%TO.C,C5*%
X144633836Y-48874000D02*
X144418164Y-48874000D01*
X144633836Y-48154000D02*
X144418164Y-48154000D01*
%TO.C,C3*%
X135261564Y-43823400D02*
X135477236Y-43823400D01*
X135261564Y-44543400D02*
X135477236Y-44543400D01*
%TD*%
M02*
