M48
; DRILL file {KiCad 7.0.9} date Tue Oct  1 20:52:56 2024
; FORMAT={-:-/ absolute / inch / decimal}
; #@! TF.CreationDate,2024-10-01T20:52:56+03:00
; #@! TF.GenerationSoftware,Kicad,Pcbnew,7.0.9
; #@! TF.FileFunction,Plated,1,2,PTH
FMAT,2
INCH
; #@! TA.AperFunction,Plated,PTH,ViaDrill
T1C0.0157
; #@! TA.AperFunction,Plated,PTH,ComponentDrill
T2C0.0236
; #@! TA.AperFunction,Plated,PTH,ComponentDrill
T3C0.0315
; #@! TA.AperFunction,Plated,PTH,ComponentDrill
T4C0.0335
; #@! TA.AperFunction,Plated,PTH,ComponentDrill
T5C0.0394
; #@! TA.AperFunction,Plated,PTH,ComponentDrill
T6C0.0433
; #@! TA.AperFunction,Plated,PTH,ComponentDrill
T7C0.0630
%
G90
G05
T1
X5.07Y-1.505
X5.09Y-1.205
X5.165Y-1.205
X5.19Y-1.465
X5.215Y-1.295
X5.265Y-1.195
X5.275Y-1.785
X5.325Y-1.035
X5.3501Y-1.825
X5.36Y-1.91
X5.375Y-1.235
X5.3861Y-1.9937
X5.41Y-2.035
X5.42Y-1.855
X5.45Y-1.28
X5.455Y-1.685
X5.46Y-1.745
X5.4601Y-1.9749
X5.4615Y-2.0085
X5.495Y-1.245
X5.515Y-1.685
X5.515Y-1.755
X5.5208Y-1.42
X5.5521Y-1.9003
X5.575Y-1.92
X5.58Y-1.33
X5.595Y-1.685
X5.595Y-1.755
X5.605Y-1.93
X5.6349Y-1.8991
X5.65Y-1.715
X5.65Y-1.78
X5.65Y-1.8086
X5.67Y-1.98
X5.725Y-1.29
X5.725Y-1.785
X5.73Y-1.885
X5.765Y-1.4299
X5.78Y-1.6
X5.875Y-1.83
X5.885Y-1.725
T3
X5.035Y-1.796
X5.135Y-1.796
T4
X5.8772Y-1.1705
X5.8772Y-1.2492
X5.8772Y-1.328
T5
X4.9622Y-1.078
X5.0622Y-1.078
X5.42Y-1.0823
X5.52Y-1.0823
X5.62Y-1.0823
T6
X5.7414Y-1.992
X5.7414Y-2.248
X5.9186Y-1.992
X5.9186Y-2.248
T7
X5.8772Y-1.0878
X5.8772Y-1.4106
T2
G00X4.9498Y-1.3114
M15
G01X4.9183Y-1.3114
M16
G05
G00X4.9498Y-1.6516
M15
G01X4.9183Y-1.6516
M16
G05
G00X5.1203Y-1.3114
M15
G01X5.077Y-1.3114
M16
G05
G00X5.1203Y-1.6516
M15
G01X5.077Y-1.6516
M16
G05
T0
M30
