%TF.GenerationSoftware,KiCad,Pcbnew,7.0.9*%
%TF.CreationDate,2024-10-01T20:52:59+03:00*%
%TF.ProjectId,LED-HeadBand,4c45442d-4865-4616-9442-616e642e6b69,rev?*%
%TF.SameCoordinates,Original*%
%TF.FileFunction,Paste,Top*%
%TF.FilePolarity,Positive*%
%FSLAX46Y46*%
G04 Gerber Fmt 4.6, Leading zero omitted, Abs format (unit mm)*
G04 Created by KiCad (PCBNEW 7.0.9) date 2024-10-01 20:52:59*
%MOMM*%
%LPD*%
G01*
G04 APERTURE LIST*
G04 Aperture macros list*
%AMRoundRect*
0 Rectangle with rounded corners*
0 $1 Rounding radius*
0 $2 $3 $4 $5 $6 $7 $8 $9 X,Y pos of 4 corners*
0 Add a 4 corners polygon primitive as box body*
4,1,4,$2,$3,$4,$5,$6,$7,$8,$9,$2,$3,0*
0 Add four circle primitives for the rounded corners*
1,1,$1+$1,$2,$3*
1,1,$1+$1,$4,$5*
1,1,$1+$1,$6,$7*
1,1,$1+$1,$8,$9*
0 Add four rect primitives between the rounded corners*
20,1,$1+$1,$2,$3,$4,$5,0*
20,1,$1+$1,$4,$5,$6,$7,0*
20,1,$1+$1,$6,$7,$8,$9,0*
20,1,$1+$1,$8,$9,$2,$3,0*%
G04 Aperture macros list end*
%ADD10RoundRect,0.140000X-0.170000X0.140000X-0.170000X-0.140000X0.170000X-0.140000X0.170000X0.140000X0*%
%ADD11RoundRect,0.135000X-0.185000X0.135000X-0.185000X-0.135000X0.185000X-0.135000X0.185000X0.135000X0*%
%ADD12RoundRect,0.135000X0.185000X-0.135000X0.185000X0.135000X-0.185000X0.135000X-0.185000X-0.135000X0*%
%ADD13RoundRect,0.140000X0.140000X0.170000X-0.140000X0.170000X-0.140000X-0.170000X0.140000X-0.170000X0*%
%ADD14RoundRect,0.140000X-0.140000X-0.170000X0.140000X-0.170000X0.140000X0.170000X-0.140000X0.170000X0*%
%ADD15RoundRect,0.150000X-0.150000X0.512500X-0.150000X-0.512500X0.150000X-0.512500X0.150000X0.512500X0*%
%ADD16RoundRect,0.135000X-0.135000X-0.185000X0.135000X-0.185000X0.135000X0.185000X-0.135000X0.185000X0*%
%ADD17RoundRect,0.249999X-0.395001X0.395001X-0.395001X-0.395001X0.395001X-0.395001X0.395001X0.395001X0*%
%ADD18RoundRect,0.050000X-0.050000X0.387500X-0.050000X-0.387500X0.050000X-0.387500X0.050000X0.387500X0*%
%ADD19RoundRect,0.050000X-0.387500X0.050000X-0.387500X-0.050000X0.387500X-0.050000X0.387500X0.050000X0*%
%ADD20R,1.000000X1.150000*%
%ADD21R,0.700000X0.970000*%
%ADD22R,0.700000X0.250000*%
%ADD23RoundRect,0.140000X0.170000X-0.140000X0.170000X0.140000X-0.170000X0.140000X-0.170000X-0.140000X0*%
%ADD24RoundRect,0.250000X0.325000X0.450000X-0.325000X0.450000X-0.325000X-0.450000X0.325000X-0.450000X0*%
%ADD25RoundRect,0.135000X0.135000X0.185000X-0.135000X0.185000X-0.135000X-0.185000X0.135000X-0.185000X0*%
%ADD26R,0.600000X0.300000*%
%ADD27R,0.300000X1.700000*%
%ADD28R,1.300000X0.300000*%
G04 APERTURE END LIST*
D10*
%TO.C,C20*%
X144610000Y-31262000D03*
X144610000Y-32222000D03*
%TD*%
D11*
%TO.C,R10*%
X145415000Y-36320000D03*
X145415000Y-37340000D03*
%TD*%
%TO.C,R9*%
X146431000Y-36320000D03*
X146431000Y-37340000D03*
%TD*%
D12*
%TO.C,R3*%
X137414000Y-52707000D03*
X137414000Y-51687000D03*
%TD*%
D13*
%TO.C,C12*%
X151483000Y-38481000D03*
X150523000Y-38481000D03*
%TD*%
D14*
%TO.C,C7*%
X134889400Y-45339000D03*
X135849400Y-45339000D03*
%TD*%
D15*
%TO.C,Q1*%
X133639600Y-26782600D03*
X131739600Y-26782600D03*
X132689600Y-29057600D03*
%TD*%
D14*
%TO.C,C4*%
X137696000Y-48514000D03*
X138656000Y-48514000D03*
%TD*%
D16*
%TO.C,R11*%
X138682000Y-30607000D03*
X139702000Y-30607000D03*
%TD*%
D12*
%TO.C,R6*%
X131826000Y-36324000D03*
X131826000Y-35304000D03*
%TD*%
D17*
%TO.C,U2*%
X141859000Y-42977000D03*
X140259000Y-42977000D03*
X141859000Y-44577000D03*
X140259000Y-44577000D03*
D18*
X143659000Y-40339500D03*
X143259000Y-40339500D03*
X142859000Y-40339500D03*
X142459000Y-40339500D03*
X142059000Y-40339500D03*
X141659000Y-40339500D03*
X141259000Y-40339500D03*
X140859000Y-40339500D03*
X140459000Y-40339500D03*
X140059000Y-40339500D03*
X139659000Y-40339500D03*
X139259000Y-40339500D03*
X138859000Y-40339500D03*
X138459000Y-40339500D03*
D19*
X137621500Y-41177000D03*
X137621500Y-41577000D03*
X137621500Y-41977000D03*
X137621500Y-42377000D03*
X137621500Y-42777000D03*
X137621500Y-43177000D03*
X137621500Y-43577000D03*
X137621500Y-43977000D03*
X137621500Y-44377000D03*
X137621500Y-44777000D03*
X137621500Y-45177000D03*
X137621500Y-45577000D03*
X137621500Y-45977000D03*
X137621500Y-46377000D03*
D18*
X138459000Y-47214500D03*
X138859000Y-47214500D03*
X139259000Y-47214500D03*
X139659000Y-47214500D03*
X140059000Y-47214500D03*
X140459000Y-47214500D03*
X140859000Y-47214500D03*
X141259000Y-47214500D03*
X141659000Y-47214500D03*
X142059000Y-47214500D03*
X142459000Y-47214500D03*
X142859000Y-47214500D03*
X143259000Y-47214500D03*
X143659000Y-47214500D03*
D19*
X144496500Y-46377000D03*
X144496500Y-45977000D03*
X144496500Y-45577000D03*
X144496500Y-45177000D03*
X144496500Y-44777000D03*
X144496500Y-44377000D03*
X144496500Y-43977000D03*
X144496500Y-43577000D03*
X144496500Y-43177000D03*
X144496500Y-42777000D03*
X144496500Y-42377000D03*
X144496500Y-41977000D03*
X144496500Y-41577000D03*
X144496500Y-41177000D03*
%TD*%
D12*
%TO.C,R4*%
X138557000Y-34800000D03*
X138557000Y-33780000D03*
%TD*%
D13*
%TO.C,C6*%
X147152400Y-44945400D03*
X146192400Y-44945400D03*
%TD*%
D20*
%TO.C,Y1*%
X135367400Y-41744400D03*
X135367400Y-39994400D03*
X133967400Y-39994400D03*
X133967400Y-41744400D03*
%TD*%
D15*
%TO.C,U4*%
X142682000Y-32517500D03*
X141732000Y-32517500D03*
X140782000Y-32517500D03*
X140782000Y-34792500D03*
X142682000Y-34792500D03*
%TD*%
D13*
%TO.C,C8*%
X147927000Y-42926000D03*
X146967000Y-42926000D03*
%TD*%
D16*
%TO.C,R8*%
X134872000Y-46355000D03*
X135892000Y-46355000D03*
%TD*%
D14*
%TO.C,C1*%
X142776000Y-38608000D03*
X143736000Y-38608000D03*
%TD*%
D21*
%TO.C,U1*%
X141478000Y-51721000D03*
X141478000Y-50546000D03*
X140583000Y-51717100D03*
X140583000Y-50546000D03*
D22*
X142508000Y-52333500D03*
X142508000Y-51933500D03*
X142508000Y-51533500D03*
X142508000Y-51133500D03*
X142508000Y-50733500D03*
X142508000Y-50333500D03*
X142508000Y-49933500D03*
X139558000Y-49933500D03*
X139558000Y-50333500D03*
X139558000Y-50733500D03*
X139558000Y-51133500D03*
X139558000Y-51533500D03*
X139558000Y-51933500D03*
X139558000Y-52333500D03*
%TD*%
D23*
%TO.C,C22*%
X133477000Y-34770000D03*
X133477000Y-33810000D03*
%TD*%
D16*
%TO.C,R13*%
X127252000Y-29845000D03*
X128272000Y-29845000D03*
%TD*%
D24*
%TO.C,D1*%
X126873000Y-31369000D03*
X124823000Y-31369000D03*
%TD*%
D14*
%TO.C,C14*%
X134889400Y-43167400D03*
X135849400Y-43167400D03*
%TD*%
D25*
%TO.C,R12*%
X137690000Y-30607000D03*
X136670000Y-30607000D03*
%TD*%
D26*
%TO.C,U3*%
X146668500Y-38497000D03*
X146668500Y-38997000D03*
X146668500Y-39497000D03*
X146668500Y-39997000D03*
X149168500Y-39997000D03*
X149168500Y-39497000D03*
X149168500Y-38997000D03*
X149168500Y-38497000D03*
D27*
X147918500Y-39247000D03*
%TD*%
D12*
%TO.C,R15*%
X143637000Y-54231000D03*
X143637000Y-53211000D03*
%TD*%
D13*
%TO.C,C11*%
X151483000Y-39624000D03*
X150523000Y-39624000D03*
%TD*%
D14*
%TO.C,C17*%
X136807000Y-50641000D03*
X137767000Y-50641000D03*
%TD*%
D16*
%TO.C,R2*%
X134491000Y-50673000D03*
X135511000Y-50673000D03*
%TD*%
D14*
%TO.C,C19*%
X136807000Y-49657000D03*
X137767000Y-49657000D03*
%TD*%
D10*
%TO.C,C16*%
X143764000Y-51082000D03*
X143764000Y-52042000D03*
%TD*%
D23*
%TO.C,C18*%
X144582000Y-34215000D03*
X144582000Y-33255000D03*
%TD*%
D16*
%TO.C,R14*%
X129284000Y-29845000D03*
X130304000Y-29845000D03*
%TD*%
D13*
%TO.C,C10*%
X147152400Y-45961400D03*
X146192400Y-45961400D03*
%TD*%
D25*
%TO.C,R5*%
X130354800Y-31496000D03*
X129334800Y-31496000D03*
%TD*%
%TO.C,R1*%
X135511000Y-49530000D03*
X134491000Y-49530000D03*
%TD*%
D13*
%TO.C,C24*%
X147152400Y-46977400D03*
X146192400Y-46977400D03*
%TD*%
D28*
%TO.C,U6*%
X130156062Y-34279987D03*
X130156062Y-35080089D03*
X130156062Y-36380064D03*
X130156062Y-37380064D03*
X130156062Y-37879936D03*
X130156062Y-38879682D03*
X130155808Y-40180165D03*
X130156062Y-40980013D03*
X130156062Y-40680038D03*
X130155808Y-39879936D03*
X130156062Y-39380064D03*
X130156062Y-38380064D03*
X130156062Y-36879936D03*
X130156062Y-35879936D03*
X130156062Y-35380064D03*
X130156062Y-34579962D03*
%TD*%
D14*
%TO.C,C15*%
X141633000Y-53594000D03*
X142593000Y-53594000D03*
%TD*%
D12*
%TO.C,R7*%
X131826000Y-39118000D03*
X131826000Y-38098000D03*
%TD*%
D13*
%TO.C,C13*%
X135187400Y-38468400D03*
X134227400Y-38468400D03*
%TD*%
%TO.C,C9*%
X147927000Y-43929400D03*
X146967000Y-43929400D03*
%TD*%
D14*
%TO.C,C2*%
X138712000Y-38481000D03*
X139672000Y-38481000D03*
%TD*%
D15*
%TO.C,U5*%
X136967000Y-32517500D03*
X136017000Y-32517500D03*
X135067000Y-32517500D03*
X135067000Y-34792500D03*
X136967000Y-34792500D03*
%TD*%
D13*
%TO.C,C21*%
X135608000Y-30607000D03*
X134648000Y-30607000D03*
%TD*%
%TO.C,C5*%
X145006000Y-48514000D03*
X144046000Y-48514000D03*
%TD*%
D14*
%TO.C,C3*%
X134889400Y-44183400D03*
X135849400Y-44183400D03*
%TD*%
D13*
%TO.C,C23*%
X142565000Y-54610000D03*
X141605000Y-54610000D03*
%TD*%
M02*
