%TF.GenerationSoftware,KiCad,Pcbnew,7.0.9*%
%TF.CreationDate,2024-09-29T22:30:58+03:00*%
%TF.ProjectId,LED-HeadBand,4c45442d-4865-4616-9442-616e642e6b69,rev?*%
%TF.SameCoordinates,Original*%
%TF.FileFunction,Copper,L1,Top*%
%TF.FilePolarity,Positive*%
%FSLAX46Y46*%
G04 Gerber Fmt 4.6, Leading zero omitted, Abs format (unit mm)*
G04 Created by KiCad (PCBNEW 7.0.9) date 2024-09-29 22:30:58*
%MOMM*%
%LPD*%
G01*
G04 APERTURE LIST*
G04 Aperture macros list*
%AMRoundRect*
0 Rectangle with rounded corners*
0 $1 Rounding radius*
0 $2 $3 $4 $5 $6 $7 $8 $9 X,Y pos of 4 corners*
0 Add a 4 corners polygon primitive as box body*
4,1,4,$2,$3,$4,$5,$6,$7,$8,$9,$2,$3,0*
0 Add four circle primitives for the rounded corners*
1,1,$1+$1,$2,$3*
1,1,$1+$1,$4,$5*
1,1,$1+$1,$6,$7*
1,1,$1+$1,$8,$9*
0 Add four rect primitives between the rounded corners*
20,1,$1+$1,$2,$3,$4,$5,0*
20,1,$1+$1,$4,$5,$6,$7,0*
20,1,$1+$1,$6,$7,$8,$9,0*
20,1,$1+$1,$8,$9,$2,$3,0*%
%AMFreePoly0*
4,1,6,1.000000,0.000000,0.500000,-0.750000,-0.500000,-0.750000,-0.500000,0.750000,0.500000,0.750000,1.000000,0.000000,1.000000,0.000000,$1*%
%AMFreePoly1*
4,1,6,0.500000,-0.750000,-0.650000,-0.750000,-0.150000,0.000000,-0.650000,0.750000,0.500000,0.750000,0.500000,-0.750000,0.500000,-0.750000,$1*%
G04 Aperture macros list end*
%TA.AperFunction,ComponentPad*%
%ADD10C,2.000000*%
%TD*%
%TA.AperFunction,SMDPad,CuDef*%
%ADD11RoundRect,0.140000X0.140000X0.170000X-0.140000X0.170000X-0.140000X-0.170000X0.140000X-0.170000X0*%
%TD*%
%TA.AperFunction,SMDPad,CuDef*%
%ADD12RoundRect,0.135000X-0.135000X-0.185000X0.135000X-0.185000X0.135000X0.185000X-0.135000X0.185000X0*%
%TD*%
%TA.AperFunction,SMDPad,CuDef*%
%ADD13RoundRect,0.135000X0.185000X-0.135000X0.185000X0.135000X-0.185000X0.135000X-0.185000X-0.135000X0*%
%TD*%
%TA.AperFunction,SMDPad,CuDef*%
%ADD14RoundRect,0.140000X-0.170000X0.140000X-0.170000X-0.140000X0.170000X-0.140000X0.170000X0.140000X0*%
%TD*%
%TA.AperFunction,SMDPad,CuDef*%
%ADD15RoundRect,0.135000X-0.185000X0.135000X-0.185000X-0.135000X0.185000X-0.135000X0.185000X0.135000X0*%
%TD*%
%TA.AperFunction,SMDPad,CuDef*%
%ADD16RoundRect,0.140000X-0.140000X-0.170000X0.140000X-0.170000X0.140000X0.170000X-0.140000X0.170000X0*%
%TD*%
%TA.AperFunction,SMDPad,CuDef*%
%ADD17RoundRect,0.150000X-0.150000X0.512500X-0.150000X-0.512500X0.150000X-0.512500X0.150000X0.512500X0*%
%TD*%
%TA.AperFunction,SMDPad,CuDef*%
%ADD18RoundRect,0.135000X0.135000X0.185000X-0.135000X0.185000X-0.135000X-0.185000X0.135000X-0.185000X0*%
%TD*%
%TA.AperFunction,ComponentPad*%
%ADD19R,1.700000X1.700000*%
%TD*%
%TA.AperFunction,ComponentPad*%
%ADD20O,1.700000X1.700000*%
%TD*%
%TA.AperFunction,SMDPad,CuDef*%
%ADD21RoundRect,0.050000X-0.050000X0.387500X-0.050000X-0.387500X0.050000X-0.387500X0.050000X0.387500X0*%
%TD*%
%TA.AperFunction,SMDPad,CuDef*%
%ADD22RoundRect,0.050000X-0.387500X0.050000X-0.387500X-0.050000X0.387500X-0.050000X0.387500X0.050000X0*%
%TD*%
%TA.AperFunction,SMDPad,CuDef*%
%ADD23R,3.200000X3.200000*%
%TD*%
%TA.AperFunction,ComponentPad*%
%ADD24C,2.100000*%
%TD*%
%TA.AperFunction,ComponentPad*%
%ADD25C,1.300000*%
%TD*%
%TA.AperFunction,SMDPad,CuDef*%
%ADD26R,1.000000X1.150000*%
%TD*%
%TA.AperFunction,SMDPad,CuDef*%
%ADD27R,0.700000X0.250000*%
%TD*%
%TA.AperFunction,SMDPad,CuDef*%
%ADD28R,1.780000X2.350000*%
%TD*%
%TA.AperFunction,SMDPad,CuDef*%
%ADD29RoundRect,0.140000X0.170000X-0.140000X0.170000X0.140000X-0.170000X0.140000X-0.170000X-0.140000X0*%
%TD*%
%TA.AperFunction,SMDPad,CuDef*%
%ADD30FreePoly0,0.000000*%
%TD*%
%TA.AperFunction,SMDPad,CuDef*%
%ADD31FreePoly1,0.000000*%
%TD*%
%TA.AperFunction,SMDPad,CuDef*%
%ADD32RoundRect,0.250000X0.325000X0.450000X-0.325000X0.450000X-0.325000X-0.450000X0.325000X-0.450000X0*%
%TD*%
%TA.AperFunction,SMDPad,CuDef*%
%ADD33R,0.600000X0.300000*%
%TD*%
%TA.AperFunction,SMDPad,CuDef*%
%ADD34R,0.300000X1.700000*%
%TD*%
%TA.AperFunction,ComponentPad*%
%ADD35O,2.000000X1.000000*%
%TD*%
%TA.AperFunction,ComponentPad*%
%ADD36O,1.800000X1.000000*%
%TD*%
%TA.AperFunction,SMDPad,CuDef*%
%ADD37R,1.300000X0.300000*%
%TD*%
%TA.AperFunction,SMDPad,CuDef*%
%ADD38FreePoly0,180.000000*%
%TD*%
%TA.AperFunction,SMDPad,CuDef*%
%ADD39FreePoly1,180.000000*%
%TD*%
%TA.AperFunction,ComponentPad*%
%ADD40R,1.676403X1.676403*%
%TD*%
%TA.AperFunction,ComponentPad*%
%ADD41C,1.676403*%
%TD*%
%TA.AperFunction,ViaPad*%
%ADD42C,0.600000*%
%TD*%
%TA.AperFunction,Conductor*%
%ADD43C,0.150000*%
%TD*%
%TA.AperFunction,Conductor*%
%ADD44C,0.200000*%
%TD*%
%TA.AperFunction,Conductor*%
%ADD45C,0.500000*%
%TD*%
%TA.AperFunction,Conductor*%
%ADD46C,0.300000*%
%TD*%
G04 APERTURE END LIST*
D10*
%TO.P,SW1,1,1*%
%TO.N,/Mode_Switch*%
X145832000Y-57098000D03*
X145832000Y-50598000D03*
%TO.P,SW1,2,2*%
%TO.N,GND*%
X150332000Y-57098000D03*
X150332000Y-50598000D03*
%TD*%
D11*
%TO.P,C23,1*%
%TO.N,/Mode_Switch*%
X142565000Y-54610000D03*
%TO.P,C23,2*%
%TO.N,GND*%
X141605000Y-54610000D03*
%TD*%
D12*
%TO.P,R13,1*%
%TO.N,+BATT*%
X127252000Y-29845000D03*
%TO.P,R13,2*%
%TO.N,/BAT_VOL*%
X128272000Y-29845000D03*
%TD*%
%TO.P,R14,1*%
%TO.N,/BAT_VOL*%
X129284000Y-29845000D03*
%TO.P,R14,2*%
%TO.N,GND*%
X130304000Y-29845000D03*
%TD*%
D13*
%TO.P,R15,1*%
%TO.N,/Mode_Switch*%
X143637000Y-54231000D03*
%TO.P,R15,2*%
%TO.N,+3.3V*%
X143637000Y-53211000D03*
%TD*%
D14*
%TO.P,C20,1*%
%TO.N,Net-(SW2A-A)*%
X144610000Y-31262000D03*
%TO.P,C20,2*%
%TO.N,GND*%
X144610000Y-32222000D03*
%TD*%
D15*
%TO.P,R10,1*%
%TO.N,+3.3V*%
X145415000Y-36320000D03*
%TO.P,R10,2*%
%TO.N,/QSPI_SS*%
X145415000Y-37340000D03*
%TD*%
%TO.P,R9,1*%
%TO.N,Net-(JP3-B)*%
X146431000Y-36320000D03*
%TO.P,R9,2*%
%TO.N,/QSPI_SS*%
X146431000Y-37340000D03*
%TD*%
D13*
%TO.P,R3,1*%
%TO.N,/TH*%
X137414000Y-52707000D03*
%TO.P,R3,2*%
%TO.N,GND*%
X137414000Y-51687000D03*
%TD*%
D11*
%TO.P,C12,1*%
%TO.N,GND*%
X151483000Y-38481000D03*
%TO.P,C12,2*%
%TO.N,+3.3V*%
X150523000Y-38481000D03*
%TD*%
D16*
%TO.P,C7,1*%
%TO.N,GND*%
X134889400Y-45339000D03*
%TO.P,C7,2*%
%TO.N,Net-(U2-VREG_VOUT)*%
X135849400Y-45339000D03*
%TD*%
D17*
%TO.P,Q1,1,G*%
%TO.N,Net-(Q1-G)*%
X133639600Y-26782600D03*
%TO.P,Q1,2,S*%
%TO.N,+BATT*%
X131739600Y-26782600D03*
%TO.P,Q1,3,D*%
%TO.N,/Diode_power*%
X132689600Y-29057600D03*
%TD*%
D16*
%TO.P,C4,1*%
%TO.N,GND*%
X137696000Y-48514000D03*
%TO.P,C4,2*%
%TO.N,+3.3V*%
X138656000Y-48514000D03*
%TD*%
D18*
%TO.P,R11,1*%
%TO.N,/MOSFET_Controll*%
X139702000Y-30607000D03*
%TO.P,R11,2*%
%TO.N,Net-(Q1-G)*%
X138682000Y-30607000D03*
%TD*%
D13*
%TO.P,R6,1*%
%TO.N,Net-(U6-CC1)*%
X131826000Y-36324000D03*
%TO.P,R6,2*%
%TO.N,GND*%
X131826000Y-35304000D03*
%TD*%
D19*
%TO.P,J2,1,Pin_1*%
%TO.N,/Diode_power*%
X142748000Y-27490000D03*
D20*
%TO.P,J2,2,Pin_2*%
%TO.N,/Diode_Cont*%
X140208000Y-27490000D03*
%TO.P,J2,3,Pin_3*%
%TO.N,GND*%
X137668000Y-27490000D03*
%TD*%
D21*
%TO.P,U2,1,IOVDD*%
%TO.N,+3.3V*%
X143659000Y-40339500D03*
%TO.P,U2,2,GPIO0*%
%TO.N,unconnected-(U2-GPIO0-Pad2)*%
X143259000Y-40339500D03*
%TO.P,U2,3,GPIO1*%
%TO.N,unconnected-(U2-GPIO1-Pad3)*%
X142859000Y-40339500D03*
%TO.P,U2,4,GPIO2*%
%TO.N,/Diode_Cont*%
X142459000Y-40339500D03*
%TO.P,U2,5,GPIO3*%
%TO.N,/MOSFET_Controll*%
X142059000Y-40339500D03*
%TO.P,U2,6,GPIO4*%
%TO.N,unconnected-(U2-GPIO4-Pad6)*%
X141659000Y-40339500D03*
%TO.P,U2,7,GPIO5*%
%TO.N,unconnected-(U2-GPIO5-Pad7)*%
X141259000Y-40339500D03*
%TO.P,U2,8,GPIO6*%
%TO.N,unconnected-(U2-GPIO6-Pad8)*%
X140859000Y-40339500D03*
%TO.P,U2,9,GPIO7*%
%TO.N,unconnected-(U2-GPIO7-Pad9)*%
X140459000Y-40339500D03*
%TO.P,U2,10,IOVDD*%
%TO.N,+3.3V*%
X140059000Y-40339500D03*
%TO.P,U2,11,GPIO8*%
%TO.N,unconnected-(U2-GPIO8-Pad11)*%
X139659000Y-40339500D03*
%TO.P,U2,12,GPIO9*%
%TO.N,unconnected-(U2-GPIO9-Pad12)*%
X139259000Y-40339500D03*
%TO.P,U2,13,GPIO10*%
%TO.N,unconnected-(U2-GPIO10-Pad13)*%
X138859000Y-40339500D03*
%TO.P,U2,14,GPIO11*%
%TO.N,unconnected-(U2-GPIO11-Pad14)*%
X138459000Y-40339500D03*
D22*
%TO.P,U2,15,GPIO12*%
%TO.N,unconnected-(U2-GPIO12-Pad15)*%
X137621500Y-41177000D03*
%TO.P,U2,16,GPIO13*%
%TO.N,unconnected-(U2-GPIO13-Pad16)*%
X137621500Y-41577000D03*
%TO.P,U2,17,GPIO14*%
%TO.N,unconnected-(U2-GPIO14-Pad17)*%
X137621500Y-41977000D03*
%TO.P,U2,18,GPIO15*%
%TO.N,unconnected-(U2-GPIO15-Pad18)*%
X137621500Y-42377000D03*
%TO.P,U2,19,TESTEN*%
%TO.N,GND*%
X137621500Y-42777000D03*
%TO.P,U2,20,XIN*%
%TO.N,Net-(U2-XIN)*%
X137621500Y-43177000D03*
%TO.P,U2,21,XOUT*%
%TO.N,Net-(U2-XOUT)*%
X137621500Y-43577000D03*
%TO.P,U2,22,IOVDD*%
%TO.N,+3.3V*%
X137621500Y-43977000D03*
%TO.P,U2,23,DVDD*%
%TO.N,Net-(U2-VREG_VOUT)*%
X137621500Y-44377000D03*
%TO.P,U2,24,SWCLK*%
%TO.N,/SWCLK*%
X137621500Y-44777000D03*
%TO.P,U2,25,SWD*%
%TO.N,/SWDIO*%
X137621500Y-45177000D03*
%TO.P,U2,26,RUN*%
%TO.N,Net-(JP2-A)*%
X137621500Y-45577000D03*
%TO.P,U2,27,GPIO16*%
%TO.N,unconnected-(U2-GPIO16-Pad27)*%
X137621500Y-45977000D03*
%TO.P,U2,28,GPIO17*%
%TO.N,unconnected-(U2-GPIO17-Pad28)*%
X137621500Y-46377000D03*
D21*
%TO.P,U2,29,GPIO18*%
%TO.N,/Mode_Switch*%
X138459000Y-47214500D03*
%TO.P,U2,30,GPIO19*%
%TO.N,unconnected-(U2-GPIO19-Pad30)*%
X138859000Y-47214500D03*
%TO.P,U2,31,GPIO20*%
%TO.N,unconnected-(U2-GPIO20-Pad31)*%
X139259000Y-47214500D03*
%TO.P,U2,32,GPIO21*%
%TO.N,unconnected-(U2-GPIO21-Pad32)*%
X139659000Y-47214500D03*
%TO.P,U2,33,IOVDD*%
%TO.N,+3.3V*%
X140059000Y-47214500D03*
%TO.P,U2,34,GPIO22*%
%TO.N,unconnected-(U2-GPIO22-Pad34)*%
X140459000Y-47214500D03*
%TO.P,U2,35,GPIO23*%
%TO.N,unconnected-(U2-GPIO23-Pad35)*%
X140859000Y-47214500D03*
%TO.P,U2,36,GPIO24*%
%TO.N,/GAIN*%
X141259000Y-47214500D03*
%TO.P,U2,37,GPIO25*%
%TO.N,/A{slash}R*%
X141659000Y-47214500D03*
%TO.P,U2,38,GPIO26_ADC0*%
%TO.N,/MICOUT*%
X142059000Y-47214500D03*
%TO.P,U2,39,GPIO27_ADC1*%
%TO.N,unconnected-(U2-GPIO27_ADC1-Pad39)*%
X142459000Y-47214500D03*
%TO.P,U2,40,GPIO28_ADC2*%
%TO.N,unconnected-(U2-GPIO28_ADC2-Pad40)*%
X142859000Y-47214500D03*
%TO.P,U2,41,GPIO29_ADC3*%
%TO.N,/BAT_VOL*%
X143259000Y-47214500D03*
%TO.P,U2,42,IOVDD*%
%TO.N,+3.3V*%
X143659000Y-47214500D03*
D22*
%TO.P,U2,43,ADC_AVDD*%
X144496500Y-46377000D03*
%TO.P,U2,44,VREG_IN*%
X144496500Y-45977000D03*
%TO.P,U2,45,VREG_VOUT*%
%TO.N,Net-(U2-VREG_VOUT)*%
X144496500Y-45577000D03*
%TO.P,U2,46,USB_DM*%
%TO.N,/USB_DM*%
X144496500Y-45177000D03*
%TO.P,U2,47,USB_DP*%
%TO.N,/USB_DP*%
X144496500Y-44777000D03*
%TO.P,U2,48,USB_VDD*%
%TO.N,+3.3V*%
X144496500Y-44377000D03*
%TO.P,U2,49,IOVDD*%
X144496500Y-43977000D03*
%TO.P,U2,50,DVDD*%
%TO.N,Net-(U2-VREG_VOUT)*%
X144496500Y-43577000D03*
%TO.P,U2,51,QSPI_SD3*%
%TO.N,/QSPI_SD3*%
X144496500Y-43177000D03*
%TO.P,U2,52,QSPI_SCLK*%
%TO.N,/QSPI_SCLK*%
X144496500Y-42777000D03*
%TO.P,U2,53,QSPI_SD0*%
%TO.N,/QSPI_SD0*%
X144496500Y-42377000D03*
%TO.P,U2,54,QSPI_SD2*%
%TO.N,/QSPI_SD2*%
X144496500Y-41977000D03*
%TO.P,U2,55,QSPI_SD1*%
%TO.N,/QSPI_SD1*%
X144496500Y-41577000D03*
%TO.P,U2,56,QSPI_SS*%
%TO.N,/QSPI_SS*%
X144496500Y-41177000D03*
D23*
%TO.P,U2,57,GND*%
%TO.N,GND*%
X141059000Y-43777000D03*
%TD*%
D13*
%TO.P,R4,1*%
%TO.N,Net-(U5-PROG)*%
X138557000Y-34800000D03*
%TO.P,R4,2*%
%TO.N,GND*%
X138557000Y-33780000D03*
%TD*%
D24*
%TO.P,SW2,*%
%TO.N,*%
X149280000Y-35830000D03*
X149280000Y-27630000D03*
D25*
%TO.P,SW2,1,A*%
%TO.N,Net-(SW2A-A)*%
X149280000Y-33730000D03*
%TO.P,SW2,2,B*%
%TO.N,+BATT*%
X149280000Y-31730000D03*
%TO.P,SW2,3,C*%
%TO.N,unconnected-(SW2A-C-Pad3)*%
X149280000Y-29730000D03*
%TD*%
D11*
%TO.P,C6,1*%
%TO.N,GND*%
X147152400Y-44945400D03*
%TO.P,C6,2*%
%TO.N,+3.3V*%
X146192400Y-44945400D03*
%TD*%
D26*
%TO.P,Y1,1,1*%
%TO.N,Net-(U2-XOUT)*%
X135367400Y-41744400D03*
%TO.P,Y1,2,2*%
%TO.N,GND*%
X135367400Y-39994400D03*
%TO.P,Y1,3,3*%
%TO.N,Net-(U2-XIN)*%
X133967400Y-39994400D03*
%TO.P,Y1,4,4*%
%TO.N,GND*%
X133967400Y-41744400D03*
%TD*%
D17*
%TO.P,U4,1,VIN*%
%TO.N,Net-(SW2A-A)*%
X142682000Y-32517500D03*
%TO.P,U4,2,GND*%
%TO.N,GND*%
X141732000Y-32517500D03*
%TO.P,U4,3,EN*%
%TO.N,Net-(SW2A-A)*%
X140782000Y-32517500D03*
%TO.P,U4,4,NC*%
%TO.N,unconnected-(U4-NC-Pad4)*%
X140782000Y-34792500D03*
%TO.P,U4,5,VOUT*%
%TO.N,+3.3V*%
X142682000Y-34792500D03*
%TD*%
D11*
%TO.P,C8,1*%
%TO.N,GND*%
X147927000Y-42926000D03*
%TO.P,C8,2*%
%TO.N,Net-(U2-VREG_VOUT)*%
X146967000Y-42926000D03*
%TD*%
D12*
%TO.P,R8,1*%
%TO.N,+3.3V*%
X134872000Y-46355000D03*
%TO.P,R8,2*%
%TO.N,Net-(JP2-A)*%
X135892000Y-46355000D03*
%TD*%
D19*
%TO.P,BT1,1,+*%
%TO.N,+BATT*%
X128579800Y-27381200D03*
D20*
%TO.P,BT1,2,-*%
%TO.N,GND*%
X126039800Y-27381200D03*
%TD*%
D16*
%TO.P,C1,1*%
%TO.N,GND*%
X142776000Y-38608000D03*
%TO.P,C1,2*%
%TO.N,+3.3V*%
X143736000Y-38608000D03*
%TD*%
D27*
%TO.P,U1,1,CT*%
%TO.N,Net-(U1-CT)*%
X142508000Y-52333500D03*
%TO.P,U1,2,~{SHDN}*%
%TO.N,+3.3V*%
X142508000Y-51933500D03*
%TO.P,U1,3,CG*%
%TO.N,Net-(U1-CG)*%
X142508000Y-51533500D03*
%TO.P,U1,4,GND*%
%TO.N,GND*%
X142508000Y-51133500D03*
%TO.P,U1,5,VDD*%
%TO.N,+3.3V*%
X142508000Y-50733500D03*
%TO.P,U1,6,MICOUT*%
%TO.N,/MICOUT*%
X142508000Y-50333500D03*
%TO.P,U1,7,GND*%
%TO.N,GND*%
X142508000Y-49933500D03*
%TO.P,U1,8,MICIN*%
%TO.N,/MICIN*%
X139558000Y-49933500D03*
%TO.P,U1,9,A/R*%
%TO.N,/A{slash}R*%
X139558000Y-50333500D03*
%TO.P,U1,10,GAIN*%
%TO.N,/GAIN*%
X139558000Y-50733500D03*
%TO.P,U1,11,GND*%
%TO.N,GND*%
X139558000Y-51133500D03*
%TO.P,U1,12,BIAS*%
%TO.N,Net-(U1-BIAS)*%
X139558000Y-51533500D03*
%TO.P,U1,13,MICBIAS*%
%TO.N,/MICBIAS*%
X139558000Y-51933500D03*
%TO.P,U1,14,TH*%
%TO.N,/TH*%
X139558000Y-52333500D03*
D28*
%TO.P,U1,15,GND*%
%TO.N,GND*%
X141033000Y-51133500D03*
%TD*%
D29*
%TO.P,C22,1*%
%TO.N,+5V*%
X133477000Y-34770000D03*
%TO.P,C22,2*%
%TO.N,GND*%
X133477000Y-33810000D03*
%TD*%
D30*
%TO.P,JP1,1,A*%
%TO.N,/MICBIAS*%
X134276000Y-52451000D03*
D31*
%TO.P,JP1,2,B*%
%TO.N,/TH*%
X135726000Y-52451000D03*
%TD*%
D32*
%TO.P,D1,1,K*%
%TO.N,Net-(D1-K)*%
X126873000Y-31369000D03*
%TO.P,D1,2,A*%
%TO.N,+5V*%
X124823000Y-31369000D03*
%TD*%
D16*
%TO.P,C14,1*%
%TO.N,GND*%
X134889400Y-43167400D03*
%TO.P,C14,2*%
%TO.N,Net-(U2-XOUT)*%
X135849400Y-43167400D03*
%TD*%
D18*
%TO.P,R12,1*%
%TO.N,Net-(Q1-G)*%
X137690000Y-30607000D03*
%TO.P,R12,2*%
%TO.N,+BATT*%
X136670000Y-30607000D03*
%TD*%
D33*
%TO.P,U3,1,~{CS}*%
%TO.N,/QSPI_SS*%
X146668500Y-38497000D03*
%TO.P,U3,2,DO/IO1*%
%TO.N,/QSPI_SD1*%
X146668500Y-38997000D03*
%TO.P,U3,3,~{WP}/IO2*%
%TO.N,/QSPI_SD2*%
X146668500Y-39497000D03*
%TO.P,U3,4,GND*%
%TO.N,GND*%
X146668500Y-39997000D03*
%TO.P,U3,5,DI/IO0*%
%TO.N,/QSPI_SD0*%
X149168500Y-39997000D03*
%TO.P,U3,6,CLK*%
%TO.N,/QSPI_SCLK*%
X149168500Y-39497000D03*
%TO.P,U3,7,~{HOLD}/~{RESET}/IO3*%
%TO.N,/QSPI_SD3*%
X149168500Y-38997000D03*
%TO.P,U3,8,VCC*%
%TO.N,+3.3V*%
X149168500Y-38497000D03*
D34*
%TO.P,U3,9,EXP*%
%TO.N,GND*%
X147918500Y-39247000D03*
%TD*%
D11*
%TO.P,C11,1*%
%TO.N,GND*%
X151483000Y-39624000D03*
%TO.P,C11,2*%
%TO.N,+3.3V*%
X150523000Y-39624000D03*
%TD*%
D16*
%TO.P,C17,1*%
%TO.N,GND*%
X136807000Y-50641000D03*
%TO.P,C17,2*%
%TO.N,Net-(U1-BIAS)*%
X137767000Y-50641000D03*
%TD*%
D12*
%TO.P,R2,1*%
%TO.N,/MICBIAS*%
X134491000Y-50673000D03*
%TO.P,R2,2*%
%TO.N,/TH*%
X135511000Y-50673000D03*
%TD*%
D16*
%TO.P,C19,1*%
%TO.N,Net-(C19-Pad1)*%
X136807000Y-49657000D03*
%TO.P,C19,2*%
%TO.N,/MICIN*%
X137767000Y-49657000D03*
%TD*%
D14*
%TO.P,C16,1*%
%TO.N,GND*%
X143764000Y-51082000D03*
%TO.P,C16,2*%
%TO.N,Net-(U1-CG)*%
X143764000Y-52042000D03*
%TD*%
D29*
%TO.P,C18,1*%
%TO.N,+3.3V*%
X144582000Y-34215000D03*
%TO.P,C18,2*%
%TO.N,GND*%
X144582000Y-33255000D03*
%TD*%
D11*
%TO.P,C10,1*%
%TO.N,GND*%
X147152400Y-45961400D03*
%TO.P,C10,2*%
%TO.N,+3.3V*%
X146192400Y-45961400D03*
%TD*%
D18*
%TO.P,R5,1*%
%TO.N,Net-(U5-STAT)*%
X130354800Y-31496000D03*
%TO.P,R5,2*%
%TO.N,Net-(D1-K)*%
X129334800Y-31496000D03*
%TD*%
D30*
%TO.P,JP2,1,A*%
%TO.N,Net-(JP2-A)*%
X149376400Y-43802400D03*
D31*
%TO.P,JP2,2,B*%
%TO.N,GND*%
X150826400Y-43802400D03*
%TD*%
D18*
%TO.P,R1,1*%
%TO.N,Net-(C19-Pad1)*%
X135511000Y-49530000D03*
%TO.P,R1,2*%
%TO.N,/MICBIAS*%
X134491000Y-49530000D03*
%TD*%
D11*
%TO.P,C24,1*%
%TO.N,GND*%
X147152400Y-46977400D03*
%TO.P,C24,2*%
%TO.N,+3.3V*%
X146192400Y-46977400D03*
%TD*%
D35*
%TO.P,U6,1,EP*%
%TO.N,GND*%
X129506075Y-33309959D03*
%TO.P,U6,2,EP*%
X129506075Y-41950041D03*
D36*
%TO.P,U6,3,EP*%
X125325988Y-33309959D03*
%TO.P,U6,4,EP*%
X125325988Y-41950041D03*
D37*
%TO.P,U6,A1,GND*%
X130156062Y-34279987D03*
%TO.P,U6,A4,VBUS*%
%TO.N,+5V*%
X130156062Y-35080089D03*
%TO.P,U6,A5,CC1*%
%TO.N,Net-(U6-CC1)*%
X130156062Y-36380064D03*
%TO.P,U6,A6,DP1*%
%TO.N,/USB_DP*%
X130156062Y-37380064D03*
%TO.P,U6,A7,DN1*%
%TO.N,/USB_DM*%
X130156062Y-37879936D03*
%TO.P,U6,A8,SUB1*%
%TO.N,unconnected-(U6-SUB1-PadA8)*%
X130156062Y-38879682D03*
%TO.P,U6,A9,VBUS*%
%TO.N,+5V*%
X130155808Y-40180165D03*
%TO.P,U6,A12,GND*%
%TO.N,GND*%
X130156062Y-40980013D03*
%TO.P,U6,B1,GND*%
X130156062Y-40680038D03*
%TO.P,U6,B4,VBUS*%
%TO.N,+5V*%
X130155808Y-39879936D03*
%TO.P,U6,B5,CC2*%
%TO.N,Net-(U6-CC2)*%
X130156062Y-39380064D03*
%TO.P,U6,B6,DP2*%
%TO.N,/USB_DP*%
X130156062Y-38380064D03*
%TO.P,U6,B7,DN2*%
%TO.N,/USB_DM*%
X130156062Y-36879936D03*
%TO.P,U6,B8,SUB2*%
%TO.N,unconnected-(U6-SUB2-PadB8)*%
X130156062Y-35879936D03*
%TO.P,U6,B9,VBUS*%
%TO.N,+5V*%
X130156062Y-35380064D03*
%TO.P,U6,B12,GND*%
%TO.N,GND*%
X130156062Y-34579962D03*
%TD*%
D16*
%TO.P,C15,1*%
%TO.N,GND*%
X141633000Y-53594000D03*
%TO.P,C15,2*%
%TO.N,Net-(U1-CT)*%
X142593000Y-53594000D03*
%TD*%
D38*
%TO.P,JP3,1,A*%
%TO.N,GND*%
X150802000Y-46736000D03*
D39*
%TO.P,JP3,2,B*%
%TO.N,Net-(JP3-B)*%
X149352000Y-46736000D03*
%TD*%
D40*
%TO.P,U7,1,1*%
%TO.N,Net-(C19-Pad1)*%
X130429003Y-45618396D03*
D41*
%TO.P,U7,2,2*%
%TO.N,GND*%
X127888997Y-45618396D03*
%TD*%
D13*
%TO.P,R7,1*%
%TO.N,Net-(U6-CC2)*%
X131826000Y-39118000D03*
%TO.P,R7,2*%
%TO.N,GND*%
X131826000Y-38098000D03*
%TD*%
D11*
%TO.P,C13,1*%
%TO.N,GND*%
X135187400Y-38468400D03*
%TO.P,C13,2*%
%TO.N,Net-(U2-XIN)*%
X134227400Y-38468400D03*
%TD*%
%TO.P,C9,1*%
%TO.N,GND*%
X147927000Y-43929400D03*
%TO.P,C9,2*%
%TO.N,Net-(U2-VREG_VOUT)*%
X146967000Y-43929400D03*
%TD*%
D16*
%TO.P,C2,1*%
%TO.N,GND*%
X138712000Y-38481000D03*
%TO.P,C2,2*%
%TO.N,+3.3V*%
X139672000Y-38481000D03*
%TD*%
D17*
%TO.P,U5,1,STAT*%
%TO.N,Net-(U5-STAT)*%
X136967000Y-32517500D03*
%TO.P,U5,2,V_{SS}*%
%TO.N,GND*%
X136017000Y-32517500D03*
%TO.P,U5,3,V_{BAT}*%
%TO.N,+BATT*%
X135067000Y-32517500D03*
%TO.P,U5,4,V_{DD}*%
%TO.N,+5V*%
X135067000Y-34792500D03*
%TO.P,U5,5,PROG*%
%TO.N,Net-(U5-PROG)*%
X136967000Y-34792500D03*
%TD*%
D11*
%TO.P,C21,1*%
%TO.N,+BATT*%
X135608000Y-30607000D03*
%TO.P,C21,2*%
%TO.N,GND*%
X134648000Y-30607000D03*
%TD*%
%TO.P,C5,1*%
%TO.N,GND*%
X145006000Y-48514000D03*
%TO.P,C5,2*%
%TO.N,+3.3V*%
X144046000Y-48514000D03*
%TD*%
D16*
%TO.P,C3,1*%
%TO.N,GND*%
X134889400Y-44183400D03*
%TO.P,C3,2*%
%TO.N,+3.3V*%
X135849400Y-44183400D03*
%TD*%
D42*
%TO.N,GND*%
X131191000Y-30607000D03*
%TO.N,/Mode_Switch*%
X137668000Y-47117000D03*
%TO.N,GND*%
X144018000Y-50292000D03*
%TO.N,/BAT_VOL*%
X143127238Y-48236702D03*
X129286000Y-30607000D03*
%TO.N,GND*%
X138430000Y-32512000D03*
X138557000Y-42799000D03*
X132461000Y-32893000D03*
X142113000Y-44577000D03*
X145415000Y-32766000D03*
X133731000Y-30353000D03*
X136144000Y-48514000D03*
X137414000Y-51689000D03*
X133985000Y-45339000D03*
X140081000Y-44577000D03*
X142113000Y-42799000D03*
X140081000Y-42799000D03*
X145542000Y-48260000D03*
X146812000Y-40640000D03*
X136525000Y-31369000D03*
X142367000Y-49022000D03*
X141732000Y-33782000D03*
X136807000Y-50641000D03*
%TO.N,Net-(JP3-B)*%
X149225000Y-46482000D03*
X146431000Y-36320000D03*
%TO.N,Net-(JP2-A)*%
X149479000Y-43815000D03*
X135892000Y-46355000D03*
%TO.N,/GAIN*%
X138721115Y-51016885D03*
X141023798Y-48266500D03*
%TO.N,/A{slash}R*%
X138686897Y-50161397D03*
X141605000Y-48768000D03*
%TO.N,/Diode_Cont*%
X140228500Y-36068000D03*
%TO.N,Net-(Q1-G)*%
X135255000Y-26289000D03*
X138176000Y-31750000D03*
%TO.N,Net-(U2-VREG_VOUT)*%
X145415000Y-45339000D03*
X143510000Y-43561000D03*
X138684000Y-44323000D03*
%TO.N,/USB_DM*%
X131826000Y-37211000D03*
X143510000Y-45212000D03*
%TO.N,/USB_DP*%
X143510000Y-45938503D03*
X128778000Y-38227000D03*
%TD*%
D43*
%TO.N,/MICOUT*%
X142059000Y-47952000D02*
X142059000Y-47214500D01*
X143060000Y-48953000D02*
X142059000Y-47952000D01*
X143060000Y-50260500D02*
X143060000Y-48953000D01*
X142508000Y-50333500D02*
X142987000Y-50333500D01*
X142987000Y-50333500D02*
X143060000Y-50260500D01*
D44*
%TO.N,+3.3V*%
X144046000Y-49375000D02*
X144046000Y-48514000D01*
X144018000Y-49403000D02*
X144046000Y-49375000D01*
X143014092Y-50733500D02*
X142508000Y-50733500D01*
X143430999Y-50316593D02*
X143014092Y-50733500D01*
X143431000Y-49863000D02*
X143430999Y-50316593D01*
X144462500Y-49403000D02*
X143891000Y-49403000D01*
X144605000Y-49545500D02*
X144462500Y-49403000D01*
X144605000Y-52118000D02*
X144605000Y-49545500D01*
X144174000Y-52549000D02*
X144605000Y-52118000D01*
X143891000Y-49403000D02*
X143431000Y-49863000D01*
X143438102Y-52549000D02*
X144174000Y-52549000D01*
X145415000Y-49403000D02*
X144018000Y-49403000D01*
X146192400Y-48625600D02*
X145415000Y-49403000D01*
X146192400Y-46977400D02*
X146192400Y-48625600D01*
%TO.N,/Mode_Switch*%
X145832000Y-57098000D02*
X145832000Y-50598000D01*
X142565000Y-54610000D02*
X143258000Y-54610000D01*
X143258000Y-54610000D02*
X143637000Y-54231000D01*
X145832000Y-52036000D02*
X145832000Y-50598000D01*
X143637000Y-54231000D02*
X145832000Y-52036000D01*
%TO.N,+3.3V*%
X143637000Y-52747898D02*
X143438102Y-52549000D01*
X143637000Y-53211000D02*
X143637000Y-52747898D01*
%TO.N,/Mode_Switch*%
X137668000Y-47117000D02*
X138361500Y-47117000D01*
X138361500Y-47117000D02*
X138459000Y-47214500D01*
%TO.N,GND*%
X143764000Y-50546000D02*
X144018000Y-50292000D01*
X143764000Y-51082000D02*
X143764000Y-50546000D01*
%TO.N,+3.3V*%
X143227000Y-52337898D02*
X143438102Y-52549000D01*
X143058000Y-51933500D02*
X143227000Y-52102500D01*
X142508000Y-51933500D02*
X143058000Y-51933500D01*
X143227000Y-52102500D02*
X143227000Y-52337898D01*
%TO.N,Net-(U1-CG)*%
X143375040Y-51581500D02*
X143764000Y-51970460D01*
X142508000Y-51576000D02*
X142513500Y-51581500D01*
X142508000Y-51533500D02*
X142508000Y-51576000D01*
X142513500Y-51581500D02*
X143375040Y-51581500D01*
X143764000Y-51970460D02*
X143764000Y-52042000D01*
D43*
%TO.N,Net-(U1-CT)*%
X142494000Y-52347500D02*
X142494000Y-53495000D01*
X142508000Y-52333500D02*
X142494000Y-52347500D01*
D44*
%TO.N,/BAT_VOL*%
X143127238Y-48236702D02*
X143259000Y-48104940D01*
X143259000Y-48104940D02*
X143259000Y-47214500D01*
%TO.N,+3.3V*%
X144046000Y-48514000D02*
X144018000Y-48542000D01*
X143637000Y-47236500D02*
X143659000Y-47214500D01*
X143637000Y-48105000D02*
X143637000Y-47236500D01*
X144046000Y-48514000D02*
X143637000Y-48105000D01*
%TO.N,/BAT_VOL*%
X129284000Y-30605000D02*
X129286000Y-30607000D01*
X129284000Y-29845000D02*
X129284000Y-30605000D01*
X128272000Y-29845000D02*
X129284000Y-29845000D01*
%TO.N,+BATT*%
X127252000Y-28709000D02*
X128579800Y-27381200D01*
X127252000Y-29845000D02*
X127252000Y-28709000D01*
D45*
%TO.N,+5V*%
X127381000Y-38159002D02*
X127381000Y-33993554D01*
X130829960Y-32432959D02*
X133167001Y-34770000D01*
X128642810Y-32432959D02*
X130829960Y-32432959D01*
X128563769Y-32512000D02*
X128642810Y-32432959D01*
X133167001Y-34770000D02*
X133477000Y-34770000D01*
X127301959Y-32512000D02*
X128563769Y-32512000D01*
X127381000Y-32591041D02*
X127301959Y-32512000D01*
X127381000Y-33993554D02*
X127381000Y-32591041D01*
X126168294Y-32512000D02*
X127301959Y-32512000D01*
X124908200Y-31251906D02*
X126168294Y-32512000D01*
X124908200Y-31140400D02*
X124908200Y-31251906D01*
D44*
%TO.N,Net-(D1-K)*%
X128979200Y-31140400D02*
X126958200Y-31140400D01*
%TO.N,Net-(U5-STAT)*%
X132080000Y-31496000D02*
X130354800Y-31496000D01*
%TO.N,Net-(D1-K)*%
X129334800Y-31496000D02*
X128979200Y-31140400D01*
%TO.N,Net-(U5-STAT)*%
X133991000Y-33407000D02*
X132080000Y-31496000D01*
X136967000Y-33179999D02*
X136739999Y-33407000D01*
X136967000Y-32517500D02*
X136967000Y-33179999D01*
X136739999Y-33407000D02*
X133991000Y-33407000D01*
D43*
%TO.N,GND*%
X139558000Y-51133500D02*
X141033000Y-51133500D01*
D44*
X137621500Y-42777000D02*
X138535000Y-42777000D01*
D43*
X134889400Y-45339000D02*
X133985000Y-45339000D01*
D44*
X136017000Y-31877000D02*
X136017000Y-32517500D01*
X138535000Y-42777000D02*
X138557000Y-42799000D01*
D43*
X141033000Y-50908500D02*
X141033000Y-51133500D01*
X142508000Y-51133500D02*
X141033000Y-51133500D01*
X142008000Y-49933500D02*
X141033000Y-50908500D01*
D44*
X133477000Y-33810000D02*
X133378000Y-33810000D01*
D43*
X142508000Y-49933500D02*
X142008000Y-49933500D01*
D44*
X146668500Y-39997000D02*
X146668500Y-40496500D01*
X133378000Y-33810000D02*
X132461000Y-32893000D01*
X146668500Y-40496500D02*
X146812000Y-40640000D01*
D43*
X142367000Y-48895000D02*
X141033000Y-50229000D01*
D44*
X136525000Y-31369000D02*
X136017000Y-31877000D01*
D43*
X141033000Y-50229000D02*
X141033000Y-51133500D01*
D44*
%TO.N,/QSPI_SD2*%
X145923000Y-39838500D02*
X145923000Y-41402000D01*
X145923000Y-41402000D02*
X145348000Y-41977000D01*
X146264500Y-39497000D02*
X145923000Y-39838500D01*
X145348000Y-41977000D02*
X144496500Y-41977000D01*
X146668500Y-39497000D02*
X146264500Y-39497000D01*
D43*
%TO.N,/QSPI_SD1*%
X146668500Y-39132500D02*
X146179000Y-39132500D01*
X145136000Y-41375000D02*
X144934000Y-41577000D01*
X146668500Y-38997000D02*
X146668500Y-39132500D01*
X145136000Y-40175500D02*
X145136000Y-41375000D01*
X144934000Y-41577000D02*
X144496500Y-41577000D01*
X146179000Y-39132500D02*
X145136000Y-40175500D01*
%TO.N,/QSPI_SS*%
X145415000Y-37340000D02*
X146431000Y-37340000D01*
X146668500Y-38497000D02*
X146668500Y-37577500D01*
X144496500Y-40219000D02*
X146218500Y-38497000D01*
X144496500Y-41177000D02*
X144496500Y-40219000D01*
X146218500Y-38497000D02*
X146668500Y-38497000D01*
X146668500Y-37577500D02*
X146431000Y-37340000D01*
D44*
%TO.N,+3.3V*%
X143291709Y-44088000D02*
X142886000Y-43682291D01*
X135312400Y-44720400D02*
X135849400Y-44183400D01*
D46*
X140272166Y-41054000D02*
X140059000Y-40840834D01*
D44*
X146192400Y-44945400D02*
X146192400Y-45961400D01*
X136824552Y-44196000D02*
X135862000Y-44196000D01*
D46*
X142682000Y-34792500D02*
X144004500Y-34792500D01*
D44*
X140059000Y-40770124D02*
X140059000Y-40339500D01*
D46*
X140059000Y-40840834D02*
X140059000Y-40339500D01*
D44*
X133604000Y-46355000D02*
X132969000Y-45720000D01*
D43*
X145415000Y-36320000D02*
X145415000Y-34443500D01*
D44*
X139197000Y-48514000D02*
X138656000Y-48514000D01*
X145224000Y-43977000D02*
X144496500Y-43977000D01*
D43*
X145186500Y-34215000D02*
X144582000Y-34215000D01*
D44*
X144385500Y-44088000D02*
X143291709Y-44088000D01*
D46*
X143659000Y-38685000D02*
X143736000Y-38608000D01*
X140059000Y-40339500D02*
X140059000Y-38868000D01*
D44*
X136494000Y-47977000D02*
X138119000Y-47977000D01*
X135862000Y-44196000D02*
X135849400Y-44183400D01*
X146192400Y-45961400D02*
X144512100Y-45961400D01*
D43*
X149168500Y-38497000D02*
X149168500Y-38197000D01*
D46*
X142682000Y-34792500D02*
X142682000Y-37554000D01*
D44*
X146192400Y-46977400D02*
X145096900Y-46977400D01*
D43*
X150523000Y-39624000D02*
X150523000Y-38481000D01*
D44*
X140059000Y-47214500D02*
X140059000Y-47652000D01*
X143659000Y-40777000D02*
X143659000Y-40339500D01*
D46*
X143445834Y-41054000D02*
X140272166Y-41054000D01*
D44*
X146192400Y-44945400D02*
X145224000Y-43977000D01*
X144512100Y-45961400D02*
X144496500Y-45977000D01*
X132969000Y-45212000D02*
X133460600Y-44720400D01*
X142886000Y-43682291D02*
X142886000Y-41550000D01*
X139192000Y-43053000D02*
X139192000Y-41637124D01*
D43*
X145415000Y-34443500D02*
X145186500Y-34215000D01*
D44*
X138119000Y-47977000D02*
X138656000Y-48514000D01*
X144496500Y-43977000D02*
X144385500Y-44088000D01*
X137621500Y-43977000D02*
X137043552Y-43977000D01*
X146192400Y-45961400D02*
X146192400Y-46977400D01*
D46*
X143659000Y-40339500D02*
X143659000Y-40840834D01*
D44*
X132969000Y-45720000D02*
X132969000Y-45212000D01*
D43*
X145624000Y-44377000D02*
X146192400Y-44945400D01*
D46*
X143659000Y-40339500D02*
X143659000Y-38685000D01*
D43*
X150507000Y-38497000D02*
X150523000Y-38481000D01*
D44*
X134872000Y-46355000D02*
X136494000Y-47977000D01*
D43*
X144496500Y-44377000D02*
X145624000Y-44377000D01*
D46*
X140059000Y-38868000D02*
X139672000Y-38481000D01*
D43*
X149168500Y-38497000D02*
X150507000Y-38497000D01*
D44*
X140059000Y-47652000D02*
X139197000Y-48514000D01*
X133460600Y-44720400D02*
X135312400Y-44720400D01*
X134872000Y-46355000D02*
X133604000Y-46355000D01*
X137043552Y-43977000D02*
X136824552Y-44196000D01*
D46*
X144004500Y-34792500D02*
X144582000Y-34215000D01*
D44*
X139192000Y-41637124D02*
X140059000Y-40770124D01*
D46*
X142682000Y-37554000D02*
X143736000Y-38608000D01*
D44*
X137621500Y-43977000D02*
X138268000Y-43977000D01*
X138268000Y-43977000D02*
X139192000Y-43053000D01*
X145096900Y-46977400D02*
X144496500Y-46377000D01*
D43*
X149168500Y-38197000D02*
X145186500Y-34215000D01*
D46*
X143659000Y-40840834D02*
X143445834Y-41054000D01*
D44*
X142886000Y-41550000D02*
X143659000Y-40777000D01*
D43*
%TO.N,/QSPI_SD3*%
X149168500Y-38997000D02*
X149618500Y-38997000D01*
X149947500Y-40463738D02*
X148709237Y-41702000D01*
X149947500Y-39326000D02*
X149947500Y-40463738D01*
X145358568Y-43177000D02*
X144496500Y-43177000D01*
X148709237Y-41702000D02*
X146833568Y-41702000D01*
X149618500Y-38997000D02*
X149947500Y-39326000D01*
X146833568Y-41702000D02*
X145358568Y-43177000D01*
%TO.N,/QSPI_SCLK*%
X146718830Y-41425000D02*
X145366830Y-42777000D01*
X145366830Y-42777000D02*
X144496500Y-42777000D01*
X149618500Y-39497000D02*
X149670500Y-39549000D01*
X149670500Y-40349000D02*
X148594500Y-41425000D01*
X149670500Y-39549000D02*
X149670500Y-40349000D01*
X149168500Y-39497000D02*
X149618500Y-39497000D01*
X148594500Y-41425000D02*
X146718830Y-41425000D01*
%TO.N,/QSPI_SD0*%
X149168500Y-39997000D02*
X148017500Y-41148000D01*
X145375092Y-42377000D02*
X144496500Y-42377000D01*
X146604092Y-41148000D02*
X145375092Y-42377000D01*
X148017500Y-41148000D02*
X146604092Y-41148000D01*
%TO.N,Net-(JP3-B)*%
X149376400Y-46469400D02*
X149237600Y-46469400D01*
X149237600Y-46469400D02*
X149225000Y-46482000D01*
D44*
%TO.N,Net-(JP2-A)*%
X136271000Y-46355000D02*
X135892000Y-46355000D01*
X137049000Y-45577000D02*
X136271000Y-46355000D01*
D43*
X149376400Y-43802400D02*
X149466400Y-43802400D01*
X149466400Y-43802400D02*
X149479000Y-43815000D01*
D44*
X137621500Y-45577000D02*
X137049000Y-45577000D01*
%TO.N,Net-(U5-PROG)*%
X136974500Y-34800000D02*
X136967000Y-34792500D01*
X138557000Y-34800000D02*
X136974500Y-34800000D01*
D43*
%TO.N,/TH*%
X135726000Y-52451000D02*
X137158000Y-52451000D01*
X137158000Y-52451000D02*
X137414000Y-52707000D01*
X139558000Y-52333500D02*
X137787500Y-52333500D01*
X135726000Y-52451000D02*
X135636000Y-52361000D01*
X135636000Y-52361000D02*
X135636000Y-50798000D01*
X137787500Y-52333500D02*
X137414000Y-52707000D01*
X135636000Y-50798000D02*
X135511000Y-50673000D01*
%TO.N,/MICBIAS*%
X136382738Y-51153000D02*
X136003000Y-50773262D01*
X136003000Y-50773262D02*
X136003000Y-50364668D01*
X137680332Y-51153000D02*
X136382738Y-51153000D01*
X134491000Y-50673000D02*
X134491000Y-52236000D01*
X134491000Y-52236000D02*
X134276000Y-52451000D01*
X138460832Y-51933500D02*
X137680332Y-51153000D01*
X135690332Y-50052000D02*
X135013000Y-50052000D01*
X136003000Y-50364668D02*
X135690332Y-50052000D01*
X134491000Y-50673000D02*
X134491000Y-50574000D01*
X139558000Y-51933500D02*
X138460832Y-51933500D01*
X135013000Y-50052000D02*
X134491000Y-49530000D01*
X134491000Y-50574000D02*
X135013000Y-50052000D01*
D45*
%TO.N,+BATT*%
X135608000Y-30916999D02*
X135067000Y-31457999D01*
X131739600Y-26782600D02*
X131739600Y-29519548D01*
X135608000Y-30607000D02*
X135608000Y-30916999D01*
X136670000Y-30607000D02*
X135608000Y-30607000D01*
X134737552Y-32517500D02*
X135067000Y-32517500D01*
X131141000Y-27381200D02*
X131739600Y-26782600D01*
X136670000Y-30287001D02*
X137047001Y-29910000D01*
X147460000Y-29910000D02*
X149280000Y-31730000D01*
X131739600Y-29519548D02*
X134737552Y-32517500D01*
X136670000Y-30607000D02*
X136670000Y-30287001D01*
X135067000Y-31457999D02*
X135067000Y-32517500D01*
X137047001Y-29910000D02*
X147460000Y-29910000D01*
X128579800Y-27381200D02*
X131141000Y-27381200D01*
%TO.N,+5V*%
X133499500Y-34792500D02*
X133477000Y-34770000D01*
X129129062Y-39907064D02*
X130155808Y-39907064D01*
X127381000Y-38159002D02*
X129129062Y-39907064D01*
X127381000Y-33993554D02*
X128740382Y-35352936D01*
X128740382Y-35352936D02*
X130156062Y-35352936D01*
X135067000Y-34792500D02*
X133499500Y-34792500D01*
%TO.N,Net-(SW2A-A)*%
X142195999Y-31369000D02*
X141268001Y-31369000D01*
X140782000Y-31855001D02*
X140782000Y-32517500D01*
X142682000Y-31855001D02*
X142195999Y-31369000D01*
X141268001Y-31369000D02*
X140782000Y-31855001D01*
X149280000Y-33730000D02*
X146812000Y-31262000D01*
X144610000Y-31262000D02*
X143937500Y-31262000D01*
X146812000Y-31262000D02*
X144610000Y-31262000D01*
X142682000Y-32517500D02*
X142682000Y-31855001D01*
X143937500Y-31262000D02*
X142682000Y-32517500D01*
D43*
%TO.N,/GAIN*%
X141023798Y-48266500D02*
X141259000Y-48031298D01*
X139004500Y-50733500D02*
X139558000Y-50733500D01*
X138721115Y-51016885D02*
X139004500Y-50733500D01*
X141259000Y-48031298D02*
X141259000Y-47214500D01*
%TO.N,/A{slash}R*%
X138686897Y-50161397D02*
X138859000Y-50333500D01*
X138859000Y-50333500D02*
X139558000Y-50333500D01*
X141659000Y-48714000D02*
X141659000Y-47214500D01*
X141605000Y-48768000D02*
X141659000Y-48714000D01*
D44*
%TO.N,/Diode_Cont*%
X142459000Y-39589000D02*
X142459000Y-40339500D01*
X140228500Y-36068000D02*
X140228500Y-37358500D01*
X140228500Y-37358500D02*
X142459000Y-39589000D01*
%TO.N,Net-(Q1-G)*%
X133639600Y-26782600D02*
X134761400Y-26782600D01*
X134761400Y-26782600D02*
X135255000Y-26289000D01*
X138176000Y-31093000D02*
X137690000Y-30607000D01*
X138176000Y-31750000D02*
X138176000Y-31093000D01*
X137690000Y-30607000D02*
X138682000Y-30607000D01*
%TO.N,Net-(U2-XIN)*%
X137030000Y-43177000D02*
X137621500Y-43177000D01*
X136906000Y-41754000D02*
X136906000Y-43053000D01*
X133967400Y-39994400D02*
X134915400Y-40942400D01*
X134915400Y-40942400D02*
X136094400Y-40942400D01*
X133967400Y-39994400D02*
X133967400Y-38728400D01*
X133967400Y-38728400D02*
X134227400Y-38468400D01*
X136906000Y-43053000D02*
X137030000Y-43177000D01*
X136094400Y-40942400D02*
X136906000Y-41754000D01*
%TO.N,Net-(U2-XOUT)*%
X136259000Y-43577000D02*
X137621500Y-43577000D01*
X135367400Y-41744400D02*
X135367400Y-42685400D01*
X135367400Y-42685400D02*
X135849400Y-43167400D01*
X135849400Y-43167400D02*
X136259000Y-43577000D01*
D43*
%TO.N,Net-(U2-VREG_VOUT)*%
X144496500Y-45577000D02*
X145177000Y-45577000D01*
D44*
X138684000Y-44323000D02*
X138630000Y-44377000D01*
X144480500Y-43561000D02*
X144496500Y-43577000D01*
X138630000Y-44377000D02*
X137621500Y-44377000D01*
D43*
X145177000Y-45577000D02*
X145415000Y-45339000D01*
D44*
X146316000Y-43577000D02*
X144496500Y-43577000D01*
X137106000Y-44377000D02*
X136144000Y-45339000D01*
X146614600Y-43577000D02*
X146967000Y-43929400D01*
X146967000Y-42926000D02*
X146316000Y-43577000D01*
X137621500Y-44377000D02*
X137106000Y-44377000D01*
X144496500Y-43577000D02*
X146614600Y-43577000D01*
X143510000Y-43561000D02*
X144480500Y-43561000D01*
X136144000Y-45339000D02*
X135849400Y-45339000D01*
%TO.N,/USB_DM*%
X143510000Y-45212000D02*
X144461500Y-45212000D01*
X131006062Y-37879936D02*
X131033062Y-37852936D01*
X131033062Y-37084000D02*
X131699000Y-37084000D01*
X130156062Y-37879936D02*
X131006062Y-37879936D01*
X131033062Y-36906936D02*
X131006062Y-36879936D01*
X131006062Y-36879936D02*
X130156062Y-36879936D01*
X131033062Y-37084000D02*
X131033062Y-36906936D01*
X131699000Y-37084000D02*
X131826000Y-37211000D01*
X144461500Y-45212000D02*
X144496500Y-45177000D01*
X131033062Y-37852936D02*
X131033062Y-37084000D01*
%TO.N,/USB_DP*%
X130156062Y-37380064D02*
X129306062Y-37380064D01*
X129306062Y-37380064D02*
X128778000Y-37908126D01*
X143728291Y-44685000D02*
X143291709Y-44685000D01*
X128778000Y-38227000D02*
X128931064Y-38380064D01*
X128931064Y-38380064D02*
X130156062Y-38380064D01*
X142983000Y-44993709D02*
X142983000Y-45430291D01*
X143820291Y-44777000D02*
X143728291Y-44685000D01*
X144496500Y-44777000D02*
X143820291Y-44777000D01*
X143491212Y-45938503D02*
X143510000Y-45938503D01*
X128778000Y-37908126D02*
X128778000Y-38227000D01*
X142983000Y-45430291D02*
X143491212Y-45938503D01*
X143291709Y-44685000D02*
X142983000Y-44993709D01*
D43*
%TO.N,/MICIN*%
X139281500Y-49657000D02*
X137767000Y-49657000D01*
X139558000Y-49933500D02*
X139281500Y-49657000D01*
%TO.N,Net-(U1-BIAS)*%
X137767000Y-50772000D02*
X137767000Y-50641000D01*
X139558000Y-51533500D02*
X138528500Y-51533500D01*
X138528500Y-51533500D02*
X137767000Y-50772000D01*
D44*
%TO.N,/MOSFET_Controll*%
X142059000Y-39697000D02*
X142059000Y-40339500D01*
X139702000Y-37340000D02*
X142059000Y-39697000D01*
X139702000Y-30607000D02*
X139702000Y-37340000D01*
D45*
%TO.N,/Diode_power*%
X132689600Y-29057600D02*
X141180400Y-29057600D01*
X141180400Y-29057600D02*
X142748000Y-27490000D01*
D43*
%TO.N,Net-(C19-Pad1)*%
X135511000Y-49530000D02*
X135511000Y-49210001D01*
X131919395Y-45618396D02*
X130429003Y-45618396D01*
X135511000Y-49210001D02*
X131919395Y-45618396D01*
X136807000Y-49657000D02*
X135638000Y-49657000D01*
X135638000Y-49657000D02*
X135511000Y-49530000D01*
D44*
%TO.N,Net-(U6-CC1)*%
X131826000Y-36324000D02*
X130212126Y-36324000D01*
X130212126Y-36324000D02*
X130156062Y-36380064D01*
%TO.N,Net-(U6-CC2)*%
X131826000Y-39118000D02*
X131563936Y-39380064D01*
X131563936Y-39380064D02*
X130156062Y-39380064D01*
%TD*%
%TA.AperFunction,Conductor*%
%TO.N,GND*%
G36*
X124176909Y-32502994D02*
G01*
X124178656Y-32503808D01*
X124178666Y-32503814D01*
X124345203Y-32558999D01*
X124447991Y-32569500D01*
X125113063Y-32569499D01*
X125180102Y-32589183D01*
X125200744Y-32605818D01*
X125592564Y-32997638D01*
X125604345Y-33011270D01*
X125618682Y-33030528D01*
X125658703Y-33064111D01*
X125662691Y-33067766D01*
X125668510Y-33073585D01*
X125668514Y-33073588D01*
X125668517Y-33073591D01*
X125694253Y-33093940D01*
X125753080Y-33143302D01*
X125753081Y-33143302D01*
X125753083Y-33143304D01*
X125759112Y-33147270D01*
X125759079Y-33147319D01*
X125765441Y-33151372D01*
X125765473Y-33151321D01*
X125771613Y-33155108D01*
X125771617Y-33155111D01*
X125806426Y-33171343D01*
X125841235Y-33187575D01*
X125859628Y-33196812D01*
X125909861Y-33222040D01*
X125909863Y-33222040D01*
X125916651Y-33224511D01*
X125916630Y-33224567D01*
X125923751Y-33227043D01*
X125923770Y-33226986D01*
X125930616Y-33229254D01*
X125930621Y-33229257D01*
X125930626Y-33229258D01*
X125930629Y-33229259D01*
X126005859Y-33244792D01*
X126080573Y-33262500D01*
X126080576Y-33262500D01*
X126080580Y-33262501D01*
X126087747Y-33263339D01*
X126087740Y-33263398D01*
X126095238Y-33264164D01*
X126095244Y-33264105D01*
X126102433Y-33264734D01*
X126102437Y-33264733D01*
X126102438Y-33264734D01*
X126179211Y-33262500D01*
X126506500Y-33262500D01*
X126573539Y-33282185D01*
X126619294Y-33334989D01*
X126630500Y-33386500D01*
X126630500Y-33929848D01*
X126629191Y-33947817D01*
X126625710Y-33971579D01*
X126629279Y-34012366D01*
X126629912Y-34019602D01*
X126630264Y-34023618D01*
X126630500Y-34029024D01*
X126630500Y-38095296D01*
X126629191Y-38113265D01*
X126625710Y-38137027D01*
X126630264Y-38189066D01*
X126630500Y-38194472D01*
X126630500Y-38202711D01*
X126634306Y-38235276D01*
X126641000Y-38311793D01*
X126642461Y-38318869D01*
X126642403Y-38318880D01*
X126644034Y-38326239D01*
X126644092Y-38326226D01*
X126645757Y-38333252D01*
X126672025Y-38405426D01*
X126696185Y-38478333D01*
X126699236Y-38484876D01*
X126699182Y-38484900D01*
X126702470Y-38491690D01*
X126702521Y-38491665D01*
X126705761Y-38498115D01*
X126705762Y-38498116D01*
X126705763Y-38498119D01*
X126747965Y-38562285D01*
X126788287Y-38627657D01*
X126792766Y-38633321D01*
X126792719Y-38633358D01*
X126797482Y-38639204D01*
X126797528Y-38639166D01*
X126802173Y-38644702D01*
X126858017Y-38697387D01*
X128553332Y-40392702D01*
X128565113Y-40406334D01*
X128579450Y-40425592D01*
X128619471Y-40459175D01*
X128623459Y-40462830D01*
X128629278Y-40468649D01*
X128629282Y-40468652D01*
X128629285Y-40468655D01*
X128655021Y-40489004D01*
X128713848Y-40538366D01*
X128713849Y-40538366D01*
X128713851Y-40538368D01*
X128719880Y-40542334D01*
X128719847Y-40542383D01*
X128726209Y-40546436D01*
X128726241Y-40546385D01*
X128732381Y-40550172D01*
X128732385Y-40550175D01*
X128764808Y-40565294D01*
X128802003Y-40582639D01*
X128864391Y-40613971D01*
X128870629Y-40617104D01*
X128870631Y-40617104D01*
X128877419Y-40619575D01*
X128877398Y-40619631D01*
X128884519Y-40622107D01*
X128884538Y-40622050D01*
X128891384Y-40624318D01*
X128891389Y-40624321D01*
X128891394Y-40624322D01*
X128891397Y-40624323D01*
X128966627Y-40639856D01*
X129041341Y-40657564D01*
X129041344Y-40657564D01*
X129041348Y-40657565D01*
X129048515Y-40658403D01*
X129048508Y-40658462D01*
X129056005Y-40659228D01*
X129056011Y-40659169D01*
X129063201Y-40659798D01*
X129063205Y-40659797D01*
X129063206Y-40659798D01*
X129065910Y-40659719D01*
X129067717Y-40660193D01*
X129070402Y-40660428D01*
X129070361Y-40660886D01*
X129133495Y-40677439D01*
X129143839Y-40684400D01*
X129263472Y-40773958D01*
X129263479Y-40773962D01*
X129398325Y-40824256D01*
X129398324Y-40824256D01*
X129405252Y-40825000D01*
X129457935Y-40830665D01*
X130853680Y-40830664D01*
X130913291Y-40824256D01*
X131048139Y-40773961D01*
X131163354Y-40687711D01*
X131249604Y-40572496D01*
X131299899Y-40437648D01*
X131306308Y-40378038D01*
X131306307Y-40104563D01*
X131325991Y-40037525D01*
X131378795Y-39991770D01*
X131430307Y-39980564D01*
X131520508Y-39980564D01*
X131528606Y-39981094D01*
X131563936Y-39985746D01*
X131563937Y-39985746D01*
X131616190Y-39978866D01*
X131720698Y-39965108D01*
X131866777Y-39904600D01*
X131866778Y-39904598D01*
X131874286Y-39901489D01*
X131874797Y-39902724D01*
X131927890Y-39888499D01*
X132075180Y-39888499D01*
X132111204Y-39885665D01*
X132265393Y-39840869D01*
X132403598Y-39759135D01*
X132517135Y-39645598D01*
X132598869Y-39507393D01*
X132638345Y-39371516D01*
X132643664Y-39353208D01*
X132643665Y-39353202D01*
X132643681Y-39353007D01*
X132646500Y-39317181D01*
X132646499Y-38918820D01*
X132643665Y-38882796D01*
X132598869Y-38728607D01*
X132517135Y-38590402D01*
X132517133Y-38590400D01*
X132517130Y-38590396D01*
X132403603Y-38476869D01*
X132403595Y-38476863D01*
X132265393Y-38395131D01*
X132265388Y-38395129D01*
X132111208Y-38350335D01*
X132111202Y-38350334D01*
X132075183Y-38347500D01*
X131661680Y-38347500D01*
X131594641Y-38327815D01*
X131548886Y-38275011D01*
X131538942Y-38205853D01*
X131554296Y-38161495D01*
X131557592Y-38155783D01*
X131557598Y-38155777D01*
X131588946Y-38080095D01*
X131632787Y-38025692D01*
X131699081Y-38003627D01*
X131717391Y-38004328D01*
X131825997Y-38016565D01*
X131826000Y-38016565D01*
X131826004Y-38016565D01*
X132005249Y-37996369D01*
X132005252Y-37996368D01*
X132005255Y-37996368D01*
X132175522Y-37936789D01*
X132328262Y-37840816D01*
X132455816Y-37713262D01*
X132551789Y-37560522D01*
X132611368Y-37390255D01*
X132612119Y-37383589D01*
X132631565Y-37211003D01*
X132631565Y-37210996D01*
X132611369Y-37031750D01*
X132611366Y-37031737D01*
X132555783Y-36872890D01*
X132552221Y-36803111D01*
X132566091Y-36768815D01*
X132598869Y-36713393D01*
X132643665Y-36559204D01*
X132646500Y-36523181D01*
X132646499Y-36124820D01*
X132643665Y-36088796D01*
X132598869Y-35934607D01*
X132517135Y-35796402D01*
X132517133Y-35796400D01*
X132517130Y-35796396D01*
X132403603Y-35682869D01*
X132403595Y-35682863D01*
X132265393Y-35601131D01*
X132265388Y-35601129D01*
X132111208Y-35556335D01*
X132111202Y-35556334D01*
X132075183Y-35553500D01*
X132075181Y-35553500D01*
X131742940Y-35553500D01*
X131576819Y-35553501D01*
X131540798Y-35556334D01*
X131501801Y-35567664D01*
X131465154Y-35578310D01*
X131395286Y-35578111D01*
X131336616Y-35540168D01*
X131307773Y-35476530D01*
X131306561Y-35459242D01*
X131306561Y-35277969D01*
X131306562Y-35277962D01*
X131306561Y-34882217D01*
X131300153Y-34822606D01*
X131249858Y-34687758D01*
X131249857Y-34687757D01*
X131249855Y-34687753D01*
X131163609Y-34572544D01*
X131163606Y-34572541D01*
X131048397Y-34486295D01*
X131048390Y-34486291D01*
X130913544Y-34435997D01*
X130913545Y-34435997D01*
X130853945Y-34429590D01*
X130853943Y-34429589D01*
X130853935Y-34429589D01*
X130853926Y-34429589D01*
X129458191Y-34429589D01*
X129458185Y-34429590D01*
X129398578Y-34435997D01*
X129263733Y-34486291D01*
X129263731Y-34486293D01*
X129161810Y-34562591D01*
X129096346Y-34587008D01*
X129028073Y-34572157D01*
X128999818Y-34551005D01*
X128590813Y-34142000D01*
X128167819Y-33719005D01*
X128134334Y-33657682D01*
X128131500Y-33631324D01*
X128131500Y-33386500D01*
X128151185Y-33319461D01*
X128203989Y-33273706D01*
X128255500Y-33262500D01*
X128500064Y-33262500D01*
X128518034Y-33263809D01*
X128541792Y-33267289D01*
X128593837Y-33262735D01*
X128599239Y-33262500D01*
X128607473Y-33262500D01*
X128607478Y-33262500D01*
X128619096Y-33261141D01*
X128640045Y-33258693D01*
X128652797Y-33257577D01*
X128716566Y-33251999D01*
X128716574Y-33251996D01*
X128723635Y-33250539D01*
X128723647Y-33250598D01*
X128731012Y-33248965D01*
X128730998Y-33248906D01*
X128738015Y-33247241D01*
X128738024Y-33247241D01*
X128810192Y-33220974D01*
X128883103Y-33196814D01*
X128883106Y-33196811D01*
X128886832Y-33195075D01*
X128939233Y-33183459D01*
X130467730Y-33183459D01*
X130534769Y-33203144D01*
X130555411Y-33219778D01*
X132591271Y-35255638D01*
X132603052Y-35269270D01*
X132617389Y-35288528D01*
X132617390Y-35288529D01*
X132617391Y-35288530D01*
X132625789Y-35295577D01*
X132657410Y-35322111D01*
X132661398Y-35325766D01*
X132667217Y-35331585D01*
X132667221Y-35331588D01*
X132667224Y-35331591D01*
X132692960Y-35351940D01*
X132751787Y-35401302D01*
X132751788Y-35401302D01*
X132751790Y-35401304D01*
X132757819Y-35405270D01*
X132757786Y-35405319D01*
X132764148Y-35409372D01*
X132764180Y-35409321D01*
X132770320Y-35413108D01*
X132770324Y-35413111D01*
X132805133Y-35429343D01*
X132839942Y-35445575D01*
X132867140Y-35459234D01*
X132908568Y-35480040D01*
X132908570Y-35480040D01*
X132915358Y-35482511D01*
X132915337Y-35482567D01*
X132922456Y-35485042D01*
X132922475Y-35484986D01*
X132929324Y-35487256D01*
X132929327Y-35487256D01*
X132929328Y-35487257D01*
X133004551Y-35502788D01*
X133079280Y-35520500D01*
X133086453Y-35521339D01*
X133086446Y-35521397D01*
X133093946Y-35522163D01*
X133093952Y-35522104D01*
X133108342Y-35523363D01*
X133108288Y-35523975D01*
X133137239Y-35527663D01*
X133206007Y-35547643D01*
X133218108Y-35548595D01*
X133242308Y-35550500D01*
X133242310Y-35550500D01*
X133711692Y-35550500D01*
X133729841Y-35549071D01*
X133747993Y-35547643D01*
X133747996Y-35547642D01*
X133754223Y-35546505D01*
X133754293Y-35546889D01*
X133781622Y-35543000D01*
X134231282Y-35543000D01*
X134298321Y-35562685D01*
X134338014Y-35603880D01*
X134398914Y-35706858D01*
X134398923Y-35706870D01*
X134515129Y-35823076D01*
X134515133Y-35823079D01*
X134515135Y-35823081D01*
X134656602Y-35906744D01*
X134683388Y-35914526D01*
X134814426Y-35952597D01*
X134814429Y-35952597D01*
X134814431Y-35952598D01*
X134826722Y-35953565D01*
X134851304Y-35955500D01*
X134851306Y-35955500D01*
X135282696Y-35955500D01*
X135301131Y-35954049D01*
X135319569Y-35952598D01*
X135319571Y-35952597D01*
X135319573Y-35952597D01*
X135395248Y-35930611D01*
X135477398Y-35906744D01*
X135618865Y-35823081D01*
X135735081Y-35706865D01*
X135818744Y-35565398D01*
X135864598Y-35407569D01*
X135867500Y-35370694D01*
X135867500Y-34214306D01*
X135864598Y-34177431D01*
X135861305Y-34166095D01*
X135861504Y-34096226D01*
X135899446Y-34037556D01*
X135963084Y-34008712D01*
X135980381Y-34007500D01*
X136053619Y-34007500D01*
X136120658Y-34027185D01*
X136166413Y-34079989D01*
X136176357Y-34149147D01*
X136172695Y-34166095D01*
X136169402Y-34177426D01*
X136169401Y-34177432D01*
X136166500Y-34214304D01*
X136166500Y-35370696D01*
X136169401Y-35407567D01*
X136169402Y-35407573D01*
X136215254Y-35565393D01*
X136215255Y-35565396D01*
X136215256Y-35565398D01*
X136222893Y-35578311D01*
X136298917Y-35706862D01*
X136298923Y-35706870D01*
X136415129Y-35823076D01*
X136415133Y-35823079D01*
X136415135Y-35823081D01*
X136556602Y-35906744D01*
X136583388Y-35914526D01*
X136714426Y-35952597D01*
X136714429Y-35952597D01*
X136714431Y-35952598D01*
X136726722Y-35953565D01*
X136751304Y-35955500D01*
X136751306Y-35955500D01*
X137182696Y-35955500D01*
X137201131Y-35954049D01*
X137219569Y-35952598D01*
X137219571Y-35952597D01*
X137219573Y-35952597D01*
X137295248Y-35930611D01*
X137377398Y-35906744D01*
X137518865Y-35823081D01*
X137635081Y-35706865D01*
X137718744Y-35565398D01*
X137740677Y-35489904D01*
X137778283Y-35431020D01*
X137841755Y-35401813D01*
X137859753Y-35400500D01*
X137887404Y-35400500D01*
X137954443Y-35420185D01*
X137975085Y-35436819D01*
X137979396Y-35441130D01*
X137979400Y-35441133D01*
X137979402Y-35441135D01*
X138117607Y-35522869D01*
X138121414Y-35523975D01*
X138271791Y-35567664D01*
X138271794Y-35567664D01*
X138271796Y-35567665D01*
X138283803Y-35568610D01*
X138307817Y-35570500D01*
X138307818Y-35570499D01*
X138307819Y-35570500D01*
X138640059Y-35570499D01*
X138806181Y-35570499D01*
X138809015Y-35570275D01*
X138842204Y-35567665D01*
X138927102Y-35543000D01*
X138942905Y-35538409D01*
X139012775Y-35538608D01*
X139071445Y-35576550D01*
X139100288Y-35640189D01*
X139101500Y-35657485D01*
X139101500Y-37296571D01*
X139100969Y-37304669D01*
X139096318Y-37340000D01*
X139102057Y-37383590D01*
X139103328Y-37393242D01*
X139116955Y-37496760D01*
X139116956Y-37496762D01*
X139180574Y-37650349D01*
X139177398Y-37651664D01*
X139190146Y-37704127D01*
X139167317Y-37770162D01*
X139142291Y-37796245D01*
X139136318Y-37800878D01*
X139021884Y-37915311D01*
X139021881Y-37915315D01*
X138939505Y-38054606D01*
X138939504Y-38054609D01*
X138894357Y-38210002D01*
X138894356Y-38210008D01*
X138891500Y-38246308D01*
X138891500Y-38715692D01*
X138894356Y-38751991D01*
X138894357Y-38751997D01*
X138939504Y-38907390D01*
X138939505Y-38907393D01*
X138939506Y-38907395D01*
X138966353Y-38952791D01*
X139021881Y-39046684D01*
X139021887Y-39046692D01*
X139136307Y-39161112D01*
X139136311Y-39161115D01*
X139136313Y-39161117D01*
X139149746Y-39169061D01*
X139164272Y-39177652D01*
X139211955Y-39228721D01*
X139224459Y-39297463D01*
X139197814Y-39362052D01*
X139140478Y-39401982D01*
X139115933Y-39407500D01*
X139073782Y-39412561D01*
X139044217Y-39412561D01*
X138995559Y-39406718D01*
X138952102Y-39401500D01*
X138765898Y-39401500D01*
X138722440Y-39406718D01*
X138673783Y-39412561D01*
X138644217Y-39412561D01*
X138595559Y-39406718D01*
X138552102Y-39401500D01*
X138365898Y-39401500D01*
X138326853Y-39406188D01*
X138277438Y-39412122D01*
X138136656Y-39467639D01*
X138016077Y-39559077D01*
X137924639Y-39679656D01*
X137869122Y-39820438D01*
X137866669Y-39840868D01*
X137858500Y-39908898D01*
X137858500Y-39908903D01*
X137858500Y-40452500D01*
X137838815Y-40519539D01*
X137786011Y-40565294D01*
X137734500Y-40576500D01*
X137190898Y-40576500D01*
X137151853Y-40581188D01*
X137102438Y-40587122D01*
X136961656Y-40642639D01*
X136867078Y-40714360D01*
X136801766Y-40739183D01*
X136733402Y-40724755D01*
X136704472Y-40703237D01*
X136641091Y-40639856D01*
X136549720Y-40548485D01*
X136544380Y-40542395D01*
X136522682Y-40514118D01*
X136397241Y-40417864D01*
X136251162Y-40357356D01*
X136251160Y-40357355D01*
X136187760Y-40349009D01*
X136094401Y-40336718D01*
X136094400Y-40336718D01*
X136059070Y-40341369D01*
X136050972Y-40341900D01*
X135215498Y-40341900D01*
X135148459Y-40322215D01*
X135127817Y-40305581D01*
X135004218Y-40181982D01*
X134970733Y-40120659D01*
X134967899Y-40094301D01*
X134967899Y-39371529D01*
X134967898Y-39371523D01*
X134967897Y-39371516D01*
X134961491Y-39311917D01*
X134951884Y-39286159D01*
X134911197Y-39177070D01*
X134894718Y-39155058D01*
X134870300Y-39089594D01*
X134885151Y-39021321D01*
X134887237Y-39017650D01*
X134959894Y-38894795D01*
X135005043Y-38739393D01*
X135006908Y-38715690D01*
X135007900Y-38703092D01*
X135007900Y-38233708D01*
X135005043Y-38197408D01*
X135005042Y-38197402D01*
X134959895Y-38042009D01*
X134959894Y-38042006D01*
X134959894Y-38042005D01*
X134877517Y-37902713D01*
X134877515Y-37902711D01*
X134877512Y-37902707D01*
X134763092Y-37788287D01*
X134763084Y-37788281D01*
X134623793Y-37705905D01*
X134623790Y-37705904D01*
X134468397Y-37660757D01*
X134468391Y-37660756D01*
X134432092Y-37657900D01*
X134432090Y-37657900D01*
X134022710Y-37657900D01*
X134022708Y-37657900D01*
X133986408Y-37660756D01*
X133986402Y-37660757D01*
X133831009Y-37705904D01*
X133831006Y-37705905D01*
X133691715Y-37788281D01*
X133691707Y-37788287D01*
X133577287Y-37902707D01*
X133577281Y-37902715D01*
X133494905Y-38042006D01*
X133494904Y-38042009D01*
X133449757Y-38197402D01*
X133449756Y-38197408D01*
X133446900Y-38233708D01*
X133446900Y-38391150D01*
X133437461Y-38438603D01*
X133382356Y-38571637D01*
X133382355Y-38571639D01*
X133363992Y-38711127D01*
X133361718Y-38728400D01*
X133364225Y-38747446D01*
X133366369Y-38763726D01*
X133366900Y-38771828D01*
X133366900Y-38836609D01*
X133347215Y-38903648D01*
X133294411Y-38949403D01*
X133286233Y-38952791D01*
X133225071Y-38975602D01*
X133225064Y-38975606D01*
X133109855Y-39061852D01*
X133109852Y-39061855D01*
X133023606Y-39177064D01*
X133023602Y-39177071D01*
X132973308Y-39311917D01*
X132966901Y-39371516D01*
X132966901Y-39371523D01*
X132966900Y-39371535D01*
X132966900Y-40617270D01*
X132966901Y-40617276D01*
X132973308Y-40676883D01*
X133023602Y-40811728D01*
X133023606Y-40811735D01*
X133109852Y-40926944D01*
X133109855Y-40926947D01*
X133225064Y-41013193D01*
X133225071Y-41013197D01*
X133270018Y-41029961D01*
X133359917Y-41063491D01*
X133419527Y-41069900D01*
X134142301Y-41069899D01*
X134209340Y-41089583D01*
X134229977Y-41106213D01*
X134330582Y-41206817D01*
X134364066Y-41268138D01*
X134366900Y-41294497D01*
X134366900Y-42367270D01*
X134366901Y-42367276D01*
X134373308Y-42426883D01*
X134423602Y-42561728D01*
X134423606Y-42561735D01*
X134509852Y-42676944D01*
X134509855Y-42676947D01*
X134625064Y-42763193D01*
X134625073Y-42763198D01*
X134721837Y-42799288D01*
X134777771Y-42841158D01*
X134793066Y-42868018D01*
X134842862Y-42988238D01*
X134842863Y-42988240D01*
X134842864Y-42988241D01*
X134939118Y-43113682D01*
X134967395Y-43135380D01*
X134973485Y-43140720D01*
X135029756Y-43196991D01*
X135032581Y-43199816D01*
X135066066Y-43261139D01*
X135068900Y-43287497D01*
X135068900Y-43402092D01*
X135071756Y-43438391D01*
X135071757Y-43438397D01*
X135116904Y-43593790D01*
X135116906Y-43593795D01*
X135127838Y-43612281D01*
X135145019Y-43680005D01*
X135127838Y-43738519D01*
X135116906Y-43757004D01*
X135116904Y-43757009D01*
X135071757Y-43912402D01*
X135071756Y-43912408D01*
X135068900Y-43948708D01*
X135068900Y-43995900D01*
X135049215Y-44062939D01*
X134996411Y-44108694D01*
X134944900Y-44119900D01*
X133504028Y-44119900D01*
X133495929Y-44119369D01*
X133460600Y-44114718D01*
X133421239Y-44119900D01*
X133303839Y-44135355D01*
X133303837Y-44135356D01*
X133157760Y-44195863D01*
X133032314Y-44292121D01*
X133010624Y-44320390D01*
X133005271Y-44326494D01*
X132575096Y-44756668D01*
X132568994Y-44762019D01*
X132540716Y-44783719D01*
X132462340Y-44885862D01*
X132444464Y-44909158D01*
X132444462Y-44909161D01*
X132384211Y-45054622D01*
X132340370Y-45109025D01*
X132274076Y-45131090D01*
X132217846Y-45117093D01*
X132217136Y-45118808D01*
X132132856Y-45083898D01*
X132069631Y-45057709D01*
X132001869Y-45048788D01*
X131953493Y-45042419D01*
X131953478Y-45042417D01*
X131923417Y-45038460D01*
X131919395Y-45037931D01*
X131919394Y-45037931D01*
X131907885Y-45039446D01*
X131838850Y-45028678D01*
X131786596Y-44982296D01*
X131767704Y-44916506D01*
X131767704Y-44732323D01*
X131767703Y-44732317D01*
X131767702Y-44732310D01*
X131761296Y-44672711D01*
X131743262Y-44624360D01*
X131711002Y-44537865D01*
X131710998Y-44537858D01*
X131624752Y-44422649D01*
X131624749Y-44422646D01*
X131509540Y-44336400D01*
X131509533Y-44336396D01*
X131374687Y-44286102D01*
X131374688Y-44286102D01*
X131315088Y-44279695D01*
X131315086Y-44279694D01*
X131315078Y-44279694D01*
X131315069Y-44279694D01*
X129542930Y-44279694D01*
X129542924Y-44279695D01*
X129483317Y-44286102D01*
X129348472Y-44336396D01*
X129348465Y-44336400D01*
X129233256Y-44422646D01*
X129233253Y-44422649D01*
X129147007Y-44537858D01*
X129147003Y-44537865D01*
X129096709Y-44672711D01*
X129094647Y-44691895D01*
X129090302Y-44732317D01*
X129090301Y-44732329D01*
X129090301Y-46504468D01*
X129090302Y-46504474D01*
X129096709Y-46564081D01*
X129147003Y-46698926D01*
X129147007Y-46698933D01*
X129233253Y-46814142D01*
X129233256Y-46814145D01*
X129348465Y-46900391D01*
X129348472Y-46900395D01*
X129483318Y-46950689D01*
X129483317Y-46950689D01*
X129490245Y-46951433D01*
X129542928Y-46957098D01*
X131315077Y-46957097D01*
X131374688Y-46950689D01*
X131509536Y-46900394D01*
X131624751Y-46814144D01*
X131711001Y-46698929D01*
X131761296Y-46564081D01*
X131761733Y-46560013D01*
X131762953Y-46557067D01*
X131763079Y-46556536D01*
X131763165Y-46556556D01*
X131788465Y-46495466D01*
X131845854Y-46455614D01*
X131915679Y-46453114D01*
X131972703Y-46485584D01*
X134078202Y-48591083D01*
X134111687Y-48652406D01*
X134106703Y-48722098D01*
X134064831Y-48778031D01*
X134053643Y-48785496D01*
X133963402Y-48838865D01*
X133963396Y-48838869D01*
X133849869Y-48952396D01*
X133849863Y-48952404D01*
X133768131Y-49090606D01*
X133768129Y-49090611D01*
X133723335Y-49244791D01*
X133723334Y-49244797D01*
X133720500Y-49280817D01*
X133720501Y-49779181D01*
X133723335Y-49815205D01*
X133768129Y-49969388D01*
X133768130Y-49969392D01*
X133808929Y-50038380D01*
X133826110Y-50106105D01*
X133808929Y-50164620D01*
X133768130Y-50233607D01*
X133768129Y-50233611D01*
X133723335Y-50387791D01*
X133723334Y-50387797D01*
X133720500Y-50423817D01*
X133720501Y-50922181D01*
X133723335Y-50958205D01*
X133752182Y-51057497D01*
X133751983Y-51127367D01*
X133714041Y-51186037D01*
X133668041Y-51211069D01*
X133565949Y-51241045D01*
X133444873Y-51318856D01*
X133350623Y-51427626D01*
X133350622Y-51427628D01*
X133290834Y-51558543D01*
X133270353Y-51701001D01*
X133270353Y-53201000D01*
X133275499Y-53272960D01*
X133275500Y-53272965D01*
X133316045Y-53411050D01*
X133316047Y-53411053D01*
X133393857Y-53532128D01*
X133502627Y-53626377D01*
X133633543Y-53686165D01*
X133776000Y-53706647D01*
X133776003Y-53706647D01*
X134776000Y-53706647D01*
X134839541Y-53702639D01*
X134886114Y-53689808D01*
X134936692Y-53686618D01*
X134967892Y-53691103D01*
X135076000Y-53706647D01*
X135076003Y-53706647D01*
X136226000Y-53706647D01*
X136297961Y-53701500D01*
X136297963Y-53701499D01*
X136297965Y-53701499D01*
X136436050Y-53660954D01*
X136436050Y-53660953D01*
X136436053Y-53660953D01*
X136557128Y-53583143D01*
X136651377Y-53474373D01*
X136678851Y-53414213D01*
X136724604Y-53361412D01*
X136791644Y-53341727D01*
X136854765Y-53358995D01*
X136855298Y-53359310D01*
X136974607Y-53429869D01*
X137015268Y-53441682D01*
X137128791Y-53474664D01*
X137128794Y-53474664D01*
X137128796Y-53474665D01*
X137140803Y-53475610D01*
X137164817Y-53477500D01*
X137164818Y-53477499D01*
X137164819Y-53477500D01*
X137497059Y-53477499D01*
X137663181Y-53477499D01*
X137666015Y-53477275D01*
X137699204Y-53474665D01*
X137853393Y-53429869D01*
X137991598Y-53348135D01*
X138105135Y-53234598D01*
X138186869Y-53096393D01*
X138215337Y-52998403D01*
X138252943Y-52939520D01*
X138316415Y-52910313D01*
X138334413Y-52909000D01*
X138961271Y-52909000D01*
X139004604Y-52916818D01*
X139100517Y-52952591D01*
X139100516Y-52952591D01*
X139107444Y-52953335D01*
X139160127Y-52959000D01*
X139955872Y-52958999D01*
X140015483Y-52952591D01*
X140150331Y-52902296D01*
X140265546Y-52816046D01*
X140351796Y-52700831D01*
X140402091Y-52565983D01*
X140408500Y-52506373D01*
X140408499Y-52160628D01*
X140407008Y-52146758D01*
X140407008Y-52120248D01*
X140408500Y-52106373D01*
X140408499Y-51760628D01*
X140407008Y-51746758D01*
X140407008Y-51720248D01*
X140408500Y-51706373D01*
X140408499Y-51360628D01*
X140402091Y-51301017D01*
X140355772Y-51176831D01*
X140350788Y-51107143D01*
X140355773Y-51090167D01*
X140402091Y-50965983D01*
X140408500Y-50906373D01*
X140408499Y-50560628D01*
X140407008Y-50546758D01*
X140407008Y-50520248D01*
X140408500Y-50506373D01*
X140408499Y-50160628D01*
X140407008Y-50146758D01*
X140407008Y-50120249D01*
X140408500Y-50106373D01*
X140408499Y-49760628D01*
X140402091Y-49701017D01*
X140397164Y-49687808D01*
X140351797Y-49566171D01*
X140351793Y-49566164D01*
X140265547Y-49450955D01*
X140265544Y-49450952D01*
X140150335Y-49364706D01*
X140150328Y-49364702D01*
X140015482Y-49314408D01*
X140015483Y-49314408D01*
X139955883Y-49308001D01*
X139955881Y-49308000D01*
X139955873Y-49308000D01*
X139955865Y-49308000D01*
X139800254Y-49308000D01*
X139733215Y-49288315D01*
X139701879Y-49259488D01*
X139696939Y-49253050D01*
X139691951Y-49246549D01*
X139691949Y-49246547D01*
X139691948Y-49246546D01*
X139663463Y-49224689D01*
X139663452Y-49224680D01*
X139588558Y-49167212D01*
X139547356Y-49110784D01*
X139543201Y-49041038D01*
X139577413Y-48980117D01*
X139588553Y-48970464D01*
X139625282Y-48942282D01*
X139646983Y-48913999D01*
X139652311Y-48907922D01*
X140066758Y-48493475D01*
X140128079Y-48459992D01*
X140197771Y-48464976D01*
X140253704Y-48506848D01*
X140271479Y-48540204D01*
X140298008Y-48616021D01*
X140381370Y-48748690D01*
X140393982Y-48768762D01*
X140521536Y-48896316D01*
X140619920Y-48958135D01*
X140674276Y-48992289D01*
X140801504Y-49036808D01*
X140858280Y-49077530D01*
X140877588Y-49112887D01*
X140879207Y-49117515D01*
X140879212Y-49117524D01*
X140954494Y-49237334D01*
X140975184Y-49270262D01*
X141102738Y-49397816D01*
X141187303Y-49450952D01*
X141249864Y-49490262D01*
X141255478Y-49493789D01*
X141397715Y-49543560D01*
X141425745Y-49553368D01*
X141425750Y-49553369D01*
X141604996Y-49573565D01*
X141605000Y-49573565D01*
X141605004Y-49573565D01*
X141784249Y-49553369D01*
X141784251Y-49553368D01*
X141784255Y-49553368D01*
X141802099Y-49547123D01*
X141871877Y-49543560D01*
X141914293Y-49567855D01*
X141929894Y-49520988D01*
X141965774Y-49486718D01*
X142107262Y-49397816D01*
X142234816Y-49270262D01*
X142255506Y-49237333D01*
X142307840Y-49191042D01*
X142376893Y-49180393D01*
X142440742Y-49208768D01*
X142479114Y-49267158D01*
X142484500Y-49303305D01*
X142484500Y-49584000D01*
X142464815Y-49651039D01*
X142412011Y-49696794D01*
X142360500Y-49708000D01*
X142110130Y-49708000D01*
X142110120Y-49708001D01*
X142045000Y-49715001D01*
X141976241Y-49702594D01*
X141960360Y-49687808D01*
X141958332Y-49709854D01*
X141917369Y-49763430D01*
X141800452Y-49850955D01*
X141714206Y-49966164D01*
X141714202Y-49966171D01*
X141663910Y-50101013D01*
X141663909Y-50101017D01*
X141657500Y-50160627D01*
X141657500Y-50160634D01*
X141657500Y-50160635D01*
X141657500Y-50506365D01*
X141657501Y-50506373D01*
X141658992Y-50520248D01*
X141658992Y-50546739D01*
X141657500Y-50560622D01*
X141657500Y-50906369D01*
X141657501Y-50906376D01*
X141663908Y-50965983D01*
X141710226Y-51090167D01*
X141715210Y-51159859D01*
X141710226Y-51176833D01*
X141678477Y-51261957D01*
X141663909Y-51301017D01*
X141657500Y-51360627D01*
X141657500Y-51360634D01*
X141657500Y-51360635D01*
X141657500Y-51706365D01*
X141657501Y-51706373D01*
X141658992Y-51720248D01*
X141658992Y-51746739D01*
X141657500Y-51760622D01*
X141657500Y-52106365D01*
X141657501Y-52106373D01*
X141658992Y-52120248D01*
X141658992Y-52146739D01*
X141657500Y-52160622D01*
X141657500Y-52506369D01*
X141657501Y-52506376D01*
X141663908Y-52565983D01*
X141714202Y-52700828D01*
X141714206Y-52700835D01*
X141800451Y-52816043D01*
X141800452Y-52816044D01*
X141800454Y-52816046D01*
X141868812Y-52867219D01*
X141910682Y-52923151D01*
X141918500Y-52966484D01*
X141918500Y-53035619D01*
X141901233Y-53098739D01*
X141860504Y-53167608D01*
X141860504Y-53167609D01*
X141815357Y-53323002D01*
X141815356Y-53323008D01*
X141812500Y-53359308D01*
X141812500Y-53828692D01*
X141815356Y-53864991D01*
X141815357Y-53864997D01*
X141860504Y-54020390D01*
X141863603Y-54027551D01*
X141860874Y-54028731D01*
X141874618Y-54082958D01*
X141857438Y-54141447D01*
X141832504Y-54183608D01*
X141832504Y-54183609D01*
X141787357Y-54339002D01*
X141787356Y-54339008D01*
X141784500Y-54375308D01*
X141784500Y-54844692D01*
X141787356Y-54880991D01*
X141787357Y-54880997D01*
X141832504Y-55036390D01*
X141832505Y-55036393D01*
X141914881Y-55175684D01*
X141914887Y-55175692D01*
X142029307Y-55290112D01*
X142029311Y-55290115D01*
X142029313Y-55290117D01*
X142168605Y-55372494D01*
X142209587Y-55384400D01*
X142324002Y-55417642D01*
X142324005Y-55417642D01*
X142324007Y-55417643D01*
X142336108Y-55418595D01*
X142360308Y-55420500D01*
X142360310Y-55420500D01*
X142769692Y-55420500D01*
X142787841Y-55419071D01*
X142805993Y-55417643D01*
X142805995Y-55417642D01*
X142805997Y-55417642D01*
X142846975Y-55405736D01*
X142961395Y-55372494D01*
X143100687Y-55290117D01*
X143141524Y-55249279D01*
X143202844Y-55215794D01*
X143245392Y-55214022D01*
X143258000Y-55215682D01*
X143258001Y-55215682D01*
X143310254Y-55208802D01*
X143414762Y-55195044D01*
X143560841Y-55134536D01*
X143686282Y-55038282D01*
X143686285Y-55038277D01*
X143686739Y-55037825D01*
X143687221Y-55037561D01*
X143692731Y-55033334D01*
X143693389Y-55034192D01*
X143748059Y-55004335D01*
X143774427Y-55001499D01*
X143886180Y-55001499D01*
X143922204Y-54998665D01*
X144076393Y-54953869D01*
X144214598Y-54872135D01*
X144328135Y-54758598D01*
X144409869Y-54620393D01*
X144454665Y-54466204D01*
X144457500Y-54430181D01*
X144457499Y-54311095D01*
X144477183Y-54244057D01*
X144493813Y-54223420D01*
X145019820Y-53697414D01*
X145081142Y-53663930D01*
X145150834Y-53668914D01*
X145206767Y-53710786D01*
X145231184Y-53776250D01*
X145231500Y-53785096D01*
X145231500Y-55642951D01*
X145211815Y-55709990D01*
X145166518Y-55752006D01*
X145008493Y-55837524D01*
X144812257Y-55990261D01*
X144643833Y-56173217D01*
X144507826Y-56381393D01*
X144407936Y-56609118D01*
X144346892Y-56850175D01*
X144346890Y-56850187D01*
X144326357Y-57097994D01*
X144326357Y-57098005D01*
X144346890Y-57345812D01*
X144346892Y-57345824D01*
X144407936Y-57586881D01*
X144507826Y-57814606D01*
X144643833Y-58022782D01*
X144643836Y-58022785D01*
X144812256Y-58205738D01*
X144812259Y-58205740D01*
X144812262Y-58205743D01*
X144954751Y-58316647D01*
X144995564Y-58373357D01*
X144999239Y-58443130D01*
X144964607Y-58503813D01*
X144902666Y-58536140D01*
X144878589Y-58538500D01*
X124124500Y-58538500D01*
X124057461Y-58518815D01*
X124011706Y-58466011D01*
X124000500Y-58414500D01*
X124000500Y-32615374D01*
X124020185Y-32548335D01*
X124072989Y-32502580D01*
X124142147Y-32492636D01*
X124176909Y-32502994D01*
G37*
%TD.AperFunction*%
%TA.AperFunction,Conductor*%
G36*
X151835517Y-25673685D02*
G01*
X151881272Y-25726489D01*
X151892476Y-25777520D01*
X151989500Y-50906376D01*
X151999500Y-53496500D01*
X151999500Y-58414500D01*
X151979815Y-58481539D01*
X151927011Y-58527294D01*
X151875500Y-58538500D01*
X146785411Y-58538500D01*
X146718372Y-58518815D01*
X146672617Y-58466011D01*
X146662673Y-58396853D01*
X146691698Y-58333297D01*
X146709249Y-58316647D01*
X146788829Y-58254706D01*
X146851744Y-58205738D01*
X147020164Y-58022785D01*
X147156173Y-57814607D01*
X147256063Y-57586881D01*
X147317108Y-57345821D01*
X147337643Y-57098000D01*
X147317108Y-56850179D01*
X147256063Y-56609119D01*
X147156173Y-56381393D01*
X147020166Y-56173217D01*
X146998557Y-56149744D01*
X146851744Y-55990262D01*
X146655509Y-55837526D01*
X146655507Y-55837525D01*
X146655506Y-55837524D01*
X146497482Y-55752006D01*
X146447892Y-55702786D01*
X146432500Y-55642951D01*
X146432500Y-52079428D01*
X146433031Y-52071329D01*
X146433568Y-52067247D01*
X146437682Y-52036000D01*
X146437681Y-52035994D01*
X146437874Y-52034531D01*
X146466140Y-51970633D01*
X146501794Y-51941660D01*
X146655509Y-51858474D01*
X146851744Y-51705738D01*
X147020164Y-51522785D01*
X147156173Y-51314607D01*
X147256063Y-51086881D01*
X147317108Y-50845821D01*
X147320573Y-50804006D01*
X147337643Y-50598005D01*
X147337643Y-50597994D01*
X147317109Y-50350187D01*
X147317107Y-50350175D01*
X147256063Y-50109118D01*
X147156173Y-49881393D01*
X147020166Y-49673217D01*
X146998557Y-49649744D01*
X146851744Y-49490262D01*
X146655509Y-49337526D01*
X146655508Y-49337525D01*
X146655505Y-49337523D01*
X146655498Y-49337519D01*
X146590362Y-49302269D01*
X146540772Y-49253050D01*
X146525664Y-49184833D01*
X146549835Y-49119278D01*
X146561692Y-49105541D01*
X146586322Y-49080911D01*
X146592399Y-49075583D01*
X146620682Y-49053882D01*
X146716936Y-48928441D01*
X146777444Y-48782362D01*
X146792900Y-48664961D01*
X146798082Y-48625600D01*
X146793430Y-48590269D01*
X146792900Y-48582171D01*
X146792900Y-47644066D01*
X146812585Y-47577027D01*
X146829216Y-47556387D01*
X146842517Y-47543087D01*
X146876278Y-47486000D01*
X148346353Y-47486000D01*
X148351499Y-47557960D01*
X148351500Y-47557965D01*
X148392045Y-47696050D01*
X148392047Y-47696053D01*
X148469857Y-47817128D01*
X148578627Y-47911377D01*
X148709543Y-47971165D01*
X148852000Y-47991647D01*
X148852003Y-47991647D01*
X150002005Y-47991647D01*
X150046645Y-47988076D01*
X150082361Y-47985220D01*
X150219752Y-47942358D01*
X150339503Y-47862525D01*
X150363488Y-47833887D01*
X150431910Y-47752188D01*
X150431909Y-47752188D01*
X150431911Y-47752187D01*
X150489490Y-47620285D01*
X150507576Y-47477504D01*
X150484703Y-47335411D01*
X150482137Y-47330033D01*
X150422725Y-47205519D01*
X150227905Y-46913290D01*
X150155566Y-46804782D01*
X150134759Y-46738084D01*
X150153314Y-46670723D01*
X150155567Y-46667217D01*
X150422724Y-46266483D01*
X150422723Y-46266484D01*
X150441709Y-46232397D01*
X150461953Y-46196053D01*
X150502500Y-46057961D01*
X150502500Y-45914039D01*
X150481801Y-45843543D01*
X150461954Y-45775949D01*
X150453128Y-45762215D01*
X150384143Y-45654872D01*
X150275373Y-45560623D01*
X150275371Y-45560622D01*
X150144456Y-45500834D01*
X150026649Y-45483897D01*
X150002000Y-45480353D01*
X148852000Y-45480353D01*
X148780039Y-45485499D01*
X148780034Y-45485500D01*
X148641949Y-45526045D01*
X148520873Y-45603856D01*
X148426623Y-45712626D01*
X148426622Y-45712628D01*
X148366834Y-45843543D01*
X148346353Y-45986001D01*
X148346353Y-47486000D01*
X146876278Y-47486000D01*
X146924894Y-47403795D01*
X146966372Y-47261030D01*
X146970042Y-47248397D01*
X146970043Y-47248391D01*
X146970694Y-47240127D01*
X146972900Y-47212090D01*
X146972900Y-46742710D01*
X146970043Y-46706407D01*
X146967870Y-46698929D01*
X146924895Y-46551009D01*
X146924893Y-46551003D01*
X146913964Y-46532524D01*
X146896779Y-46464801D01*
X146913964Y-46406276D01*
X146924893Y-46387796D01*
X146924894Y-46387795D01*
X146960139Y-46266482D01*
X146970042Y-46232397D01*
X146970043Y-46232391D01*
X146972900Y-46196092D01*
X146972900Y-45726708D01*
X146970043Y-45690408D01*
X146970042Y-45690402D01*
X146932337Y-45560623D01*
X146924894Y-45535005D01*
X146924595Y-45534500D01*
X146913964Y-45516524D01*
X146896779Y-45448801D01*
X146913964Y-45390276D01*
X146915983Y-45386862D01*
X146924894Y-45371795D01*
X146970043Y-45216393D01*
X146972472Y-45185526D01*
X146972900Y-45180092D01*
X146972900Y-44863900D01*
X146992585Y-44796861D01*
X147045389Y-44751106D01*
X147096900Y-44739900D01*
X147171692Y-44739900D01*
X147189841Y-44738471D01*
X147207993Y-44737043D01*
X147207995Y-44737042D01*
X147207997Y-44737042D01*
X147248975Y-44725136D01*
X147363395Y-44691894D01*
X147502687Y-44609517D01*
X147559804Y-44552400D01*
X148370753Y-44552400D01*
X148375899Y-44624360D01*
X148375900Y-44624365D01*
X148416445Y-44762450D01*
X148416447Y-44762453D01*
X148494257Y-44883528D01*
X148603027Y-44977777D01*
X148733943Y-45037565D01*
X148876400Y-45058047D01*
X148876403Y-45058047D01*
X149876400Y-45058047D01*
X149939941Y-45054039D01*
X150078695Y-45015817D01*
X150201060Y-44940053D01*
X150297124Y-44832882D01*
X150797124Y-44082882D01*
X150806311Y-44068587D01*
X150863890Y-43936685D01*
X150881976Y-43793904D01*
X150866008Y-43694708D01*
X150859104Y-43651815D01*
X150859103Y-43651811D01*
X150797125Y-43521919D01*
X150441337Y-42988238D01*
X150297124Y-42771918D01*
X150258543Y-42721272D01*
X150258539Y-42721269D01*
X150258536Y-42721265D01*
X150149777Y-42627025D01*
X150149771Y-42627022D01*
X150018856Y-42567234D01*
X149912192Y-42551899D01*
X149876400Y-42546753D01*
X148876400Y-42546753D01*
X148804439Y-42551899D01*
X148804434Y-42551900D01*
X148666349Y-42592445D01*
X148545273Y-42670256D01*
X148451023Y-42779026D01*
X148451022Y-42779028D01*
X148391234Y-42909943D01*
X148370753Y-43052401D01*
X148370753Y-44552400D01*
X147559804Y-44552400D01*
X147617117Y-44495087D01*
X147699494Y-44355795D01*
X147744643Y-44200393D01*
X147747500Y-44164090D01*
X147747500Y-43694710D01*
X147744643Y-43658407D01*
X147741318Y-43646964D01*
X147701040Y-43508326D01*
X147699494Y-43503005D01*
X147699474Y-43502972D01*
X147692290Y-43490824D01*
X147675105Y-43423101D01*
X147692290Y-43364576D01*
X147699493Y-43352396D01*
X147699494Y-43352395D01*
X147744643Y-43196993D01*
X147747500Y-43160690D01*
X147747500Y-42691310D01*
X147744643Y-42655007D01*
X147744642Y-42655002D01*
X147699496Y-42499610D01*
X147699494Y-42499608D01*
X147699494Y-42499605D01*
X147678803Y-42464618D01*
X147661621Y-42396898D01*
X147683781Y-42330635D01*
X147738246Y-42286872D01*
X147785536Y-42277500D01*
X148667456Y-42277500D01*
X148675553Y-42278030D01*
X148699423Y-42281173D01*
X148709236Y-42282465D01*
X148709237Y-42282465D01*
X148745022Y-42277754D01*
X148745046Y-42277751D01*
X148746952Y-42277500D01*
X148746957Y-42277500D01*
X148859473Y-42262687D01*
X148946196Y-42226765D01*
X148999469Y-42204699D01*
X149089505Y-42135612D01*
X149089506Y-42135610D01*
X149097597Y-42129402D01*
X149097599Y-42129399D01*
X149119688Y-42112451D01*
X149140375Y-42085489D01*
X149145717Y-42079398D01*
X150324898Y-40900218D01*
X150330989Y-40894876D01*
X150357951Y-40874189D01*
X150374905Y-40852094D01*
X150381110Y-40844007D01*
X150381112Y-40844006D01*
X150450199Y-40753971D01*
X150491320Y-40654695D01*
X150508187Y-40613974D01*
X150517621Y-40542314D01*
X150545887Y-40478418D01*
X150604212Y-40439947D01*
X150640560Y-40434500D01*
X150727692Y-40434500D01*
X150745841Y-40433071D01*
X150763993Y-40431643D01*
X150763995Y-40431642D01*
X150763997Y-40431642D01*
X150811423Y-40417863D01*
X150919395Y-40386494D01*
X151058687Y-40304117D01*
X151173117Y-40189687D01*
X151255494Y-40050395D01*
X151300643Y-39894993D01*
X151303500Y-39858690D01*
X151303500Y-39389310D01*
X151300643Y-39353007D01*
X151299669Y-39349654D01*
X151255496Y-39197610D01*
X151255494Y-39197608D01*
X151255494Y-39197605D01*
X151207006Y-39115617D01*
X151189825Y-39047898D01*
X151207006Y-38989382D01*
X151255494Y-38907395D01*
X151259156Y-38894793D01*
X151300642Y-38751997D01*
X151300643Y-38751991D01*
X151303500Y-38715692D01*
X151303500Y-38246308D01*
X151300643Y-38210008D01*
X151300642Y-38210002D01*
X151255495Y-38054609D01*
X151255494Y-38054606D01*
X151255494Y-38054605D01*
X151173117Y-37915313D01*
X151173115Y-37915311D01*
X151173112Y-37915307D01*
X151058692Y-37800887D01*
X151058684Y-37800881D01*
X150974830Y-37751290D01*
X150919395Y-37718506D01*
X150919394Y-37718505D01*
X150919393Y-37718505D01*
X150919390Y-37718504D01*
X150763997Y-37673357D01*
X150763991Y-37673356D01*
X150727692Y-37670500D01*
X150727690Y-37670500D01*
X150318310Y-37670500D01*
X150318308Y-37670500D01*
X150282008Y-37673356D01*
X150282002Y-37673357D01*
X150126609Y-37718504D01*
X150126606Y-37718505D01*
X149987315Y-37800881D01*
X149987307Y-37800887D01*
X149903014Y-37885181D01*
X149841691Y-37918666D01*
X149815333Y-37921500D01*
X149775986Y-37921500D01*
X149716556Y-37906331D01*
X149710827Y-37903202D01*
X149684839Y-37893509D01*
X149629799Y-37852814D01*
X149601160Y-37815491D01*
X149601156Y-37815486D01*
X149586391Y-37796245D01*
X149578951Y-37786549D01*
X149578949Y-37786548D01*
X149578949Y-37786547D01*
X149554462Y-37767758D01*
X149551990Y-37765861D01*
X149545900Y-37760520D01*
X149368845Y-37583465D01*
X149335360Y-37522142D01*
X149340344Y-37452450D01*
X149382216Y-37396517D01*
X149446796Y-37372167D01*
X149523302Y-37366146D01*
X149760612Y-37309172D01*
X149986089Y-37215777D01*
X150194179Y-37088259D01*
X150379759Y-36929759D01*
X150538259Y-36744179D01*
X150665777Y-36536089D01*
X150759172Y-36310612D01*
X150816146Y-36073302D01*
X150835294Y-35830000D01*
X150816146Y-35586698D01*
X150759172Y-35349388D01*
X150753957Y-35336798D01*
X150665777Y-35123910D01*
X150538262Y-34915826D01*
X150538261Y-34915823D01*
X150458645Y-34822605D01*
X150379759Y-34730241D01*
X150302372Y-34664146D01*
X150217233Y-34591430D01*
X150179040Y-34532923D01*
X150178542Y-34463055D01*
X150198811Y-34422414D01*
X150262366Y-34338255D01*
X150357405Y-34147389D01*
X150415756Y-33942310D01*
X150435429Y-33730000D01*
X150435428Y-33729994D01*
X150428479Y-33655000D01*
X150415756Y-33517690D01*
X150357405Y-33312611D01*
X150357403Y-33312606D01*
X150357403Y-33312605D01*
X150262367Y-33121746D01*
X150178938Y-33011270D01*
X150133872Y-32951593D01*
X149991317Y-32821636D01*
X149955036Y-32761926D01*
X149956797Y-32692078D01*
X149991318Y-32638363D01*
X150000587Y-32629913D01*
X150133872Y-32508407D01*
X150262366Y-32338255D01*
X150342929Y-32176461D01*
X150357403Y-32147394D01*
X150357403Y-32147393D01*
X150357405Y-32147389D01*
X150415756Y-31942310D01*
X150435429Y-31730000D01*
X150415756Y-31517690D01*
X150357405Y-31312611D01*
X150357403Y-31312606D01*
X150357403Y-31312605D01*
X150262367Y-31121746D01*
X150138877Y-30958221D01*
X150133872Y-30951593D01*
X149991317Y-30821636D01*
X149955036Y-30761926D01*
X149956797Y-30692078D01*
X149991318Y-30638363D01*
X150033766Y-30599666D01*
X150133872Y-30508407D01*
X150262366Y-30338255D01*
X150268325Y-30326288D01*
X150357403Y-30147394D01*
X150357403Y-30147393D01*
X150357405Y-30147389D01*
X150415756Y-29942310D01*
X150435429Y-29730000D01*
X150415756Y-29517690D01*
X150357405Y-29312611D01*
X150357403Y-29312606D01*
X150357403Y-29312605D01*
X150262366Y-29121745D01*
X150198812Y-29037587D01*
X150174119Y-28972226D01*
X150188684Y-28903891D01*
X150217233Y-28868569D01*
X150379759Y-28729759D01*
X150538259Y-28544179D01*
X150665777Y-28336089D01*
X150759172Y-28110612D01*
X150816146Y-27873302D01*
X150835294Y-27630000D01*
X150816146Y-27386698D01*
X150759172Y-27149388D01*
X150728098Y-27074368D01*
X150665777Y-26923910D01*
X150538262Y-26715826D01*
X150538261Y-26715823D01*
X150472240Y-26638523D01*
X150379759Y-26530241D01*
X150224531Y-26397664D01*
X150194176Y-26371738D01*
X150194173Y-26371737D01*
X149986089Y-26244222D01*
X149760618Y-26150830D01*
X149760621Y-26150830D01*
X149654992Y-26125470D01*
X149523302Y-26093854D01*
X149523300Y-26093853D01*
X149523297Y-26093853D01*
X149280000Y-26074706D01*
X149036702Y-26093853D01*
X148799380Y-26150830D01*
X148573910Y-26244222D01*
X148365826Y-26371737D01*
X148365823Y-26371738D01*
X148180241Y-26530241D01*
X148021738Y-26715823D01*
X148021737Y-26715826D01*
X147894222Y-26923910D01*
X147800830Y-27149380D01*
X147800828Y-27149387D01*
X147800828Y-27149388D01*
X147786064Y-27210882D01*
X147743853Y-27386702D01*
X147724706Y-27630000D01*
X147743853Y-27873297D01*
X147743853Y-27873300D01*
X147743854Y-27873302D01*
X147763147Y-27953663D01*
X147800830Y-28110619D01*
X147894222Y-28336089D01*
X148021737Y-28544173D01*
X148021738Y-28544176D01*
X148075449Y-28607063D01*
X148180241Y-28729759D01*
X148270848Y-28807144D01*
X148342766Y-28868569D01*
X148380959Y-28927076D01*
X148381457Y-28996944D01*
X148361188Y-29037586D01*
X148297633Y-29121746D01*
X148202596Y-29312605D01*
X148202596Y-29312607D01*
X148199658Y-29322933D01*
X148162376Y-29382025D01*
X148099065Y-29411580D01*
X148029826Y-29402215D01*
X148000687Y-29383983D01*
X147998354Y-29382025D01*
X147969587Y-29357886D01*
X147965601Y-29354233D01*
X147959781Y-29348413D01*
X147959777Y-29348409D01*
X147934040Y-29328059D01*
X147875214Y-29278698D01*
X147875213Y-29278697D01*
X147875209Y-29278694D01*
X147869180Y-29274729D01*
X147869212Y-29274680D01*
X147862853Y-29270628D01*
X147862822Y-29270679D01*
X147856680Y-29266891D01*
X147856678Y-29266890D01*
X147856677Y-29266889D01*
X147817474Y-29248608D01*
X147787058Y-29234424D01*
X147752894Y-29217267D01*
X147718433Y-29199960D01*
X147718431Y-29199959D01*
X147718430Y-29199959D01*
X147711645Y-29197489D01*
X147711665Y-29197433D01*
X147704549Y-29194959D01*
X147704531Y-29195015D01*
X147697671Y-29192742D01*
X147669841Y-29186996D01*
X147622434Y-29177207D01*
X147573472Y-29165603D01*
X147547719Y-29159499D01*
X147540547Y-29158661D01*
X147540553Y-29158601D01*
X147533055Y-29157835D01*
X147533050Y-29157895D01*
X147525860Y-29157265D01*
X147449083Y-29159500D01*
X142439230Y-29159500D01*
X142372191Y-29139815D01*
X142326436Y-29087011D01*
X142316492Y-29017853D01*
X142345517Y-28954297D01*
X142351548Y-28947819D01*
X142422548Y-28876818D01*
X142483871Y-28843333D01*
X142510230Y-28840499D01*
X143645871Y-28840499D01*
X143645872Y-28840499D01*
X143705483Y-28834091D01*
X143840331Y-28783796D01*
X143955546Y-28697546D01*
X144041796Y-28582331D01*
X144092091Y-28447483D01*
X144098500Y-28387873D01*
X144098499Y-26592128D01*
X144092091Y-26532517D01*
X144090810Y-26529083D01*
X144041797Y-26397671D01*
X144041793Y-26397664D01*
X143955547Y-26282455D01*
X143955544Y-26282452D01*
X143840335Y-26196206D01*
X143840328Y-26196202D01*
X143705482Y-26145908D01*
X143705483Y-26145908D01*
X143645883Y-26139501D01*
X143645881Y-26139500D01*
X143645873Y-26139500D01*
X143645864Y-26139500D01*
X141850129Y-26139500D01*
X141850123Y-26139501D01*
X141790516Y-26145908D01*
X141655671Y-26196202D01*
X141655664Y-26196206D01*
X141540455Y-26282452D01*
X141540452Y-26282455D01*
X141454206Y-26397664D01*
X141454203Y-26397669D01*
X141405189Y-26529083D01*
X141363317Y-26585016D01*
X141297853Y-26609433D01*
X141229580Y-26594581D01*
X141201326Y-26573430D01*
X141079402Y-26451506D01*
X141079395Y-26451501D01*
X140885834Y-26315967D01*
X140885830Y-26315965D01*
X140828010Y-26289003D01*
X140671663Y-26216097D01*
X140671659Y-26216096D01*
X140671655Y-26216094D01*
X140443413Y-26154938D01*
X140443403Y-26154936D01*
X140208001Y-26134341D01*
X140207999Y-26134341D01*
X139972596Y-26154936D01*
X139972586Y-26154938D01*
X139744344Y-26216094D01*
X139744335Y-26216098D01*
X139530171Y-26315964D01*
X139530169Y-26315965D01*
X139336597Y-26451505D01*
X139169505Y-26618597D01*
X139033965Y-26812169D01*
X139033964Y-26812171D01*
X138934098Y-27026335D01*
X138934094Y-27026344D01*
X138872938Y-27254586D01*
X138872936Y-27254596D01*
X138852341Y-27489999D01*
X138852341Y-27490000D01*
X138872936Y-27725403D01*
X138872938Y-27725413D01*
X138934094Y-27953655D01*
X138934096Y-27953659D01*
X138934097Y-27953663D01*
X138968304Y-28027019D01*
X139016649Y-28130695D01*
X139027141Y-28199773D01*
X138998621Y-28263557D01*
X138940145Y-28301796D01*
X138904267Y-28307100D01*
X133525318Y-28307100D01*
X133458279Y-28287415D01*
X133418586Y-28246220D01*
X133353710Y-28136519D01*
X133355528Y-28135443D01*
X133333981Y-28080568D01*
X133347659Y-28012050D01*
X133396209Y-27961804D01*
X133457495Y-27945600D01*
X133855296Y-27945600D01*
X133873731Y-27944149D01*
X133892169Y-27942698D01*
X133892171Y-27942697D01*
X133892173Y-27942697D01*
X133974484Y-27918783D01*
X134049998Y-27896844D01*
X134191465Y-27813181D01*
X134307681Y-27696965D01*
X134391344Y-27555498D01*
X134391345Y-27555495D01*
X134415457Y-27472504D01*
X134453064Y-27413619D01*
X134516536Y-27384413D01*
X134534533Y-27383100D01*
X134717972Y-27383100D01*
X134726070Y-27383630D01*
X134761400Y-27388282D01*
X134761401Y-27388282D01*
X134813654Y-27381402D01*
X134918162Y-27367644D01*
X135064241Y-27307136D01*
X135189682Y-27210882D01*
X135211383Y-27182599D01*
X135216711Y-27176522D01*
X135273535Y-27119698D01*
X135334856Y-27086215D01*
X135347311Y-27084163D01*
X135434255Y-27074368D01*
X135604522Y-27014789D01*
X135757262Y-26918816D01*
X135884816Y-26791262D01*
X135980789Y-26638522D01*
X136040368Y-26468255D01*
X136042255Y-26451506D01*
X136060565Y-26289003D01*
X136060565Y-26288996D01*
X136040369Y-26109750D01*
X136040368Y-26109745D01*
X135980788Y-25939475D01*
X135920779Y-25843973D01*
X135901778Y-25776736D01*
X135922145Y-25709901D01*
X135975413Y-25664686D01*
X136025772Y-25654000D01*
X151768478Y-25654000D01*
X151835517Y-25673685D01*
G37*
%TD.AperFunction*%
%TA.AperFunction,Conductor*%
G36*
X143923834Y-50775506D02*
G01*
X143979768Y-50817378D01*
X144004184Y-50882843D01*
X144004500Y-50891688D01*
X144004500Y-51056140D01*
X143984815Y-51123179D01*
X143932011Y-51168934D01*
X143862853Y-51178878D01*
X143805014Y-51154516D01*
X143711962Y-51083115D01*
X143670759Y-51026687D01*
X143666604Y-50956941D01*
X143699764Y-50897061D01*
X143792821Y-50804004D01*
X143854143Y-50770522D01*
X143923834Y-50775506D01*
G37*
%TD.AperFunction*%
%TA.AperFunction,Conductor*%
G36*
X134608294Y-47164384D02*
G01*
X134636796Y-47172665D01*
X134645801Y-47173373D01*
X134672816Y-47175500D01*
X134672817Y-47175500D01*
X134672818Y-47175499D01*
X134672819Y-47175500D01*
X134791902Y-47175499D01*
X134858941Y-47195183D01*
X134879583Y-47211818D01*
X136038669Y-48370904D01*
X136044020Y-48377005D01*
X136065718Y-48405282D01*
X136148546Y-48468838D01*
X136191159Y-48501536D01*
X136337238Y-48562044D01*
X136415619Y-48572363D01*
X136493999Y-48582682D01*
X136494000Y-48582682D01*
X136529329Y-48578030D01*
X136537428Y-48577500D01*
X137751500Y-48577500D01*
X137818539Y-48597185D01*
X137864294Y-48649989D01*
X137875500Y-48701500D01*
X137875500Y-48722500D01*
X137855815Y-48789539D01*
X137803011Y-48835294D01*
X137751500Y-48846500D01*
X137562308Y-48846500D01*
X137526008Y-48849356D01*
X137526002Y-48849357D01*
X137370608Y-48894504D01*
X137370602Y-48894506D01*
X137350120Y-48906620D01*
X137282396Y-48923801D01*
X137223880Y-48906620D01*
X137203397Y-48894506D01*
X137203391Y-48894504D01*
X137047997Y-48849357D01*
X137047991Y-48849356D01*
X137011692Y-48846500D01*
X137011690Y-48846500D01*
X136602310Y-48846500D01*
X136602308Y-48846500D01*
X136566008Y-48849356D01*
X136566002Y-48849357D01*
X136410609Y-48894504D01*
X136410602Y-48894507D01*
X136294596Y-48963112D01*
X136226872Y-48980295D01*
X136160610Y-48958135D01*
X136143795Y-48944061D01*
X136038603Y-48838869D01*
X136038595Y-48838863D01*
X135900391Y-48757130D01*
X135900385Y-48757127D01*
X135890956Y-48754388D01*
X135837873Y-48722994D01*
X134486021Y-47371142D01*
X134452536Y-47309819D01*
X134457520Y-47240127D01*
X134499392Y-47184194D01*
X134564856Y-47159777D01*
X134608294Y-47164384D01*
G37*
%TD.AperFunction*%
%TA.AperFunction,Conductor*%
G36*
X144464703Y-47194884D02*
G01*
X144471181Y-47200916D01*
X144641569Y-47371304D01*
X144646920Y-47377405D01*
X144668618Y-47405682D01*
X144730049Y-47452819D01*
X144762218Y-47477504D01*
X144773291Y-47486000D01*
X144794059Y-47501936D01*
X144794061Y-47501936D01*
X144794063Y-47501938D01*
X144867098Y-47532190D01*
X144940138Y-47562444D01*
X145018519Y-47572763D01*
X145096899Y-47583082D01*
X145096900Y-47583082D01*
X145132229Y-47578430D01*
X145140328Y-47577900D01*
X145467900Y-47577900D01*
X145534939Y-47597585D01*
X145580694Y-47650389D01*
X145591900Y-47701900D01*
X145591900Y-48325503D01*
X145572215Y-48392542D01*
X145555581Y-48413184D01*
X145202584Y-48766181D01*
X145141261Y-48799666D01*
X145114903Y-48802500D01*
X144950500Y-48802500D01*
X144883461Y-48782815D01*
X144837706Y-48730011D01*
X144826500Y-48678500D01*
X144826500Y-48279308D01*
X144823643Y-48243008D01*
X144823642Y-48243002D01*
X144778495Y-48087609D01*
X144778494Y-48087606D01*
X144778494Y-48087605D01*
X144696117Y-47948313D01*
X144696115Y-47948311D01*
X144696112Y-47948307D01*
X144581692Y-47833887D01*
X144581684Y-47833881D01*
X144443548Y-47752188D01*
X144442395Y-47751506D01*
X144442394Y-47751505D01*
X144442393Y-47751505D01*
X144442391Y-47751504D01*
X144348904Y-47724343D01*
X144290019Y-47686736D01*
X144260813Y-47623263D01*
X144259500Y-47605267D01*
X144259500Y-47288597D01*
X144279185Y-47221558D01*
X144331989Y-47175803D01*
X144401147Y-47165859D01*
X144464703Y-47194884D01*
G37*
%TD.AperFunction*%
%TA.AperFunction,Conductor*%
G36*
X140081493Y-41682649D02*
G01*
X140081531Y-41682414D01*
X140083439Y-41682716D01*
X140086432Y-41682819D01*
X140089236Y-41683633D01*
X140089239Y-41683635D01*
X140137237Y-41691237D01*
X140142906Y-41692411D01*
X140189989Y-41704500D01*
X140211217Y-41704500D01*
X140230614Y-41706026D01*
X140251569Y-41709345D01*
X140251570Y-41709346D01*
X140251570Y-41709345D01*
X140251571Y-41709346D01*
X140299927Y-41704775D01*
X140305765Y-41704500D01*
X142161500Y-41704500D01*
X142228539Y-41724185D01*
X142274294Y-41776989D01*
X142285500Y-41828500D01*
X142285500Y-43638862D01*
X142284969Y-43646964D01*
X142280318Y-43682290D01*
X142280318Y-43682291D01*
X142290818Y-43762044D01*
X142300955Y-43839051D01*
X142300956Y-43839053D01*
X142341396Y-43936685D01*
X142361464Y-43985132D01*
X142457718Y-44110573D01*
X142485995Y-44132271D01*
X142492085Y-44137611D01*
X142634168Y-44279694D01*
X142653291Y-44298817D01*
X142686776Y-44360140D01*
X142681792Y-44429832D01*
X142653292Y-44474179D01*
X142589091Y-44538380D01*
X142582989Y-44543732D01*
X142554720Y-44565424D01*
X142520886Y-44609518D01*
X142472541Y-44672523D01*
X142466926Y-44679840D01*
X142458463Y-44690869D01*
X142397956Y-44836946D01*
X142397955Y-44836948D01*
X142377318Y-44993707D01*
X142377318Y-44993708D01*
X142381969Y-45029035D01*
X142382500Y-45037137D01*
X142382500Y-45386862D01*
X142381969Y-45394960D01*
X142377318Y-45430291D01*
X142396197Y-45573690D01*
X142397308Y-45582129D01*
X142397956Y-45587054D01*
X142449971Y-45712628D01*
X142458464Y-45733132D01*
X142554718Y-45858573D01*
X142582995Y-45880271D01*
X142589085Y-45885611D01*
X142681683Y-45978209D01*
X142715168Y-46039532D01*
X142717222Y-46052005D01*
X142724631Y-46117755D01*
X142726180Y-46124540D01*
X142724856Y-46124842D01*
X142728033Y-46187078D01*
X142693304Y-46247705D01*
X142631310Y-46279932D01*
X142592647Y-46281368D01*
X142552102Y-46276500D01*
X142365898Y-46276500D01*
X142325352Y-46281369D01*
X142273783Y-46287561D01*
X142244217Y-46287561D01*
X142192648Y-46281369D01*
X142152102Y-46276500D01*
X141965898Y-46276500D01*
X141925352Y-46281369D01*
X141873783Y-46287561D01*
X141844217Y-46287561D01*
X141792648Y-46281369D01*
X141752102Y-46276500D01*
X141565898Y-46276500D01*
X141525352Y-46281369D01*
X141473783Y-46287561D01*
X141444217Y-46287561D01*
X141392648Y-46281369D01*
X141352102Y-46276500D01*
X141165898Y-46276500D01*
X141125352Y-46281369D01*
X141073783Y-46287561D01*
X141044217Y-46287561D01*
X140992648Y-46281369D01*
X140952102Y-46276500D01*
X140765898Y-46276500D01*
X140725352Y-46281369D01*
X140673783Y-46287561D01*
X140644217Y-46287561D01*
X140592648Y-46281369D01*
X140552102Y-46276500D01*
X140365898Y-46276500D01*
X140325352Y-46281369D01*
X140273783Y-46287561D01*
X140244217Y-46287561D01*
X140192648Y-46281369D01*
X140152102Y-46276500D01*
X139965898Y-46276500D01*
X139925352Y-46281369D01*
X139873783Y-46287561D01*
X139844217Y-46287561D01*
X139792648Y-46281369D01*
X139752102Y-46276500D01*
X139565898Y-46276500D01*
X139525352Y-46281369D01*
X139473783Y-46287561D01*
X139444217Y-46287561D01*
X139392648Y-46281369D01*
X139352102Y-46276500D01*
X139165898Y-46276500D01*
X139125352Y-46281369D01*
X139073783Y-46287561D01*
X139044217Y-46287561D01*
X138992648Y-46281369D01*
X138952102Y-46276500D01*
X138765898Y-46276500D01*
X138731881Y-46280585D01*
X138688049Y-46285848D01*
X138619141Y-46274296D01*
X138567417Y-46227323D01*
X138549300Y-46159843D01*
X138550149Y-46147967D01*
X138559500Y-46070102D01*
X138559500Y-45883898D01*
X138548877Y-45795436D01*
X138548876Y-45795434D01*
X138548438Y-45791785D01*
X138548438Y-45762215D01*
X138548876Y-45758565D01*
X138548877Y-45758564D01*
X138559500Y-45670102D01*
X138559500Y-45483898D01*
X138548877Y-45395436D01*
X138548876Y-45395434D01*
X138548438Y-45391785D01*
X138548438Y-45362215D01*
X138548876Y-45358565D01*
X138548877Y-45358564D01*
X138559500Y-45270102D01*
X138559500Y-45252565D01*
X138579185Y-45185526D01*
X138631989Y-45139771D01*
X138677148Y-45129946D01*
X138677081Y-45129345D01*
X138682958Y-45128682D01*
X138683500Y-45128565D01*
X138684004Y-45128565D01*
X138863249Y-45108369D01*
X138863252Y-45108368D01*
X138863255Y-45108368D01*
X139033522Y-45048789D01*
X139186262Y-44952816D01*
X139313816Y-44825262D01*
X139409789Y-44672522D01*
X139469368Y-44502255D01*
X139470176Y-44495084D01*
X139489565Y-44323003D01*
X139489565Y-44322996D01*
X139469369Y-44143750D01*
X139469368Y-44143745D01*
X139409788Y-43973476D01*
X139350868Y-43879705D01*
X139331868Y-43812468D01*
X139352236Y-43745633D01*
X139368176Y-43726057D01*
X139585922Y-43508311D01*
X139591999Y-43502983D01*
X139620282Y-43481282D01*
X139716536Y-43355841D01*
X139777044Y-43209762D01*
X139792500Y-43092361D01*
X139797682Y-43053000D01*
X139793030Y-43017669D01*
X139792500Y-43009571D01*
X139792500Y-41937220D01*
X139812185Y-41870181D01*
X139828810Y-41849548D01*
X139964149Y-41714208D01*
X140025468Y-41680726D01*
X140081493Y-41682649D01*
G37*
%TD.AperFunction*%
%TA.AperFunction,Conductor*%
G36*
X134577540Y-45340585D02*
G01*
X134623295Y-45393389D01*
X134633239Y-45462547D01*
X134604214Y-45526103D01*
X134545436Y-45563877D01*
X134545096Y-45563976D01*
X134482611Y-45582129D01*
X134482606Y-45582131D01*
X134344404Y-45663863D01*
X134344400Y-45663866D01*
X134317865Y-45690402D01*
X134290084Y-45718182D01*
X134228764Y-45751666D01*
X134202405Y-45754500D01*
X133904097Y-45754500D01*
X133837058Y-45734815D01*
X133816416Y-45718181D01*
X133651916Y-45553681D01*
X133618431Y-45492358D01*
X133623415Y-45422666D01*
X133651916Y-45378319D01*
X133673016Y-45357219D01*
X133734339Y-45323734D01*
X133760697Y-45320900D01*
X134510501Y-45320900D01*
X134577540Y-45340585D01*
G37*
%TD.AperFunction*%
%TA.AperFunction,Conductor*%
G36*
X147456701Y-37299528D02*
G01*
X147463180Y-37305560D01*
X148334665Y-38177045D01*
X148368150Y-38238368D01*
X148370273Y-38277977D01*
X148368001Y-38299123D01*
X148368000Y-38299130D01*
X148368000Y-38694869D01*
X148368001Y-38694878D01*
X148372179Y-38733745D01*
X148372179Y-38760250D01*
X148368000Y-38799122D01*
X148368000Y-39194869D01*
X148368001Y-39194878D01*
X148372179Y-39233745D01*
X148372179Y-39260250D01*
X148368000Y-39299122D01*
X148368000Y-39694869D01*
X148368001Y-39694878D01*
X148372179Y-39733745D01*
X148372179Y-39760251D01*
X148368000Y-39799123D01*
X148368000Y-39932257D01*
X148348315Y-39999296D01*
X148331681Y-40019938D01*
X147815439Y-40536181D01*
X147754116Y-40569666D01*
X147727758Y-40572500D01*
X146645862Y-40572500D01*
X146637758Y-40571967D01*
X146633163Y-40571362D01*
X146631274Y-40571113D01*
X146567387Y-40542825D01*
X146528935Y-40484488D01*
X146523500Y-40448179D01*
X146523500Y-40271499D01*
X146543185Y-40204460D01*
X146595989Y-40158705D01*
X146647500Y-40147499D01*
X147016371Y-40147499D01*
X147016372Y-40147499D01*
X147075983Y-40141091D01*
X147210831Y-40090796D01*
X147326046Y-40004546D01*
X147412296Y-39889331D01*
X147462591Y-39754483D01*
X147469000Y-39694873D01*
X147468999Y-39299128D01*
X147468999Y-39299127D01*
X147468998Y-39299111D01*
X147464820Y-39260253D01*
X147464820Y-39233745D01*
X147469000Y-39194873D01*
X147468999Y-38799128D01*
X147468999Y-38799127D01*
X147468998Y-38799111D01*
X147464820Y-38760253D01*
X147464820Y-38733745D01*
X147469000Y-38694873D01*
X147468999Y-38299128D01*
X147462591Y-38239517D01*
X147462162Y-38238368D01*
X147412297Y-38104671D01*
X147412293Y-38104664D01*
X147336656Y-38003627D01*
X147326046Y-37989454D01*
X147326044Y-37989452D01*
X147326042Y-37989450D01*
X147293688Y-37965230D01*
X147251818Y-37909296D01*
X147244000Y-37865964D01*
X147244000Y-37619287D01*
X147244531Y-37611185D01*
X147246375Y-37597184D01*
X147248966Y-37577500D01*
X147248966Y-37577499D01*
X147248966Y-37573820D01*
X147249157Y-37568954D01*
X147249820Y-37560522D01*
X147251500Y-37539181D01*
X147251499Y-37393239D01*
X147271183Y-37326202D01*
X147323987Y-37280447D01*
X147393145Y-37270503D01*
X147456701Y-37299528D01*
G37*
%TD.AperFunction*%
%TA.AperFunction,Conductor*%
G36*
X141824539Y-32139185D02*
G01*
X141870294Y-32191989D01*
X141881500Y-32243500D01*
X141881500Y-33095696D01*
X141884401Y-33132567D01*
X141884402Y-33132573D01*
X141930254Y-33290393D01*
X141930255Y-33290396D01*
X142013917Y-33431862D01*
X142013923Y-33431870D01*
X142130129Y-33548076D01*
X142130140Y-33548085D01*
X142130455Y-33548271D01*
X142130650Y-33548480D01*
X142136298Y-33552861D01*
X142135591Y-33553772D01*
X142178136Y-33599343D01*
X142190637Y-33668085D01*
X142163988Y-33732673D01*
X142136078Y-33756856D01*
X142136298Y-33757139D01*
X142131092Y-33761176D01*
X142130455Y-33761729D01*
X142130140Y-33761914D01*
X142130129Y-33761923D01*
X142013923Y-33878129D01*
X142013917Y-33878137D01*
X141930255Y-34019603D01*
X141930254Y-34019606D01*
X141884402Y-34177426D01*
X141884401Y-34177432D01*
X141881500Y-34214304D01*
X141881500Y-35370696D01*
X141884401Y-35407567D01*
X141884402Y-35407573D01*
X141930254Y-35565393D01*
X141930255Y-35565396D01*
X141930256Y-35565398D01*
X141999728Y-35682869D01*
X142014232Y-35707394D01*
X142031500Y-35770515D01*
X142031500Y-37468494D01*
X142029732Y-37484505D01*
X142029974Y-37484528D01*
X142029240Y-37492294D01*
X142031500Y-37564203D01*
X142031500Y-37594920D01*
X142031501Y-37594940D01*
X142032418Y-37602206D01*
X142032876Y-37608024D01*
X142034402Y-37656567D01*
X142034403Y-37656570D01*
X142040323Y-37676948D01*
X142044268Y-37695996D01*
X142046928Y-37717054D01*
X142046931Y-37717064D01*
X142064813Y-37762230D01*
X142066705Y-37767758D01*
X142080254Y-37814395D01*
X142080255Y-37814397D01*
X142091060Y-37832666D01*
X142099617Y-37850134D01*
X142105226Y-37864300D01*
X142107432Y-37869872D01*
X142135983Y-37909170D01*
X142139188Y-37914049D01*
X142163919Y-37955865D01*
X142163923Y-37955869D01*
X142178925Y-37970871D01*
X142191563Y-37985669D01*
X142204033Y-38002833D01*
X142204036Y-38002836D01*
X142204037Y-38002837D01*
X142241476Y-38033809D01*
X142245776Y-38037722D01*
X142599204Y-38391150D01*
X142919181Y-38711127D01*
X142952666Y-38772450D01*
X142955500Y-38798808D01*
X142955500Y-38842692D01*
X142958356Y-38878991D01*
X142958357Y-38878997D01*
X142971090Y-38922822D01*
X142970891Y-38992692D01*
X142932949Y-39051362D01*
X142869310Y-39080205D01*
X142800180Y-39070064D01*
X142764333Y-39045098D01*
X140865319Y-37146084D01*
X140831834Y-37084761D01*
X140829000Y-37058403D01*
X140829000Y-36650412D01*
X140848685Y-36583373D01*
X140856055Y-36573097D01*
X140858310Y-36570267D01*
X140858316Y-36570262D01*
X140954289Y-36417522D01*
X141013868Y-36247255D01*
X141034065Y-36068000D01*
X141033187Y-36060212D01*
X141045239Y-35991394D01*
X141092586Y-35940012D01*
X141121805Y-35927253D01*
X141192398Y-35906744D01*
X141333865Y-35823081D01*
X141450081Y-35706865D01*
X141533744Y-35565398D01*
X141579598Y-35407569D01*
X141582500Y-35370694D01*
X141582500Y-34214306D01*
X141579598Y-34177431D01*
X141574205Y-34158869D01*
X141533745Y-34019606D01*
X141533744Y-34019603D01*
X141533744Y-34019602D01*
X141450081Y-33878135D01*
X141450079Y-33878133D01*
X141450076Y-33878129D01*
X141333870Y-33761923D01*
X141333867Y-33761921D01*
X141333865Y-33761919D01*
X141333549Y-33761732D01*
X141333353Y-33761522D01*
X141327702Y-33757139D01*
X141328409Y-33756227D01*
X141285866Y-33710664D01*
X141273362Y-33641923D01*
X141300006Y-33577333D01*
X141327921Y-33553144D01*
X141327702Y-33552861D01*
X141332911Y-33548820D01*
X141333550Y-33548267D01*
X141333865Y-33548081D01*
X141450081Y-33431865D01*
X141533744Y-33290398D01*
X141579598Y-33132569D01*
X141582500Y-33095694D01*
X141582500Y-32243500D01*
X141602185Y-32176461D01*
X141654989Y-32130706D01*
X141706500Y-32119500D01*
X141757500Y-32119500D01*
X141824539Y-32139185D01*
G37*
%TD.AperFunction*%
%TA.AperFunction,Conductor*%
G36*
X146516809Y-32032185D02*
G01*
X146537451Y-32048819D01*
X148091386Y-33602754D01*
X148124871Y-33664077D01*
X148127176Y-33701872D01*
X148124571Y-33729994D01*
X148124571Y-33729999D01*
X148124571Y-33730000D01*
X148144244Y-33942310D01*
X148180436Y-34069511D01*
X148202596Y-34147392D01*
X148202596Y-34147394D01*
X148297633Y-34338253D01*
X148297634Y-34338255D01*
X148329501Y-34380454D01*
X148361188Y-34422414D01*
X148385880Y-34487775D01*
X148371315Y-34556110D01*
X148342766Y-34591431D01*
X148180241Y-34730241D01*
X148021738Y-34915823D01*
X148021737Y-34915826D01*
X147894222Y-35123910D01*
X147800830Y-35349380D01*
X147800828Y-35349387D01*
X147800828Y-35349388D01*
X147781230Y-35431020D01*
X147743853Y-35586702D01*
X147737832Y-35663202D01*
X147712947Y-35728490D01*
X147656716Y-35769961D01*
X147586990Y-35774447D01*
X147526533Y-35741153D01*
X145851489Y-34066109D01*
X145846136Y-34060006D01*
X145840449Y-34052595D01*
X145825451Y-34033049D01*
X145798490Y-34012361D01*
X145792400Y-34007020D01*
X145622989Y-33837609D01*
X145617636Y-33831506D01*
X145614986Y-33828053D01*
X145596951Y-33804549D01*
X145596949Y-33804547D01*
X145596948Y-33804546D01*
X145568463Y-33782689D01*
X145568452Y-33782680D01*
X145476734Y-33712302D01*
X145439595Y-33696919D01*
X145336736Y-33654313D01*
X145319593Y-33652056D01*
X145263744Y-33644703D01*
X145199847Y-33616436D01*
X145192248Y-33609444D01*
X145147692Y-33564887D01*
X145147684Y-33564881D01*
X145008393Y-33482505D01*
X145008390Y-33482504D01*
X144852997Y-33437357D01*
X144852991Y-33437356D01*
X144816692Y-33434500D01*
X144816690Y-33434500D01*
X144347310Y-33434500D01*
X144347308Y-33434500D01*
X144311008Y-33437356D01*
X144311002Y-33437357D01*
X144155609Y-33482504D01*
X144155606Y-33482505D01*
X144016315Y-33564881D01*
X144016307Y-33564887D01*
X143901887Y-33679307D01*
X143901881Y-33679315D01*
X143819505Y-33818606D01*
X143819504Y-33818609D01*
X143774357Y-33974002D01*
X143774356Y-33974008D01*
X143771500Y-34010308D01*
X143771500Y-34018000D01*
X143751815Y-34085039D01*
X143699011Y-34130794D01*
X143647500Y-34142000D01*
X143562406Y-34142000D01*
X143495367Y-34122315D01*
X143449612Y-34069511D01*
X143443330Y-34052595D01*
X143433745Y-34019606D01*
X143433744Y-34019603D01*
X143433744Y-34019602D01*
X143350081Y-33878135D01*
X143350079Y-33878133D01*
X143350076Y-33878129D01*
X143233870Y-33761923D01*
X143233867Y-33761921D01*
X143233865Y-33761919D01*
X143233549Y-33761732D01*
X143233353Y-33761522D01*
X143227702Y-33757139D01*
X143228409Y-33756227D01*
X143185866Y-33710664D01*
X143173362Y-33641923D01*
X143200006Y-33577333D01*
X143227921Y-33553144D01*
X143227702Y-33552861D01*
X143232911Y-33548820D01*
X143233550Y-33548267D01*
X143233865Y-33548081D01*
X143350081Y-33431865D01*
X143433744Y-33290398D01*
X143479598Y-33132569D01*
X143482500Y-33095694D01*
X143482500Y-32829729D01*
X143502185Y-32762690D01*
X143518819Y-32742048D01*
X143849155Y-32411712D01*
X144195887Y-32064979D01*
X144257208Y-32031496D01*
X144318162Y-32033586D01*
X144339007Y-32039643D01*
X144351108Y-32040595D01*
X144375308Y-32042500D01*
X144375310Y-32042500D01*
X144844692Y-32042500D01*
X144862841Y-32041071D01*
X144880993Y-32039643D01*
X144957471Y-32017423D01*
X144992066Y-32012500D01*
X146449770Y-32012500D01*
X146516809Y-32032185D01*
G37*
%TD.AperFunction*%
%TA.AperFunction,Conductor*%
G36*
X139057743Y-32117561D02*
G01*
X139096115Y-32175950D01*
X139101500Y-32212097D01*
X139101500Y-33942514D01*
X139081815Y-34009553D01*
X139029011Y-34055308D01*
X138959853Y-34065252D01*
X138942906Y-34061591D01*
X138842202Y-34032334D01*
X138806183Y-34029500D01*
X138806181Y-34029500D01*
X138473940Y-34029500D01*
X138307819Y-34029501D01*
X138271794Y-34032335D01*
X138117611Y-34077129D01*
X138117606Y-34077131D01*
X137979404Y-34158863D01*
X137979396Y-34158869D01*
X137975085Y-34163181D01*
X137913762Y-34196666D01*
X137887404Y-34199500D01*
X137864111Y-34199500D01*
X137797072Y-34179815D01*
X137751317Y-34127011D01*
X137745038Y-34110106D01*
X137718744Y-34019602D01*
X137635081Y-33878135D01*
X137635079Y-33878133D01*
X137635076Y-33878129D01*
X137518870Y-33761923D01*
X137518867Y-33761921D01*
X137518865Y-33761919D01*
X137518549Y-33761732D01*
X137518353Y-33761522D01*
X137512702Y-33757139D01*
X137513409Y-33756227D01*
X137470866Y-33710664D01*
X137458362Y-33641923D01*
X137485006Y-33577333D01*
X137512921Y-33553144D01*
X137512702Y-33552861D01*
X137517911Y-33548820D01*
X137518550Y-33548267D01*
X137518865Y-33548081D01*
X137635081Y-33431865D01*
X137718744Y-33290398D01*
X137764598Y-33132569D01*
X137767500Y-33095694D01*
X137767500Y-32629913D01*
X137787185Y-32562874D01*
X137839989Y-32517119D01*
X137909147Y-32507175D01*
X137932453Y-32512871D01*
X137951091Y-32519392D01*
X137996740Y-32535367D01*
X137996750Y-32535369D01*
X138175996Y-32555565D01*
X138176000Y-32555565D01*
X138176004Y-32555565D01*
X138355249Y-32535369D01*
X138355252Y-32535368D01*
X138355255Y-32535368D01*
X138525522Y-32475789D01*
X138678262Y-32379816D01*
X138805816Y-32252262D01*
X138872506Y-32146124D01*
X138924841Y-32099834D01*
X138993894Y-32089186D01*
X139057743Y-32117561D01*
G37*
%TD.AperFunction*%
%TA.AperFunction,Conductor*%
G36*
X136192786Y-31496092D02*
G01*
X136248719Y-31537964D01*
X136273136Y-31603428D01*
X136258284Y-31671701D01*
X136256185Y-31675394D01*
X136215254Y-31744605D01*
X136215254Y-31744606D01*
X136169402Y-31902426D01*
X136169401Y-31902432D01*
X136166500Y-31939304D01*
X136166500Y-32682500D01*
X136146815Y-32749539D01*
X136094011Y-32795294D01*
X136042500Y-32806500D01*
X135991500Y-32806500D01*
X135924461Y-32786815D01*
X135878706Y-32734011D01*
X135867500Y-32682500D01*
X135867500Y-31939304D01*
X135864598Y-31902432D01*
X135864598Y-31902431D01*
X135844385Y-31832858D01*
X135844584Y-31762992D01*
X135875777Y-31710588D01*
X136061773Y-31524591D01*
X136123094Y-31491108D01*
X136192786Y-31496092D01*
G37*
%TD.AperFunction*%
%TA.AperFunction,Conductor*%
G36*
X134958772Y-29827785D02*
G01*
X135004527Y-29880589D01*
X135014471Y-29949747D01*
X134985446Y-30013303D01*
X134979414Y-30019781D01*
X134957887Y-30041307D01*
X134957881Y-30041315D01*
X134875505Y-30180606D01*
X134875504Y-30180609D01*
X134830357Y-30336002D01*
X134830356Y-30336008D01*
X134827500Y-30372308D01*
X134827500Y-30584768D01*
X134807815Y-30651807D01*
X134791181Y-30672449D01*
X134581358Y-30882271D01*
X134567729Y-30894050D01*
X134548468Y-30908389D01*
X134514898Y-30948396D01*
X134511253Y-30952375D01*
X134505409Y-30958221D01*
X134491570Y-30975723D01*
X134485059Y-30983958D01*
X134482300Y-30987245D01*
X134471807Y-30999749D01*
X134413635Y-31038449D01*
X134343774Y-31039555D01*
X134289140Y-31007721D01*
X133386934Y-30105515D01*
X133353449Y-30044192D01*
X133358433Y-29974500D01*
X133367879Y-29954719D01*
X133418587Y-29868977D01*
X133469655Y-29821295D01*
X133525318Y-29808100D01*
X134891733Y-29808100D01*
X134958772Y-29827785D01*
G37*
%TD.AperFunction*%
%TA.AperFunction,Conductor*%
G36*
X130932139Y-28151385D02*
G01*
X130977894Y-28204189D01*
X130989100Y-28255700D01*
X130989100Y-29455842D01*
X130987791Y-29473811D01*
X130984310Y-29497573D01*
X130988864Y-29549612D01*
X130989100Y-29555018D01*
X130989100Y-29563253D01*
X130992906Y-29595820D01*
X130999600Y-29672340D01*
X131001061Y-29679415D01*
X131001003Y-29679426D01*
X131002634Y-29686785D01*
X131002692Y-29686772D01*
X131004357Y-29693798D01*
X131030625Y-29765972D01*
X131054785Y-29838879D01*
X131057836Y-29845422D01*
X131057782Y-29845446D01*
X131061070Y-29852236D01*
X131061121Y-29852211D01*
X131064361Y-29858661D01*
X131064362Y-29858662D01*
X131064363Y-29858665D01*
X131106565Y-29922831D01*
X131146887Y-29988203D01*
X131151366Y-29993867D01*
X131151319Y-29993904D01*
X131156082Y-29999750D01*
X131156128Y-29999712D01*
X131160773Y-30005248D01*
X131216618Y-30057934D01*
X131842503Y-30683819D01*
X131875988Y-30745142D01*
X131871004Y-30814833D01*
X131829133Y-30870767D01*
X131763668Y-30895184D01*
X131754822Y-30895500D01*
X131024395Y-30895500D01*
X130957356Y-30875815D01*
X130936718Y-30859185D01*
X130882398Y-30804865D01*
X130744193Y-30723131D01*
X130744188Y-30723129D01*
X130590008Y-30678335D01*
X130590002Y-30678334D01*
X130553983Y-30675500D01*
X130210096Y-30675500D01*
X130143057Y-30655815D01*
X130097302Y-30603011D01*
X130086876Y-30565383D01*
X130071369Y-30427752D01*
X130071368Y-30427748D01*
X130071368Y-30427745D01*
X130026475Y-30299451D01*
X130022915Y-30229674D01*
X130024431Y-30223941D01*
X130051665Y-30130204D01*
X130054500Y-30094181D01*
X130054499Y-29595820D01*
X130051665Y-29559796D01*
X130006869Y-29405607D01*
X129925135Y-29267402D01*
X129925133Y-29267400D01*
X129925130Y-29267396D01*
X129811603Y-29153869D01*
X129811595Y-29153863D01*
X129673393Y-29072131D01*
X129673388Y-29072129D01*
X129519208Y-29027335D01*
X129519202Y-29027334D01*
X129483183Y-29024500D01*
X129483181Y-29024500D01*
X129217607Y-29024500D01*
X129084819Y-29024501D01*
X129048794Y-29027335D01*
X128894611Y-29072129D01*
X128894608Y-29072130D01*
X128841120Y-29103763D01*
X128773396Y-29120945D01*
X128714880Y-29103763D01*
X128661391Y-29072130D01*
X128661388Y-29072129D01*
X128507208Y-29027335D01*
X128507202Y-29027334D01*
X128471183Y-29024500D01*
X128085095Y-29024500D01*
X128018056Y-29004815D01*
X127972301Y-28952011D01*
X127962357Y-28882853D01*
X127991382Y-28819297D01*
X127997396Y-28812837D01*
X128042217Y-28768016D01*
X128103540Y-28734532D01*
X128129897Y-28731699D01*
X129477671Y-28731699D01*
X129477672Y-28731699D01*
X129537283Y-28725291D01*
X129672131Y-28674996D01*
X129787346Y-28588746D01*
X129873596Y-28473531D01*
X129923891Y-28338683D01*
X129930300Y-28279073D01*
X129930300Y-28255700D01*
X129949985Y-28188661D01*
X130002789Y-28142906D01*
X130054300Y-28131700D01*
X130865100Y-28131700D01*
X130932139Y-28151385D01*
G37*
%TD.AperFunction*%
%TA.AperFunction,Conductor*%
G36*
X131053430Y-25673685D02*
G01*
X131099185Y-25726489D01*
X131109129Y-25795647D01*
X131080104Y-25859203D01*
X131074072Y-25865681D01*
X131071523Y-25868229D01*
X131071517Y-25868237D01*
X130987855Y-26009703D01*
X130987854Y-26009706D01*
X130942002Y-26167526D01*
X130942001Y-26167532D01*
X130939100Y-26204404D01*
X130939100Y-26470370D01*
X130919415Y-26537409D01*
X130902781Y-26558051D01*
X130866451Y-26594381D01*
X130805128Y-26627866D01*
X130778770Y-26630700D01*
X130054299Y-26630700D01*
X129987260Y-26611015D01*
X129941505Y-26558211D01*
X129930299Y-26506700D01*
X129930299Y-26483329D01*
X129930298Y-26483323D01*
X129930297Y-26483316D01*
X129923891Y-26423717D01*
X129914176Y-26397671D01*
X129873597Y-26288871D01*
X129873593Y-26288864D01*
X129787347Y-26173655D01*
X129787344Y-26173652D01*
X129672135Y-26087406D01*
X129672128Y-26087402D01*
X129537282Y-26037108D01*
X129537283Y-26037108D01*
X129477683Y-26030701D01*
X129477681Y-26030700D01*
X129477673Y-26030700D01*
X129477664Y-26030700D01*
X127681929Y-26030700D01*
X127681923Y-26030701D01*
X127622316Y-26037108D01*
X127487471Y-26087402D01*
X127487464Y-26087406D01*
X127372255Y-26173652D01*
X127372252Y-26173655D01*
X127286006Y-26288864D01*
X127286002Y-26288871D01*
X127235708Y-26423717D01*
X127230920Y-26468255D01*
X127229301Y-26483323D01*
X127229300Y-26483335D01*
X127229300Y-27831102D01*
X127209615Y-27898141D01*
X127192981Y-27918783D01*
X126858096Y-28253668D01*
X126851994Y-28259019D01*
X126823716Y-28280718D01*
X126761808Y-28361401D01*
X126727464Y-28406158D01*
X126727461Y-28406163D01*
X126666957Y-28552234D01*
X126666955Y-28552239D01*
X126647826Y-28697544D01*
X126646318Y-28709000D01*
X126649679Y-28734532D01*
X126650969Y-28744326D01*
X126651500Y-28752427D01*
X126651500Y-29175404D01*
X126631815Y-29242443D01*
X126615181Y-29263085D01*
X126610869Y-29267396D01*
X126610863Y-29267404D01*
X126529131Y-29405606D01*
X126529129Y-29405611D01*
X126484335Y-29559791D01*
X126484334Y-29559797D01*
X126481500Y-29595817D01*
X126481500Y-30060863D01*
X126461815Y-30127902D01*
X126409011Y-30173657D01*
X126396505Y-30178569D01*
X126228666Y-30234186D01*
X126228663Y-30234187D01*
X126079342Y-30326289D01*
X125955285Y-30450346D01*
X125953537Y-30453182D01*
X125951829Y-30454717D01*
X125950807Y-30456011D01*
X125950585Y-30455836D01*
X125901589Y-30499905D01*
X125832626Y-30511126D01*
X125768544Y-30483282D01*
X125742463Y-30453182D01*
X125740714Y-30450346D01*
X125616657Y-30326289D01*
X125616656Y-30326288D01*
X125471018Y-30236458D01*
X125467336Y-30234187D01*
X125467331Y-30234185D01*
X125436299Y-30223902D01*
X125300797Y-30179001D01*
X125300795Y-30179000D01*
X125198010Y-30168500D01*
X124447998Y-30168500D01*
X124447980Y-30168501D01*
X124345203Y-30179000D01*
X124345200Y-30179001D01*
X124178660Y-30234188D01*
X124176898Y-30235010D01*
X124175574Y-30235210D01*
X124171811Y-30236458D01*
X124171597Y-30235814D01*
X124107820Y-30245498D01*
X124044038Y-30216974D01*
X124005802Y-30158495D01*
X124000500Y-30122625D01*
X124000500Y-25778000D01*
X124020185Y-25710961D01*
X124072989Y-25665206D01*
X124124500Y-25654000D01*
X130986391Y-25654000D01*
X131053430Y-25673685D01*
G37*
%TD.AperFunction*%
%TD*%
M02*
