%TF.GenerationSoftware,KiCad,Pcbnew,7.0.9*%
%TF.CreationDate,2024-08-20T21:59:07+03:00*%
%TF.ProjectId,LED-HeadBand,4c45442d-4865-4616-9442-616e642e6b69,rev?*%
%TF.SameCoordinates,Original*%
%TF.FileFunction,Soldermask,Top*%
%TF.FilePolarity,Negative*%
%FSLAX46Y46*%
G04 Gerber Fmt 4.6, Leading zero omitted, Abs format (unit mm)*
G04 Created by KiCad (PCBNEW 7.0.9) date 2024-08-20 21:59:07*
%MOMM*%
%LPD*%
G01*
G04 APERTURE LIST*
G04 Aperture macros list*
%AMRoundRect*
0 Rectangle with rounded corners*
0 $1 Rounding radius*
0 $2 $3 $4 $5 $6 $7 $8 $9 X,Y pos of 4 corners*
0 Add a 4 corners polygon primitive as box body*
4,1,4,$2,$3,$4,$5,$6,$7,$8,$9,$2,$3,0*
0 Add four circle primitives for the rounded corners*
1,1,$1+$1,$2,$3*
1,1,$1+$1,$4,$5*
1,1,$1+$1,$6,$7*
1,1,$1+$1,$8,$9*
0 Add four rect primitives between the rounded corners*
20,1,$1+$1,$2,$3,$4,$5,0*
20,1,$1+$1,$4,$5,$6,$7,0*
20,1,$1+$1,$6,$7,$8,$9,0*
20,1,$1+$1,$8,$9,$2,$3,0*%
%AMFreePoly0*
4,1,6,1.000000,0.000000,0.500000,-0.750000,-0.500000,-0.750000,-0.500000,0.750000,0.500000,0.750000,1.000000,0.000000,1.000000,0.000000,$1*%
%AMFreePoly1*
4,1,6,0.500000,-0.750000,-0.650000,-0.750000,-0.150000,0.000000,-0.650000,0.750000,0.500000,0.750000,0.500000,-0.750000,0.500000,-0.750000,$1*%
G04 Aperture macros list end*
%ADD10C,0.700025*%
%ADD11O,2.000000X1.000000*%
%ADD12O,1.800000X1.000000*%
%ADD13R,1.300000X0.300000*%
%ADD14FreePoly0,180.000000*%
%ADD15FreePoly1,180.000000*%
%ADD16RoundRect,0.250000X-0.337500X-0.475000X0.337500X-0.475000X0.337500X0.475000X-0.337500X0.475000X0*%
%ADD17RoundRect,0.250000X-0.450000X0.350000X-0.450000X-0.350000X0.450000X-0.350000X0.450000X0.350000X0*%
%ADD18RoundRect,0.250000X0.450000X-0.350000X0.450000X0.350000X-0.450000X0.350000X-0.450000X-0.350000X0*%
%ADD19RoundRect,0.250000X-0.475000X0.337500X-0.475000X-0.337500X0.475000X-0.337500X0.475000X0.337500X0*%
%ADD20RoundRect,0.150000X-0.150000X0.512500X-0.150000X-0.512500X0.150000X-0.512500X0.150000X0.512500X0*%
%ADD21RoundRect,0.250000X0.350000X0.450000X-0.350000X0.450000X-0.350000X-0.450000X0.350000X-0.450000X0*%
%ADD22R,1.700000X1.700000*%
%ADD23O,1.700000X1.700000*%
%ADD24RoundRect,0.050000X-0.050000X0.387500X-0.050000X-0.387500X0.050000X-0.387500X0.050000X0.387500X0*%
%ADD25RoundRect,0.050000X-0.387500X0.050000X-0.387500X-0.050000X0.387500X-0.050000X0.387500X0.050000X0*%
%ADD26R,3.200000X3.200000*%
%ADD27C,2.100000*%
%ADD28C,1.300000*%
%ADD29RoundRect,0.250000X0.337500X0.475000X-0.337500X0.475000X-0.337500X-0.475000X0.337500X-0.475000X0*%
%ADD30R,1.000000X1.150000*%
%ADD31RoundRect,0.250000X-0.350000X-0.450000X0.350000X-0.450000X0.350000X0.450000X-0.350000X0.450000X0*%
%ADD32R,0.700000X0.250000*%
%ADD33R,1.780000X2.350000*%
%ADD34RoundRect,0.250000X0.475000X-0.337500X0.475000X0.337500X-0.475000X0.337500X-0.475000X-0.337500X0*%
%ADD35FreePoly0,90.000000*%
%ADD36FreePoly1,90.000000*%
%ADD37C,1.000000*%
%ADD38RoundRect,0.250000X0.325000X0.450000X-0.325000X0.450000X-0.325000X-0.450000X0.325000X-0.450000X0*%
%ADD39FreePoly0,0.000000*%
%ADD40FreePoly1,0.000000*%
%ADD41R,1.676403X1.676403*%
%ADD42C,1.676403*%
G04 APERTURE END LIST*
D10*
%TO.C,U6*%
X128975975Y-34739982D03*
X128975975Y-40520018D03*
D11*
X129506075Y-33309959D03*
X129506075Y-41950041D03*
D12*
X125325988Y-33309959D03*
X125325988Y-41950041D03*
D13*
X130156062Y-34279987D03*
X130156062Y-35080089D03*
X130156062Y-36380064D03*
X130156062Y-37380064D03*
X130156062Y-37879936D03*
X130156062Y-38879682D03*
X130155808Y-40180165D03*
X130156062Y-40980013D03*
X130156062Y-40680038D03*
X130155808Y-39879936D03*
X130156062Y-39380064D03*
X130156062Y-38380064D03*
X130156062Y-36879936D03*
X130156062Y-35879936D03*
X130156062Y-35380064D03*
X130156062Y-34579962D03*
%TD*%
D14*
%TO.C,JP3*%
X150805000Y-62649200D03*
D15*
X149355000Y-62560000D03*
%TD*%
D16*
%TO.C,C20*%
X140152500Y-33120000D03*
X142227500Y-33120000D03*
%TD*%
D17*
%TO.C,R10*%
X146700000Y-39920000D03*
X146700000Y-41920000D03*
%TD*%
D18*
%TO.C,R9*%
X150820000Y-47650000D03*
X150820000Y-45650000D03*
%TD*%
%TO.C,R3*%
X125349000Y-60810000D03*
X125349000Y-58810000D03*
%TD*%
D19*
%TO.C,C12*%
X149030000Y-39902500D03*
X149030000Y-41977500D03*
%TD*%
D16*
%TO.C,C7*%
X133652500Y-52310000D03*
X135727500Y-52310000D03*
%TD*%
D20*
%TO.C,Q1*%
X133639600Y-26782600D03*
X131739600Y-26782600D03*
X132689600Y-29057600D03*
%TD*%
D16*
%TO.C,C4*%
X137773500Y-53035200D03*
X139848500Y-53035200D03*
%TD*%
D21*
%TO.C,R11*%
X142170000Y-31150000D03*
X140170000Y-31150000D03*
%TD*%
D18*
%TO.C,R6*%
X132070000Y-36030000D03*
X132070000Y-34030000D03*
%TD*%
D22*
%TO.C,J2*%
X137685000Y-27490000D03*
D23*
X140225000Y-27490000D03*
X142765000Y-27490000D03*
%TD*%
D24*
%TO.C,U2*%
X143671600Y-44162100D03*
X143271600Y-44162100D03*
X142871600Y-44162100D03*
X142471600Y-44162100D03*
X142071600Y-44162100D03*
X141671600Y-44162100D03*
X141271600Y-44162100D03*
X140871600Y-44162100D03*
X140471600Y-44162100D03*
X140071600Y-44162100D03*
X139671600Y-44162100D03*
X139271600Y-44162100D03*
X138871600Y-44162100D03*
X138471600Y-44162100D03*
D25*
X137634100Y-44999600D03*
X137634100Y-45399600D03*
X137634100Y-45799600D03*
X137634100Y-46199600D03*
X137634100Y-46599600D03*
X137634100Y-46999600D03*
X137634100Y-47399600D03*
X137634100Y-47799600D03*
X137634100Y-48199600D03*
X137634100Y-48599600D03*
X137634100Y-48999600D03*
X137634100Y-49399600D03*
X137634100Y-49799600D03*
X137634100Y-50199600D03*
D24*
X138471600Y-51037100D03*
X138871600Y-51037100D03*
X139271600Y-51037100D03*
X139671600Y-51037100D03*
X140071600Y-51037100D03*
X140471600Y-51037100D03*
X140871600Y-51037100D03*
X141271600Y-51037100D03*
X141671600Y-51037100D03*
X142071600Y-51037100D03*
X142471600Y-51037100D03*
X142871600Y-51037100D03*
X143271600Y-51037100D03*
X143671600Y-51037100D03*
D25*
X144509100Y-50199600D03*
X144509100Y-49799600D03*
X144509100Y-49399600D03*
X144509100Y-48999600D03*
X144509100Y-48599600D03*
X144509100Y-48199600D03*
X144509100Y-47799600D03*
X144509100Y-47399600D03*
X144509100Y-46999600D03*
X144509100Y-46599600D03*
X144509100Y-46199600D03*
X144509100Y-45799600D03*
X144509100Y-45399600D03*
X144509100Y-44999600D03*
D26*
X141071600Y-47599600D03*
%TD*%
D21*
%TO.C,R4*%
X138140000Y-39390000D03*
X136140000Y-39390000D03*
%TD*%
D27*
%TO.C,SW2*%
X149280000Y-35830000D03*
X149280000Y-27630000D03*
D28*
X149280000Y-33730000D03*
X149280000Y-31730000D03*
X149280000Y-29730000D03*
%TD*%
D29*
%TO.C,C6*%
X150643500Y-51816000D03*
X148568500Y-51816000D03*
%TD*%
D30*
%TO.C,Y1*%
X135380000Y-46075000D03*
X135380000Y-44325000D03*
X133980000Y-44325000D03*
X133980000Y-46075000D03*
%TD*%
D20*
%TO.C,U4*%
X142090000Y-35192500D03*
X141140000Y-35192500D03*
X140190000Y-35192500D03*
X140190000Y-37467500D03*
X142090000Y-37467500D03*
%TD*%
D29*
%TO.C,C8*%
X150697500Y-53975000D03*
X148622500Y-53975000D03*
%TD*%
D31*
%TO.C,R8*%
X133650000Y-54660000D03*
X135650000Y-54660000D03*
%TD*%
D22*
%TO.C,J1*%
X126040000Y-44540000D03*
D23*
X126040000Y-47080000D03*
X126040000Y-49620000D03*
%TD*%
D22*
%TO.C,BT1*%
X128579800Y-27381200D03*
D23*
X126039800Y-27381200D03*
%TD*%
D16*
%TO.C,C1*%
X141761300Y-41656000D03*
X143836300Y-41656000D03*
%TD*%
D32*
%TO.C,U1*%
X129430000Y-56862500D03*
X129430000Y-57262500D03*
X129430000Y-57662500D03*
X129430000Y-58062500D03*
X129430000Y-58462500D03*
X129430000Y-58862500D03*
X129430000Y-59262500D03*
X132380000Y-59262500D03*
X132380000Y-58862500D03*
X132380000Y-58462500D03*
X132380000Y-58062500D03*
X132380000Y-57662500D03*
X132380000Y-57262500D03*
X132380000Y-56862500D03*
D33*
X130905000Y-58062500D03*
%TD*%
D34*
%TO.C,C22*%
X134180000Y-38017500D03*
X134180000Y-35942500D03*
%TD*%
D35*
%TO.C,JP1*%
X130429000Y-62795000D03*
D36*
X130429000Y-61345000D03*
%TD*%
D37*
%TO.C,M-IN*%
X135890000Y-62865000D03*
%TD*%
D38*
%TO.C,D1*%
X126958200Y-31140400D03*
X124908200Y-31140400D03*
%TD*%
D37*
%TO.C,MOUT*%
X125349000Y-56642000D03*
%TD*%
D16*
%TO.C,C14*%
X133622500Y-48120000D03*
X135697500Y-48120000D03*
%TD*%
D21*
%TO.C,R12*%
X138180000Y-31230000D03*
X136180000Y-31230000D03*
%TD*%
D29*
%TO.C,C11*%
X150687500Y-49730000D03*
X148612500Y-49730000D03*
%TD*%
D19*
%TO.C,C17*%
X131530000Y-52792500D03*
X131530000Y-54867500D03*
%TD*%
D18*
%TO.C,R2*%
X127508000Y-60817000D03*
X127508000Y-58817000D03*
%TD*%
D19*
%TO.C,C19*%
X132969000Y-60811500D03*
X132969000Y-62886500D03*
%TD*%
D16*
%TO.C,C16*%
X127462500Y-54670000D03*
X129537500Y-54670000D03*
%TD*%
D34*
%TO.C,C18*%
X143990000Y-37447500D03*
X143990000Y-35372500D03*
%TD*%
D29*
%TO.C,C10*%
X150719000Y-58034000D03*
X148644000Y-58034000D03*
%TD*%
D21*
%TO.C,R5*%
X130844800Y-31140400D03*
X128844800Y-31140400D03*
%TD*%
D39*
%TO.C,JP2*%
X145785000Y-62580000D03*
D40*
X147235000Y-62580000D03*
%TD*%
D31*
%TO.C,R1*%
X125238000Y-62950000D03*
X127238000Y-62950000D03*
%TD*%
D29*
%TO.C,C24*%
X150719000Y-60066000D03*
X148644000Y-60066000D03*
%TD*%
D16*
%TO.C,C15*%
X127442500Y-52410000D03*
X129517500Y-52410000D03*
%TD*%
D41*
%TO.C,U7*%
X139239994Y-60990000D03*
D42*
X141780000Y-60990000D03*
%TD*%
D17*
%TO.C,R7*%
X132060000Y-38090000D03*
X132060000Y-40090000D03*
%TD*%
D29*
%TO.C,C13*%
X135757500Y-42320000D03*
X133682500Y-42320000D03*
%TD*%
%TO.C,C9*%
X150719000Y-56002000D03*
X148644000Y-56002000D03*
%TD*%
%TO.C,C2*%
X139975500Y-41656000D03*
X137900500Y-41656000D03*
%TD*%
D20*
%TO.C,U5*%
X138030000Y-35152500D03*
X137080000Y-35152500D03*
X136130000Y-35152500D03*
X136130000Y-37427500D03*
X138030000Y-37427500D03*
%TD*%
D34*
%TO.C,C21*%
X134140000Y-33347500D03*
X134140000Y-31272500D03*
%TD*%
D29*
%TO.C,C5*%
X146706500Y-53975000D03*
X144631500Y-53975000D03*
%TD*%
D16*
%TO.C,C3*%
X133652500Y-50170000D03*
X135727500Y-50170000D03*
%TD*%
M02*
