%TF.GenerationSoftware,KiCad,Pcbnew,7.0.9*%
%TF.CreationDate,2024-08-20T21:59:07+03:00*%
%TF.ProjectId,LED-HeadBand,4c45442d-4865-4616-9442-616e642e6b69,rev?*%
%TF.SameCoordinates,Original*%
%TF.FileFunction,Copper,L1,Top*%
%TF.FilePolarity,Positive*%
%FSLAX46Y46*%
G04 Gerber Fmt 4.6, Leading zero omitted, Abs format (unit mm)*
G04 Created by KiCad (PCBNEW 7.0.9) date 2024-08-20 21:59:07*
%MOMM*%
%LPD*%
G01*
G04 APERTURE LIST*
G04 Aperture macros list*
%AMRoundRect*
0 Rectangle with rounded corners*
0 $1 Rounding radius*
0 $2 $3 $4 $5 $6 $7 $8 $9 X,Y pos of 4 corners*
0 Add a 4 corners polygon primitive as box body*
4,1,4,$2,$3,$4,$5,$6,$7,$8,$9,$2,$3,0*
0 Add four circle primitives for the rounded corners*
1,1,$1+$1,$2,$3*
1,1,$1+$1,$4,$5*
1,1,$1+$1,$6,$7*
1,1,$1+$1,$8,$9*
0 Add four rect primitives between the rounded corners*
20,1,$1+$1,$2,$3,$4,$5,0*
20,1,$1+$1,$4,$5,$6,$7,0*
20,1,$1+$1,$6,$7,$8,$9,0*
20,1,$1+$1,$8,$9,$2,$3,0*%
%AMFreePoly0*
4,1,6,1.000000,0.000000,0.500000,-0.750000,-0.500000,-0.750000,-0.500000,0.750000,0.500000,0.750000,1.000000,0.000000,1.000000,0.000000,$1*%
%AMFreePoly1*
4,1,6,0.500000,-0.750000,-0.650000,-0.750000,-0.150000,0.000000,-0.650000,0.750000,0.500000,0.750000,0.500000,-0.750000,0.500000,-0.750000,$1*%
G04 Aperture macros list end*
%TA.AperFunction,ComponentPad*%
%ADD10O,2.000000X1.000000*%
%TD*%
%TA.AperFunction,ComponentPad*%
%ADD11O,1.800000X1.000000*%
%TD*%
%TA.AperFunction,SMDPad,CuDef*%
%ADD12R,1.300000X0.300000*%
%TD*%
%TA.AperFunction,SMDPad,CuDef*%
%ADD13R,0.300000X0.600000*%
%TD*%
%TA.AperFunction,SMDPad,CuDef*%
%ADD14R,1.700000X0.300000*%
%TD*%
%TA.AperFunction,SMDPad,CuDef*%
%ADD15FreePoly0,180.000000*%
%TD*%
%TA.AperFunction,SMDPad,CuDef*%
%ADD16FreePoly1,180.000000*%
%TD*%
%TA.AperFunction,SMDPad,CuDef*%
%ADD17RoundRect,0.250000X-0.337500X-0.475000X0.337500X-0.475000X0.337500X0.475000X-0.337500X0.475000X0*%
%TD*%
%TA.AperFunction,SMDPad,CuDef*%
%ADD18RoundRect,0.250000X-0.450000X0.350000X-0.450000X-0.350000X0.450000X-0.350000X0.450000X0.350000X0*%
%TD*%
%TA.AperFunction,SMDPad,CuDef*%
%ADD19RoundRect,0.250000X0.450000X-0.350000X0.450000X0.350000X-0.450000X0.350000X-0.450000X-0.350000X0*%
%TD*%
%TA.AperFunction,SMDPad,CuDef*%
%ADD20RoundRect,0.250000X-0.475000X0.337500X-0.475000X-0.337500X0.475000X-0.337500X0.475000X0.337500X0*%
%TD*%
%TA.AperFunction,SMDPad,CuDef*%
%ADD21RoundRect,0.150000X-0.150000X0.512500X-0.150000X-0.512500X0.150000X-0.512500X0.150000X0.512500X0*%
%TD*%
%TA.AperFunction,SMDPad,CuDef*%
%ADD22RoundRect,0.250000X0.350000X0.450000X-0.350000X0.450000X-0.350000X-0.450000X0.350000X-0.450000X0*%
%TD*%
%TA.AperFunction,ComponentPad*%
%ADD23R,1.700000X1.700000*%
%TD*%
%TA.AperFunction,ComponentPad*%
%ADD24O,1.700000X1.700000*%
%TD*%
%TA.AperFunction,SMDPad,CuDef*%
%ADD25RoundRect,0.050000X-0.050000X0.387500X-0.050000X-0.387500X0.050000X-0.387500X0.050000X0.387500X0*%
%TD*%
%TA.AperFunction,SMDPad,CuDef*%
%ADD26RoundRect,0.050000X-0.387500X0.050000X-0.387500X-0.050000X0.387500X-0.050000X0.387500X0.050000X0*%
%TD*%
%TA.AperFunction,SMDPad,CuDef*%
%ADD27R,3.200000X3.200000*%
%TD*%
%TA.AperFunction,ComponentPad*%
%ADD28C,2.100000*%
%TD*%
%TA.AperFunction,ComponentPad*%
%ADD29C,1.300000*%
%TD*%
%TA.AperFunction,SMDPad,CuDef*%
%ADD30RoundRect,0.250000X0.337500X0.475000X-0.337500X0.475000X-0.337500X-0.475000X0.337500X-0.475000X0*%
%TD*%
%TA.AperFunction,SMDPad,CuDef*%
%ADD31R,1.000000X1.150000*%
%TD*%
%TA.AperFunction,SMDPad,CuDef*%
%ADD32RoundRect,0.250000X-0.350000X-0.450000X0.350000X-0.450000X0.350000X0.450000X-0.350000X0.450000X0*%
%TD*%
%TA.AperFunction,SMDPad,CuDef*%
%ADD33R,0.700000X0.250000*%
%TD*%
%TA.AperFunction,SMDPad,CuDef*%
%ADD34R,1.780000X2.350000*%
%TD*%
%TA.AperFunction,SMDPad,CuDef*%
%ADD35RoundRect,0.250000X0.475000X-0.337500X0.475000X0.337500X-0.475000X0.337500X-0.475000X-0.337500X0*%
%TD*%
%TA.AperFunction,SMDPad,CuDef*%
%ADD36FreePoly0,90.000000*%
%TD*%
%TA.AperFunction,SMDPad,CuDef*%
%ADD37FreePoly1,90.000000*%
%TD*%
%TA.AperFunction,SMDPad,CuDef*%
%ADD38C,1.000000*%
%TD*%
%TA.AperFunction,SMDPad,CuDef*%
%ADD39RoundRect,0.250000X0.325000X0.450000X-0.325000X0.450000X-0.325000X-0.450000X0.325000X-0.450000X0*%
%TD*%
%TA.AperFunction,SMDPad,CuDef*%
%ADD40FreePoly0,0.000000*%
%TD*%
%TA.AperFunction,SMDPad,CuDef*%
%ADD41FreePoly1,0.000000*%
%TD*%
%TA.AperFunction,ComponentPad*%
%ADD42R,1.676403X1.676403*%
%TD*%
%TA.AperFunction,ComponentPad*%
%ADD43C,1.676403*%
%TD*%
%TA.AperFunction,ViaPad*%
%ADD44C,0.600000*%
%TD*%
%TA.AperFunction,Conductor*%
%ADD45C,0.150000*%
%TD*%
%TA.AperFunction,Conductor*%
%ADD46C,0.250000*%
%TD*%
%TA.AperFunction,Conductor*%
%ADD47C,0.500000*%
%TD*%
%TA.AperFunction,Conductor*%
%ADD48C,0.200000*%
%TD*%
%TA.AperFunction,Conductor*%
%ADD49C,0.300000*%
%TD*%
G04 APERTURE END LIST*
D10*
%TO.P,U6,1,EP*%
%TO.N,GND*%
X129506075Y-33309959D03*
%TO.P,U6,2,EP*%
X129506075Y-41950041D03*
D11*
%TO.P,U6,3,EP*%
X125325988Y-33309959D03*
%TO.P,U6,4,EP*%
X125325988Y-41950041D03*
D12*
%TO.P,U6,A1,GND*%
X130156062Y-34279987D03*
%TO.P,U6,A4,VBUS*%
%TO.N,+5V*%
X130156062Y-35080089D03*
%TO.P,U6,A5,CC1*%
%TO.N,Net-(U6-CC1)*%
X130156062Y-36380064D03*
%TO.P,U6,A6,DP1*%
%TO.N,/USB_DP*%
X130156062Y-37380064D03*
%TO.P,U6,A7,DN1*%
%TO.N,/USB_DM*%
X130156062Y-37879936D03*
%TO.P,U6,A8,SUB1*%
%TO.N,unconnected-(U6-SUB1-PadA8)*%
X130156062Y-38879682D03*
%TO.P,U6,A9,VBUS*%
%TO.N,+5V*%
X130155808Y-40180165D03*
%TO.P,U6,A12,GND*%
%TO.N,GND*%
X130156062Y-40980013D03*
%TO.P,U6,B1,GND*%
X130156062Y-40680038D03*
%TO.P,U6,B4,VBUS*%
%TO.N,+5V*%
X130155808Y-39879936D03*
%TO.P,U6,B5,CC2*%
%TO.N,Net-(U6-CC2)*%
X130156062Y-39380064D03*
%TO.P,U6,B6,DP2*%
%TO.N,/USB_DP*%
X130156062Y-38380064D03*
%TO.P,U6,B7,DN2*%
%TO.N,/USB_DM*%
X130156062Y-36879936D03*
%TO.P,U6,B8,SUB2*%
%TO.N,unconnected-(U6-SUB2-PadB8)*%
X130156062Y-35879936D03*
%TO.P,U6,B9,VBUS*%
%TO.N,+5V*%
X130156062Y-35380064D03*
%TO.P,U6,B12,GND*%
%TO.N,GND*%
X130156062Y-34579962D03*
%TD*%
D13*
%TO.P,U3,1,~{CS}*%
%TO.N,/QSPI_SS*%
X149140000Y-45347500D03*
%TO.P,U3,2,DO/IO1*%
%TO.N,/QSPI_SD1*%
X148640000Y-45347500D03*
%TO.P,U3,3,~{WP}/IO2*%
%TO.N,/QSPI_SD2*%
X148140000Y-45347500D03*
%TO.P,U3,4,GND*%
%TO.N,GND*%
X147640000Y-45347500D03*
%TO.P,U3,5,DI/IO0*%
%TO.N,/QSPI_SD0*%
X147640000Y-47847500D03*
%TO.P,U3,6,CLK*%
%TO.N,/QSPI_SCLK*%
X148140000Y-47847500D03*
%TO.P,U3,7,~{HOLD}/~{RESET}/IO3*%
%TO.N,/QSPI_SD3*%
X148640000Y-47847500D03*
%TO.P,U3,8,VCC*%
%TO.N,+3.3V*%
X149140000Y-47847500D03*
D14*
%TO.P,U3,9,EXP*%
%TO.N,GND*%
X148390000Y-46597500D03*
%TD*%
D15*
%TO.P,JP3,1,A*%
%TO.N,GND*%
X150805000Y-62649200D03*
D16*
%TO.P,JP3,2,B*%
%TO.N,Net-(JP3-B)*%
X149355000Y-62560000D03*
%TD*%
D17*
%TO.P,C20,1*%
%TO.N,Net-(SW2A-A)*%
X140152500Y-33120000D03*
%TO.P,C20,2*%
%TO.N,GND*%
X142227500Y-33120000D03*
%TD*%
D18*
%TO.P,R10,1*%
%TO.N,+3.3V*%
X146700000Y-39920000D03*
%TO.P,R10,2*%
%TO.N,/QSPI_SS*%
X146700000Y-41920000D03*
%TD*%
D19*
%TO.P,R9,1*%
%TO.N,Net-(JP3-B)*%
X150820000Y-47650000D03*
%TO.P,R9,2*%
%TO.N,/QSPI_SS*%
X150820000Y-45650000D03*
%TD*%
%TO.P,R3,1*%
%TO.N,/TH*%
X125349000Y-60810000D03*
%TO.P,R3,2*%
%TO.N,GND*%
X125349000Y-58810000D03*
%TD*%
D20*
%TO.P,C12,1*%
%TO.N,GND*%
X149030000Y-39902500D03*
%TO.P,C12,2*%
%TO.N,+3.3V*%
X149030000Y-41977500D03*
%TD*%
D17*
%TO.P,C7,1*%
%TO.N,GND*%
X133652500Y-52310000D03*
%TO.P,C7,2*%
%TO.N,Net-(U2-VREG_VOUT)*%
X135727500Y-52310000D03*
%TD*%
D21*
%TO.P,Q1,1,G*%
%TO.N,Net-(Q1-G)*%
X133639600Y-26782600D03*
%TO.P,Q1,2,S*%
%TO.N,+BATT*%
X131739600Y-26782600D03*
%TO.P,Q1,3,D*%
%TO.N,/Diode_power*%
X132689600Y-29057600D03*
%TD*%
D17*
%TO.P,C4,1*%
%TO.N,GND*%
X137773500Y-53035200D03*
%TO.P,C4,2*%
%TO.N,+3.3V*%
X139848500Y-53035200D03*
%TD*%
D22*
%TO.P,R11,1*%
%TO.N,/MOSFET_Controll*%
X142170000Y-31150000D03*
%TO.P,R11,2*%
%TO.N,Net-(Q1-G)*%
X140170000Y-31150000D03*
%TD*%
D19*
%TO.P,R6,1*%
%TO.N,Net-(U6-CC1)*%
X132070000Y-36030000D03*
%TO.P,R6,2*%
%TO.N,GND*%
X132070000Y-34030000D03*
%TD*%
D23*
%TO.P,J2,1,Pin_1*%
%TO.N,/Diode_power*%
X137685000Y-27490000D03*
D24*
%TO.P,J2,2,Pin_2*%
%TO.N,/Diode_Cont*%
X140225000Y-27490000D03*
%TO.P,J2,3,Pin_3*%
%TO.N,GND*%
X142765000Y-27490000D03*
%TD*%
D25*
%TO.P,U2,1,IOVDD*%
%TO.N,+3.3V*%
X143671600Y-44162100D03*
%TO.P,U2,2,GPIO0*%
%TO.N,unconnected-(U2-GPIO0-Pad2)*%
X143271600Y-44162100D03*
%TO.P,U2,3,GPIO1*%
%TO.N,unconnected-(U2-GPIO1-Pad3)*%
X142871600Y-44162100D03*
%TO.P,U2,4,GPIO2*%
%TO.N,/Diode_Cont*%
X142471600Y-44162100D03*
%TO.P,U2,5,GPIO3*%
%TO.N,/MOSFET_Controll*%
X142071600Y-44162100D03*
%TO.P,U2,6,GPIO4*%
%TO.N,unconnected-(U2-GPIO4-Pad6)*%
X141671600Y-44162100D03*
%TO.P,U2,7,GPIO5*%
%TO.N,unconnected-(U2-GPIO5-Pad7)*%
X141271600Y-44162100D03*
%TO.P,U2,8,GPIO6*%
%TO.N,unconnected-(U2-GPIO6-Pad8)*%
X140871600Y-44162100D03*
%TO.P,U2,9,GPIO7*%
%TO.N,unconnected-(U2-GPIO7-Pad9)*%
X140471600Y-44162100D03*
%TO.P,U2,10,IOVDD*%
%TO.N,+3.3V*%
X140071600Y-44162100D03*
%TO.P,U2,11,GPIO8*%
%TO.N,unconnected-(U2-GPIO8-Pad11)*%
X139671600Y-44162100D03*
%TO.P,U2,12,GPIO9*%
%TO.N,unconnected-(U2-GPIO9-Pad12)*%
X139271600Y-44162100D03*
%TO.P,U2,13,GPIO10*%
%TO.N,unconnected-(U2-GPIO10-Pad13)*%
X138871600Y-44162100D03*
%TO.P,U2,14,GPIO11*%
%TO.N,unconnected-(U2-GPIO11-Pad14)*%
X138471600Y-44162100D03*
D26*
%TO.P,U2,15,GPIO12*%
%TO.N,unconnected-(U2-GPIO12-Pad15)*%
X137634100Y-44999600D03*
%TO.P,U2,16,GPIO13*%
%TO.N,unconnected-(U2-GPIO13-Pad16)*%
X137634100Y-45399600D03*
%TO.P,U2,17,GPIO14*%
%TO.N,unconnected-(U2-GPIO14-Pad17)*%
X137634100Y-45799600D03*
%TO.P,U2,18,GPIO15*%
%TO.N,unconnected-(U2-GPIO15-Pad18)*%
X137634100Y-46199600D03*
%TO.P,U2,19,TESTEN*%
%TO.N,GND*%
X137634100Y-46599600D03*
%TO.P,U2,20,XIN*%
%TO.N,Net-(U2-XIN)*%
X137634100Y-46999600D03*
%TO.P,U2,21,XOUT*%
%TO.N,Net-(U2-XOUT)*%
X137634100Y-47399600D03*
%TO.P,U2,22,IOVDD*%
%TO.N,+3.3V*%
X137634100Y-47799600D03*
%TO.P,U2,23,DVDD*%
%TO.N,Net-(U2-VREG_VOUT)*%
X137634100Y-48199600D03*
%TO.P,U2,24,SWCLK*%
%TO.N,/SWCLK*%
X137634100Y-48599600D03*
%TO.P,U2,25,SWD*%
%TO.N,/SWDIO*%
X137634100Y-48999600D03*
%TO.P,U2,26,RUN*%
%TO.N,Net-(JP2-A)*%
X137634100Y-49399600D03*
%TO.P,U2,27,GPIO16*%
%TO.N,unconnected-(U2-GPIO16-Pad27)*%
X137634100Y-49799600D03*
%TO.P,U2,28,GPIO17*%
%TO.N,unconnected-(U2-GPIO17-Pad28)*%
X137634100Y-50199600D03*
D25*
%TO.P,U2,29,GPIO18*%
%TO.N,unconnected-(U2-GPIO18-Pad29)*%
X138471600Y-51037100D03*
%TO.P,U2,30,GPIO19*%
%TO.N,unconnected-(U2-GPIO19-Pad30)*%
X138871600Y-51037100D03*
%TO.P,U2,31,GPIO20*%
%TO.N,unconnected-(U2-GPIO20-Pad31)*%
X139271600Y-51037100D03*
%TO.P,U2,32,GPIO21*%
%TO.N,unconnected-(U2-GPIO21-Pad32)*%
X139671600Y-51037100D03*
%TO.P,U2,33,IOVDD*%
%TO.N,+3.3V*%
X140071600Y-51037100D03*
%TO.P,U2,34,GPIO22*%
%TO.N,unconnected-(U2-GPIO22-Pad34)*%
X140471600Y-51037100D03*
%TO.P,U2,35,GPIO23*%
%TO.N,unconnected-(U2-GPIO23-Pad35)*%
X140871600Y-51037100D03*
%TO.P,U2,36,GPIO24*%
%TO.N,/GAIN*%
X141271600Y-51037100D03*
%TO.P,U2,37,GPIO25*%
%TO.N,/A{slash}R*%
X141671600Y-51037100D03*
%TO.P,U2,38,GPIO26_ADC0*%
%TO.N,/MICOUT*%
X142071600Y-51037100D03*
%TO.P,U2,39,GPIO27_ADC1*%
%TO.N,unconnected-(U2-GPIO27_ADC1-Pad39)*%
X142471600Y-51037100D03*
%TO.P,U2,40,GPIO28_ADC2*%
%TO.N,unconnected-(U2-GPIO28_ADC2-Pad40)*%
X142871600Y-51037100D03*
%TO.P,U2,41,GPIO29_ADC3*%
%TO.N,unconnected-(U2-GPIO29_ADC3-Pad41)*%
X143271600Y-51037100D03*
%TO.P,U2,42,IOVDD*%
%TO.N,+3.3V*%
X143671600Y-51037100D03*
D26*
%TO.P,U2,43,ADC_AVDD*%
X144509100Y-50199600D03*
%TO.P,U2,44,VREG_IN*%
X144509100Y-49799600D03*
%TO.P,U2,45,VREG_VOUT*%
%TO.N,Net-(U2-VREG_VOUT)*%
X144509100Y-49399600D03*
%TO.P,U2,46,USB_DM*%
%TO.N,/USB_DM*%
X144509100Y-48999600D03*
%TO.P,U2,47,USB_DP*%
%TO.N,/USB_DP*%
X144509100Y-48599600D03*
%TO.P,U2,48,USB_VDD*%
%TO.N,+3.3V*%
X144509100Y-48199600D03*
%TO.P,U2,49,IOVDD*%
X144509100Y-47799600D03*
%TO.P,U2,50,DVDD*%
%TO.N,Net-(U2-VREG_VOUT)*%
X144509100Y-47399600D03*
%TO.P,U2,51,QSPI_SD3*%
%TO.N,/QSPI_SD3*%
X144509100Y-46999600D03*
%TO.P,U2,52,QSPI_SCLK*%
%TO.N,/QSPI_SCLK*%
X144509100Y-46599600D03*
%TO.P,U2,53,QSPI_SD0*%
%TO.N,/QSPI_SD0*%
X144509100Y-46199600D03*
%TO.P,U2,54,QSPI_SD2*%
%TO.N,/QSPI_SD2*%
X144509100Y-45799600D03*
%TO.P,U2,55,QSPI_SD1*%
%TO.N,/QSPI_SD1*%
X144509100Y-45399600D03*
%TO.P,U2,56,QSPI_SS*%
%TO.N,/QSPI_SS*%
X144509100Y-44999600D03*
D27*
%TO.P,U2,57,GND*%
%TO.N,GND*%
X141071600Y-47599600D03*
%TD*%
D22*
%TO.P,R4,1*%
%TO.N,Net-(U5-PROG)*%
X138140000Y-39390000D03*
%TO.P,R4,2*%
%TO.N,GND*%
X136140000Y-39390000D03*
%TD*%
D28*
%TO.P,SW2,*%
%TO.N,*%
X149280000Y-35830000D03*
X149280000Y-27630000D03*
D29*
%TO.P,SW2,1,A*%
%TO.N,Net-(SW2A-A)*%
X149280000Y-33730000D03*
%TO.P,SW2,2,B*%
%TO.N,+BATT*%
X149280000Y-31730000D03*
%TO.P,SW2,3,C*%
%TO.N,unconnected-(SW2A-C-Pad3)*%
X149280000Y-29730000D03*
%TD*%
D30*
%TO.P,C6,1*%
%TO.N,GND*%
X150643500Y-51816000D03*
%TO.P,C6,2*%
%TO.N,+3.3V*%
X148568500Y-51816000D03*
%TD*%
D31*
%TO.P,Y1,1,1*%
%TO.N,Net-(U2-XOUT)*%
X135380000Y-46075000D03*
%TO.P,Y1,2,2*%
%TO.N,GND*%
X135380000Y-44325000D03*
%TO.P,Y1,3,3*%
%TO.N,Net-(U2-XIN)*%
X133980000Y-44325000D03*
%TO.P,Y1,4,4*%
%TO.N,GND*%
X133980000Y-46075000D03*
%TD*%
D21*
%TO.P,U4,1,VIN*%
%TO.N,Net-(SW2A-A)*%
X142090000Y-35192500D03*
%TO.P,U4,2,GND*%
%TO.N,GND*%
X141140000Y-35192500D03*
%TO.P,U4,3,EN*%
%TO.N,Net-(SW2A-A)*%
X140190000Y-35192500D03*
%TO.P,U4,4,NC*%
%TO.N,unconnected-(U4-NC-Pad4)*%
X140190000Y-37467500D03*
%TO.P,U4,5,VOUT*%
%TO.N,+3.3V*%
X142090000Y-37467500D03*
%TD*%
D30*
%TO.P,C8,1*%
%TO.N,GND*%
X150697500Y-53975000D03*
%TO.P,C8,2*%
%TO.N,Net-(U2-VREG_VOUT)*%
X148622500Y-53975000D03*
%TD*%
D32*
%TO.P,R8,1*%
%TO.N,+3.3V*%
X133650000Y-54660000D03*
%TO.P,R8,2*%
%TO.N,Net-(JP2-A)*%
X135650000Y-54660000D03*
%TD*%
D23*
%TO.P,J1,1,Pin_1*%
%TO.N,/SWCLK*%
X126040000Y-44540000D03*
D24*
%TO.P,J1,2,Pin_2*%
%TO.N,GND*%
X126040000Y-47080000D03*
%TO.P,J1,3,Pin_3*%
%TO.N,/SWDIO*%
X126040000Y-49620000D03*
%TD*%
D23*
%TO.P,BT1,1,+*%
%TO.N,+BATT*%
X128579800Y-27381200D03*
D24*
%TO.P,BT1,2,-*%
%TO.N,GND*%
X126039800Y-27381200D03*
%TD*%
D17*
%TO.P,C1,1*%
%TO.N,GND*%
X141761300Y-41656000D03*
%TO.P,C1,2*%
%TO.N,+3.3V*%
X143836300Y-41656000D03*
%TD*%
D33*
%TO.P,U1,1,CT*%
%TO.N,Net-(U1-CT)*%
X129430000Y-56862500D03*
%TO.P,U1,2,~{SHDN}*%
%TO.N,+3.3V*%
X129430000Y-57262500D03*
%TO.P,U1,3,CG*%
%TO.N,Net-(U1-CG)*%
X129430000Y-57662500D03*
%TO.P,U1,4,GND*%
%TO.N,GND*%
X129430000Y-58062500D03*
%TO.P,U1,5,VDD*%
%TO.N,+3.3V*%
X129430000Y-58462500D03*
%TO.P,U1,6,MICOUT*%
%TO.N,/MICOUT*%
X129430000Y-58862500D03*
%TO.P,U1,7,GND*%
%TO.N,GND*%
X129430000Y-59262500D03*
%TO.P,U1,8,MICIN*%
%TO.N,/MICIN*%
X132380000Y-59262500D03*
%TO.P,U1,9,A/R*%
%TO.N,/A{slash}R*%
X132380000Y-58862500D03*
%TO.P,U1,10,GAIN*%
%TO.N,/GAIN*%
X132380000Y-58462500D03*
%TO.P,U1,11,GND*%
%TO.N,GND*%
X132380000Y-58062500D03*
%TO.P,U1,12,BIAS*%
%TO.N,Net-(U1-BIAS)*%
X132380000Y-57662500D03*
%TO.P,U1,13,MICBIAS*%
%TO.N,/MICBIAS*%
X132380000Y-57262500D03*
%TO.P,U1,14,TH*%
%TO.N,/TH*%
X132380000Y-56862500D03*
D34*
%TO.P,U1,15,GND*%
%TO.N,GND*%
X130905000Y-58062500D03*
%TD*%
D35*
%TO.P,C22,1*%
%TO.N,+5V*%
X134180000Y-38017500D03*
%TO.P,C22,2*%
%TO.N,GND*%
X134180000Y-35942500D03*
%TD*%
D36*
%TO.P,JP1,1,A*%
%TO.N,/MICBIAS*%
X130429000Y-62795000D03*
D37*
%TO.P,JP1,2,B*%
%TO.N,/TH*%
X130429000Y-61345000D03*
%TD*%
D38*
%TO.P,M-IN,1,1*%
%TO.N,/MICIN*%
X135890000Y-62865000D03*
%TD*%
D39*
%TO.P,D1,1,K*%
%TO.N,Net-(D1-K)*%
X126958200Y-31140400D03*
%TO.P,D1,2,A*%
%TO.N,+5V*%
X124908200Y-31140400D03*
%TD*%
D38*
%TO.P,MOUT,1,1*%
%TO.N,/MICOUT*%
X125349000Y-56642000D03*
%TD*%
D17*
%TO.P,C14,1*%
%TO.N,GND*%
X133622500Y-48120000D03*
%TO.P,C14,2*%
%TO.N,Net-(U2-XOUT)*%
X135697500Y-48120000D03*
%TD*%
D22*
%TO.P,R12,1*%
%TO.N,Net-(Q1-G)*%
X138180000Y-31230000D03*
%TO.P,R12,2*%
%TO.N,+3.3V*%
X136180000Y-31230000D03*
%TD*%
D30*
%TO.P,C11,1*%
%TO.N,GND*%
X150687500Y-49730000D03*
%TO.P,C11,2*%
%TO.N,+3.3V*%
X148612500Y-49730000D03*
%TD*%
D20*
%TO.P,C17,1*%
%TO.N,GND*%
X131530000Y-52792500D03*
%TO.P,C17,2*%
%TO.N,Net-(U1-BIAS)*%
X131530000Y-54867500D03*
%TD*%
D19*
%TO.P,R2,1*%
%TO.N,/MICBIAS*%
X127508000Y-60817000D03*
%TO.P,R2,2*%
%TO.N,/TH*%
X127508000Y-58817000D03*
%TD*%
D20*
%TO.P,C19,1*%
%TO.N,Net-(C19-Pad1)*%
X132969000Y-60811500D03*
%TO.P,C19,2*%
%TO.N,/MICIN*%
X132969000Y-62886500D03*
%TD*%
D17*
%TO.P,C16,1*%
%TO.N,GND*%
X127462500Y-54670000D03*
%TO.P,C16,2*%
%TO.N,Net-(U1-CG)*%
X129537500Y-54670000D03*
%TD*%
D35*
%TO.P,C18,1*%
%TO.N,+3.3V*%
X143990000Y-37447500D03*
%TO.P,C18,2*%
%TO.N,GND*%
X143990000Y-35372500D03*
%TD*%
D30*
%TO.P,C10,1*%
%TO.N,GND*%
X150719000Y-58034000D03*
%TO.P,C10,2*%
%TO.N,+3.3V*%
X148644000Y-58034000D03*
%TD*%
D22*
%TO.P,R5,1*%
%TO.N,Net-(U5-STAT)*%
X130844800Y-31140400D03*
%TO.P,R5,2*%
%TO.N,Net-(D1-K)*%
X128844800Y-31140400D03*
%TD*%
D40*
%TO.P,JP2,1,A*%
%TO.N,Net-(JP2-A)*%
X145785000Y-62580000D03*
D41*
%TO.P,JP2,2,B*%
%TO.N,GND*%
X147235000Y-62580000D03*
%TD*%
D32*
%TO.P,R1,1*%
%TO.N,Net-(C19-Pad1)*%
X125238000Y-62950000D03*
%TO.P,R1,2*%
%TO.N,/MICBIAS*%
X127238000Y-62950000D03*
%TD*%
D30*
%TO.P,C24,1*%
%TO.N,GND*%
X150719000Y-60066000D03*
%TO.P,C24,2*%
%TO.N,+3.3V*%
X148644000Y-60066000D03*
%TD*%
D17*
%TO.P,C15,1*%
%TO.N,GND*%
X127442500Y-52410000D03*
%TO.P,C15,2*%
%TO.N,Net-(U1-CT)*%
X129517500Y-52410000D03*
%TD*%
D42*
%TO.P,U7,1,1*%
%TO.N,Net-(C19-Pad1)*%
X139239994Y-60990000D03*
D43*
%TO.P,U7,2,2*%
%TO.N,GND*%
X141780000Y-60990000D03*
%TD*%
D18*
%TO.P,R7,1*%
%TO.N,Net-(U6-CC2)*%
X132060000Y-38090000D03*
%TO.P,R7,2*%
%TO.N,GND*%
X132060000Y-40090000D03*
%TD*%
D30*
%TO.P,C13,1*%
%TO.N,GND*%
X135757500Y-42320000D03*
%TO.P,C13,2*%
%TO.N,Net-(U2-XIN)*%
X133682500Y-42320000D03*
%TD*%
%TO.P,C9,1*%
%TO.N,GND*%
X150719000Y-56002000D03*
%TO.P,C9,2*%
%TO.N,Net-(U2-VREG_VOUT)*%
X148644000Y-56002000D03*
%TD*%
%TO.P,C2,1*%
%TO.N,GND*%
X139975500Y-41656000D03*
%TO.P,C2,2*%
%TO.N,+3.3V*%
X137900500Y-41656000D03*
%TD*%
D21*
%TO.P,U5,1,STAT*%
%TO.N,Net-(U5-STAT)*%
X138030000Y-35152500D03*
%TO.P,U5,2,V_{SS}*%
%TO.N,GND*%
X137080000Y-35152500D03*
%TO.P,U5,3,V_{BAT}*%
%TO.N,+BATT*%
X136130000Y-35152500D03*
%TO.P,U5,4,V_{DD}*%
%TO.N,+5V*%
X136130000Y-37427500D03*
%TO.P,U5,5,PROG*%
%TO.N,Net-(U5-PROG)*%
X138030000Y-37427500D03*
%TD*%
D35*
%TO.P,C21,1*%
%TO.N,+BATT*%
X134140000Y-33347500D03*
%TO.P,C21,2*%
%TO.N,GND*%
X134140000Y-31272500D03*
%TD*%
D30*
%TO.P,C5,1*%
%TO.N,GND*%
X146706500Y-53975000D03*
%TO.P,C5,2*%
%TO.N,+3.3V*%
X144631500Y-53975000D03*
%TD*%
D17*
%TO.P,C3,1*%
%TO.N,GND*%
X133652500Y-50170000D03*
%TO.P,C3,2*%
%TO.N,+3.3V*%
X135727500Y-50170000D03*
%TD*%
D44*
%TO.N,GND*%
X144018000Y-35433000D03*
X127254000Y-29337000D03*
X143510000Y-39624000D03*
X142113000Y-32893000D03*
X134239000Y-31115000D03*
X131064000Y-33020000D03*
X136144000Y-39370000D03*
X146685000Y-52324000D03*
X138498100Y-46244660D03*
X140081000Y-47498000D03*
X136525000Y-44323000D03*
X144907000Y-30480000D03*
X147447000Y-62738000D03*
X150622000Y-62738000D03*
X150622000Y-59944000D03*
X146685000Y-45466000D03*
X132334000Y-50292000D03*
X131064000Y-58062500D03*
%TO.N,/Diode_power*%
X134239000Y-28956000D03*
%TO.N,/MOSFET_Controll*%
X141097000Y-29718000D03*
X141605000Y-43053000D03*
%TO.N,/Diode_Cont*%
X142494000Y-43180000D03*
X140335000Y-29718000D03*
%TO.N,Net-(U5-STAT)*%
X138176000Y-33401000D03*
X132080000Y-32258000D03*
%TO.N,+5V*%
X128509711Y-35192879D03*
X133223000Y-36957000D03*
%TO.N,/USB_DP*%
X128524000Y-37406436D03*
%TO.N,/USB_DM*%
X126365000Y-37846000D03*
X143506146Y-48771854D03*
%TO.N,/USB_DP*%
X128270000Y-38716500D03*
X143599565Y-47990665D03*
%TO.N,/QSPI_SCLK*%
X148082000Y-47174002D03*
X146424958Y-47377042D03*
%TO.N,/SWCLK*%
X138658999Y-48920001D03*
%TO.N,/SWDIO*%
X138557000Y-50165000D03*
%TO.N,+3.3V*%
X128736628Y-56484519D03*
X133650000Y-54660000D03*
X127508000Y-56896000D03*
%TO.N,/MICOUT*%
X125349000Y-56642000D03*
X140716785Y-54483000D03*
%TO.N,/GAIN*%
X135382000Y-58299500D03*
X141230500Y-52705000D03*
%TO.N,/A{slash}R*%
X141859000Y-52070000D03*
X134747000Y-58801000D03*
%TO.N,/TH*%
X130429000Y-61345000D03*
X134096521Y-56437606D03*
%TO.N,/MICBIAS*%
X134239000Y-57150000D03*
X130429000Y-62795000D03*
%TD*%
D45*
%TO.N,GND*%
X137080000Y-38434000D02*
X136144000Y-39370000D01*
X137080000Y-35152500D02*
X137080000Y-38434000D01*
X138143160Y-46599600D02*
X138498100Y-46244660D01*
X137634100Y-46599600D02*
X138143160Y-46599600D01*
X147289000Y-62580000D02*
X147447000Y-62738000D01*
X147235000Y-62580000D02*
X147289000Y-62580000D01*
X150710800Y-62649200D02*
X150622000Y-62738000D01*
X150805000Y-62649200D02*
X150710800Y-62649200D01*
X150719000Y-60041000D02*
X150622000Y-59944000D01*
X150719000Y-60066000D02*
X150719000Y-60041000D01*
X146803500Y-45347500D02*
X146685000Y-45466000D01*
X147640000Y-45347500D02*
X146803500Y-45347500D01*
X147640000Y-45847500D02*
X147640000Y-45347500D01*
X148390000Y-46597500D02*
X147640000Y-45847500D01*
X132456000Y-50170000D02*
X132334000Y-50292000D01*
X133652500Y-50170000D02*
X132456000Y-50170000D01*
X130905000Y-58062500D02*
X131064000Y-58062500D01*
X132380000Y-58062500D02*
X131064000Y-58062500D01*
X129930000Y-59262500D02*
X130905000Y-58287500D01*
X130905000Y-58287500D02*
X130905000Y-58062500D01*
X129430000Y-59262500D02*
X129930000Y-59262500D01*
X129430000Y-58062500D02*
X130905000Y-58062500D01*
%TO.N,/MICOUT*%
X126111000Y-57404000D02*
X125349000Y-56642000D01*
X127599104Y-57404000D02*
X126111000Y-57404000D01*
X128410000Y-58483948D02*
X128410000Y-58214896D01*
X128410000Y-58214896D02*
X127599104Y-57404000D01*
X128788552Y-58862500D02*
X128410000Y-58483948D01*
X129430000Y-58862500D02*
X128788552Y-58862500D01*
D46*
%TO.N,+3.3V*%
X128828000Y-58170448D02*
X127553552Y-56896000D01*
X127553552Y-56896000D02*
X127508000Y-56896000D01*
X128828000Y-58439500D02*
X128828000Y-58170448D01*
X128851000Y-58462500D02*
X128828000Y-58439500D01*
X129430000Y-58462500D02*
X128851000Y-58462500D01*
X128736628Y-57148128D02*
X128851000Y-57262500D01*
X128736628Y-56484519D02*
X128736628Y-57148128D01*
X128851000Y-57262500D02*
X129430000Y-57262500D01*
D45*
%TO.N,Net-(U1-CG)*%
X128143000Y-56064500D02*
X129537500Y-54670000D01*
X128143000Y-57023000D02*
X128143000Y-56064500D01*
X128782500Y-57662500D02*
X128143000Y-57023000D01*
X129430000Y-57662500D02*
X128782500Y-57662500D01*
D47*
%TO.N,+5V*%
X127240121Y-35192879D02*
X128509711Y-35192879D01*
X125222000Y-37211000D02*
X127240121Y-35192879D01*
X125222000Y-37973000D02*
X125222000Y-37211000D01*
X129129062Y-39878000D02*
X127127000Y-39878000D01*
X129158126Y-39907064D02*
X129129062Y-39878000D01*
X130030744Y-40005000D02*
X129932808Y-39907064D01*
X129932808Y-39907064D02*
X129158126Y-39907064D01*
X127127000Y-39878000D02*
X125222000Y-37973000D01*
D48*
%TO.N,+3.3V*%
X140071600Y-44599600D02*
X140071600Y-44162100D01*
X139244600Y-46626600D02*
X139244600Y-45426600D01*
X138071600Y-47799600D02*
X139244600Y-46626600D01*
X137634100Y-47799600D02*
X138071600Y-47799600D01*
X139244600Y-45426600D02*
X140071600Y-44599600D01*
X137107000Y-32157000D02*
X136180000Y-31230000D01*
X139192000Y-37669316D02*
X139192000Y-33554000D01*
X139192000Y-33554000D02*
X137795000Y-32157000D01*
X137795000Y-32157000D02*
X137107000Y-32157000D01*
X141200500Y-38357000D02*
X139879684Y-38357000D01*
X139879684Y-38357000D02*
X139192000Y-37669316D01*
X142090000Y-37467500D02*
X141200500Y-38357000D01*
D47*
%TO.N,/Diode_power*%
X134137400Y-29057600D02*
X134239000Y-28956000D01*
X132689600Y-29057600D02*
X134137400Y-29057600D01*
D48*
%TO.N,/MOSFET_Controll*%
X141097000Y-30077000D02*
X142170000Y-31150000D01*
X141097000Y-29718000D02*
X141097000Y-30077000D01*
X142071600Y-43519600D02*
X141605000Y-43053000D01*
X142071600Y-44162100D02*
X142071600Y-43519600D01*
%TO.N,/Diode_Cont*%
X142494000Y-44139700D02*
X142471600Y-44162100D01*
X142494000Y-43180000D02*
X142494000Y-44139700D01*
X140225000Y-29608000D02*
X140335000Y-29718000D01*
X140225000Y-27490000D02*
X140225000Y-29608000D01*
%TO.N,Net-(U5-PROG)*%
X138140000Y-37537500D02*
X138030000Y-37427500D01*
X138140000Y-39390000D02*
X138140000Y-37537500D01*
%TO.N,+3.3V*%
X143671600Y-44592724D02*
X143671600Y-44162100D01*
X143437724Y-44826600D02*
X143671600Y-44592724D01*
X140298600Y-44826600D02*
X143437724Y-44826600D01*
X140071600Y-44599600D02*
X140298600Y-44826600D01*
D46*
X134492000Y-51405500D02*
X135727500Y-50170000D01*
X134492000Y-53818000D02*
X134492000Y-51405500D01*
X133650000Y-54660000D02*
X134492000Y-53818000D01*
D48*
X140498494Y-55010000D02*
X139848500Y-54360006D01*
X143596500Y-55010000D02*
X140498494Y-55010000D01*
X144631500Y-53975000D02*
X143596500Y-55010000D01*
X139848500Y-54360006D02*
X139848500Y-53035200D01*
X146460500Y-57882500D02*
X145669000Y-57091000D01*
X144631500Y-53975000D02*
X144631500Y-56053500D01*
X144631500Y-56053500D02*
X146460500Y-57882500D01*
X148644000Y-60066000D02*
X146460500Y-57882500D01*
X144509100Y-49799600D02*
X144509100Y-50199600D01*
X148644000Y-58034000D02*
X148644000Y-60066000D01*
X149458500Y-52706000D02*
X149458500Y-57219500D01*
X149458500Y-57219500D02*
X148644000Y-58034000D01*
X148568500Y-51816000D02*
X149458500Y-52706000D01*
X150165494Y-46823000D02*
X149140000Y-47848494D01*
X149140000Y-49202500D02*
X148612500Y-49730000D01*
X151474506Y-46823000D02*
X150165494Y-46823000D01*
X149140000Y-47848494D02*
X149140000Y-49202500D01*
X151900000Y-46397506D02*
X151474506Y-46823000D01*
X151900000Y-44847500D02*
X151900000Y-46397506D01*
X149030000Y-41977500D02*
X151900000Y-44847500D01*
X146972500Y-39920000D02*
X149030000Y-41977500D01*
X146700000Y-39920000D02*
X146972500Y-39920000D01*
X146462500Y-39920000D02*
X146700000Y-39920000D01*
X143990000Y-37447500D02*
X146462500Y-39920000D01*
X143970000Y-37467500D02*
X143990000Y-37447500D01*
X142090000Y-37467500D02*
X143970000Y-37467500D01*
X146700000Y-39920000D02*
X145572300Y-39920000D01*
X145572300Y-39920000D02*
X143836300Y-41656000D01*
X143836300Y-43997400D02*
X143671600Y-44162100D01*
X143836300Y-41656000D02*
X143836300Y-43997400D01*
X135727500Y-49819500D02*
X135727500Y-50170000D01*
X136512000Y-49035000D02*
X135727500Y-49819500D01*
X136512000Y-48484200D02*
X136512000Y-49035000D01*
X137196600Y-47799600D02*
X136512000Y-48484200D01*
X137634100Y-47799600D02*
X137196600Y-47799600D01*
D45*
%TO.N,Net-(U2-VREG_VOUT)*%
X137238832Y-48199600D02*
X137634100Y-48199600D01*
X136906000Y-48532432D02*
X137238832Y-48199600D01*
X136906000Y-49340694D02*
X136906000Y-48532432D01*
X136707000Y-49539694D02*
X136906000Y-49340694D01*
X135727500Y-52310000D02*
X136707000Y-51330500D01*
X136707000Y-51330500D02*
X136707000Y-49539694D01*
D48*
%TO.N,+3.3V*%
X140071600Y-43724600D02*
X140071600Y-44162100D01*
X137900500Y-41656000D02*
X138003000Y-41656000D01*
X138003000Y-41656000D02*
X140071600Y-43724600D01*
%TO.N,Net-(U2-XIN)*%
X137203476Y-46999600D02*
X137634100Y-46999600D01*
X136332000Y-45273000D02*
X136779000Y-45720000D01*
X136779000Y-45720000D02*
X136779000Y-46575124D01*
X134928000Y-45273000D02*
X136332000Y-45273000D01*
X136779000Y-46575124D02*
X137203476Y-46999600D01*
X133980000Y-44325000D02*
X134928000Y-45273000D01*
%TO.N,Net-(U2-XOUT)*%
X136417900Y-47399600D02*
X137634100Y-47399600D01*
X135697500Y-48120000D02*
X136417900Y-47399600D01*
X135380000Y-46075000D02*
X135380000Y-47802500D01*
X135380000Y-47802500D02*
X135697500Y-48120000D01*
%TO.N,Net-(U2-XIN)*%
X133682500Y-44027500D02*
X133980000Y-44325000D01*
X133682500Y-42320000D02*
X133682500Y-44027500D01*
%TO.N,Net-(U5-STAT)*%
X138176000Y-35006500D02*
X138030000Y-35152500D01*
X138176000Y-33401000D02*
X138176000Y-35006500D01*
X130962400Y-31140400D02*
X132080000Y-32258000D01*
X130844800Y-31140400D02*
X130962400Y-31140400D01*
%TO.N,Net-(D1-K)*%
X126958200Y-31140400D02*
X128844800Y-31140400D01*
D47*
%TO.N,+5V*%
X126602988Y-33286156D02*
X128509711Y-35192879D01*
X126602988Y-32835188D02*
X126602988Y-33286156D01*
X124908200Y-31140400D02*
X126602988Y-32835188D01*
D49*
X128202119Y-35192879D02*
X128509711Y-35192879D01*
X130155808Y-39879936D02*
X130030744Y-40005000D01*
D47*
X129923029Y-35339995D02*
X130156062Y-35106962D01*
X128656827Y-35339995D02*
X129923029Y-35339995D01*
X128509711Y-35192879D02*
X128656827Y-35339995D01*
X134180000Y-37914000D02*
X133223000Y-36957000D01*
X134180000Y-38017500D02*
X134180000Y-37914000D01*
X136130000Y-37427500D02*
X134770000Y-37427500D01*
X134770000Y-37427500D02*
X134180000Y-38017500D01*
%TO.N,+BATT*%
X143293100Y-25743100D02*
X149280000Y-31730000D01*
X132779100Y-25743100D02*
X143293100Y-25743100D01*
X131739600Y-26782600D02*
X132779100Y-25743100D01*
%TO.N,Net-(SW2A-A)*%
X143552500Y-33730000D02*
X149280000Y-33730000D01*
X142090000Y-35192500D02*
X143552500Y-33730000D01*
X142090000Y-35654448D02*
X142090000Y-35192500D01*
X140567001Y-36232000D02*
X141512448Y-36232000D01*
X141512448Y-36232000D02*
X142090000Y-35654448D01*
X140190000Y-35854999D02*
X140567001Y-36232000D01*
X140190000Y-35192500D02*
X140190000Y-35854999D01*
X140152500Y-35155000D02*
X140190000Y-35192500D01*
X140152500Y-33120000D02*
X140152500Y-35155000D01*
%TO.N,Net-(Q1-G)*%
X138260000Y-31150000D02*
X138180000Y-31230000D01*
X140170000Y-31150000D02*
X138260000Y-31150000D01*
X138087000Y-31230000D02*
X138180000Y-31230000D01*
X133639600Y-26782600D02*
X138087000Y-31230000D01*
%TO.N,+BATT*%
X134325000Y-33347500D02*
X136130000Y-35152500D01*
X134140000Y-33347500D02*
X134325000Y-33347500D01*
X133038000Y-31565000D02*
X133038000Y-32245500D01*
X131739600Y-30266600D02*
X133038000Y-31565000D01*
X131739600Y-26782600D02*
X131739600Y-30266600D01*
X133038000Y-32245500D02*
X134140000Y-33347500D01*
X129178400Y-26782600D02*
X128579800Y-27381200D01*
X131739600Y-26782600D02*
X129178400Y-26782600D01*
D48*
%TO.N,GND*%
X130156062Y-41300054D02*
X129506075Y-41950041D01*
X130156062Y-40680038D02*
X130156062Y-41300054D01*
%TO.N,Net-(U6-CC2)*%
X132060000Y-38229744D02*
X132060000Y-38090000D01*
X130156062Y-39380064D02*
X130909680Y-39380064D01*
X130909680Y-39380064D02*
X132060000Y-38229744D01*
%TO.N,Net-(U6-CC1)*%
X130156062Y-36380064D02*
X131719936Y-36380064D01*
X131719936Y-36380064D02*
X132070000Y-36030000D01*
%TO.N,/USB_DP*%
X130129690Y-37406436D02*
X130156062Y-37380064D01*
X128524000Y-37406436D02*
X130129690Y-37406436D01*
%TO.N,/USB_DM*%
X126492000Y-37973000D02*
X130062998Y-37973000D01*
X126365000Y-37846000D02*
X126492000Y-37973000D01*
X130062998Y-37973000D02*
X130156062Y-37879936D01*
%TO.N,/USB_DP*%
X128606436Y-38380064D02*
X130156062Y-38380064D01*
X128270000Y-38716500D02*
X128606436Y-38380064D01*
%TO.N,/USB_DM*%
X127331064Y-36879936D02*
X130156062Y-36879936D01*
X126365000Y-37846000D02*
X127331064Y-36879936D01*
X143733892Y-48999600D02*
X143506146Y-48771854D01*
X144509100Y-48999600D02*
X143733892Y-48999600D01*
%TO.N,/USB_DP*%
X143599565Y-47990665D02*
X143599565Y-48120689D01*
X143599565Y-48120689D02*
X144078476Y-48599600D01*
X144078476Y-48599600D02*
X144509100Y-48599600D01*
D45*
%TO.N,Net-(U2-VREG_VOUT)*%
X142875000Y-49401600D02*
X143129000Y-49401600D01*
X142875000Y-48006000D02*
X142875000Y-49401600D01*
X143481400Y-47399600D02*
X142875000Y-48006000D01*
X144509100Y-47399600D02*
X143481400Y-47399600D01*
D48*
%TO.N,/QSPI_SD3*%
X146677125Y-48374500D02*
X148613000Y-48374500D01*
X148613000Y-48374500D02*
X148640000Y-48347500D01*
X145302225Y-46999600D02*
X146677125Y-48374500D01*
X144509100Y-46999600D02*
X145302225Y-46999600D01*
X148640000Y-48347500D02*
X148640000Y-47847500D01*
%TO.N,/QSPI_SCLK*%
X148082000Y-47789500D02*
X148140000Y-47847500D01*
X148082000Y-47174002D02*
X148082000Y-47789500D01*
X144509100Y-46599600D02*
X145647516Y-46599600D01*
X145647516Y-46599600D02*
X146424958Y-47377042D01*
%TO.N,/QSPI_SD0*%
X145992100Y-46199600D02*
X147640000Y-47847500D01*
X144509100Y-46199600D02*
X145992100Y-46199600D01*
%TO.N,/QSPI_SD2*%
X148140000Y-44843448D02*
X148140000Y-45347500D01*
X147438552Y-44142000D02*
X148140000Y-44843448D01*
X146666648Y-44142000D02*
X147438552Y-44142000D01*
X144509100Y-45799600D02*
X145009048Y-45799600D01*
X145009048Y-45799600D02*
X146666648Y-44142000D01*
%TO.N,/QSPI_SD1*%
X147574000Y-43815000D02*
X148640000Y-44881000D01*
X148640000Y-44881000D02*
X148640000Y-45347500D01*
X146531200Y-43815000D02*
X147574000Y-43815000D01*
X144946600Y-45399600D02*
X146531200Y-43815000D01*
X144509100Y-45399600D02*
X144946600Y-45399600D01*
%TO.N,/QSPI_SS*%
X146700000Y-42808700D02*
X144509100Y-44999600D01*
X146700000Y-41920000D02*
X146700000Y-42808700D01*
X149140000Y-44360000D02*
X146700000Y-41920000D01*
X149140000Y-45347500D02*
X149140000Y-44360000D01*
X149442500Y-45650000D02*
X149140000Y-45347500D01*
X150820000Y-45650000D02*
X149442500Y-45650000D01*
%TO.N,+3.3V*%
X144509100Y-47799600D02*
X144509100Y-48199600D01*
X148612500Y-51772000D02*
X148568500Y-51816000D01*
X148612500Y-49730000D02*
X148612500Y-51772000D01*
X149140000Y-49202500D02*
X149140000Y-47847500D01*
X148568500Y-51816000D02*
X144952100Y-48199600D01*
X144952100Y-48199600D02*
X144509100Y-48199600D01*
%TO.N,Net-(U2-VREG_VOUT)*%
X148644000Y-53996500D02*
X148622500Y-53975000D01*
X148644000Y-56002000D02*
X148644000Y-53996500D01*
D45*
X147779000Y-52232000D02*
X147779000Y-53131500D01*
X144946600Y-49399600D02*
X147779000Y-52232000D01*
X144509100Y-49399600D02*
X144946600Y-49399600D01*
X147779000Y-53131500D02*
X148622500Y-53975000D01*
D48*
%TO.N,+3.3V*%
X139848500Y-53035200D02*
X140071600Y-52812100D01*
X140071600Y-52812100D02*
X140071600Y-51037100D01*
X144631500Y-51997000D02*
X143671600Y-51037100D01*
X144631500Y-53975000D02*
X144631500Y-51997000D01*
X144919508Y-49799600D02*
X144509100Y-49799600D01*
X145892000Y-50772092D02*
X144919508Y-49799600D01*
X145892000Y-55282000D02*
X145892000Y-50772092D01*
X148644000Y-58034000D02*
X145892000Y-55282000D01*
X145669000Y-51359500D02*
X144509100Y-50199600D01*
X145669000Y-57091000D02*
X145669000Y-51359500D01*
D45*
%TO.N,Net-(U2-VREG_VOUT)*%
X139271000Y-49403000D02*
X143127600Y-49403000D01*
X139160999Y-49292999D02*
X139271000Y-49403000D01*
X143127600Y-49403000D02*
X143129000Y-49401600D01*
X138811000Y-48199600D02*
X139160999Y-48549599D01*
X139160999Y-48549599D02*
X139160999Y-49292999D01*
X137634100Y-48199600D02*
X138811000Y-48199600D01*
X143129000Y-49401600D02*
X144507100Y-49401600D01*
X144507100Y-49401600D02*
X144509100Y-49399600D01*
%TO.N,/SWCLK*%
X138338598Y-48599600D02*
X138658999Y-48920001D01*
X137634100Y-48599600D02*
X138338598Y-48599600D01*
%TO.N,/SWDIO*%
X138557000Y-49527232D02*
X138029368Y-48999600D01*
X138029368Y-48999600D02*
X137634100Y-48999600D01*
X138557000Y-50165000D02*
X138557000Y-49527232D01*
%TO.N,+3.3V*%
X127508000Y-56979110D02*
X127508000Y-56896000D01*
%TO.N,/MICOUT*%
X125349000Y-56642000D02*
X125476000Y-56642000D01*
%TO.N,Net-(JP3-B)*%
X151765000Y-48595000D02*
X150820000Y-47650000D01*
X151765000Y-60478652D02*
X151765000Y-48595000D01*
X150922000Y-60993000D02*
X151250652Y-60993000D01*
X151250652Y-60993000D02*
X151765000Y-60478652D01*
X149355000Y-62560000D02*
X150922000Y-60993000D01*
%TO.N,Net-(JP2-A)*%
X135650000Y-54660000D02*
X137865000Y-54660000D01*
X137865000Y-54660000D02*
X145785000Y-62580000D01*
X137238832Y-49399600D02*
X137634100Y-49399600D01*
X136984000Y-53326000D02*
X136984000Y-49654432D01*
X136984000Y-49654432D02*
X137238832Y-49399600D01*
X135650000Y-54660000D02*
X136984000Y-53326000D01*
%TO.N,/MICOUT*%
X142361000Y-52838785D02*
X140716785Y-54483000D01*
X142361000Y-51721768D02*
X142361000Y-52838785D01*
X142071600Y-51432368D02*
X142361000Y-51721768D01*
X142071600Y-51037100D02*
X142071600Y-51432368D01*
%TO.N,/GAIN*%
X141271600Y-51474600D02*
X141271600Y-51037100D01*
X141224000Y-51522200D02*
X141271600Y-51474600D01*
X141224000Y-52698500D02*
X141224000Y-51522200D01*
X141230500Y-52705000D02*
X141224000Y-52698500D01*
%TO.N,/A{slash}R*%
X141671600Y-51882600D02*
X141671600Y-51037100D01*
X141859000Y-52070000D02*
X141671600Y-51882600D01*
%TO.N,/GAIN*%
X132880000Y-58462500D02*
X132380000Y-58462500D01*
X133043000Y-58299500D02*
X132880000Y-58462500D01*
X135382000Y-58299500D02*
X133043000Y-58299500D01*
%TO.N,/A{slash}R*%
X134685500Y-58862500D02*
X134747000Y-58801000D01*
X132380000Y-58862500D02*
X134685500Y-58862500D01*
%TO.N,/TH*%
X133671627Y-56862500D02*
X134096521Y-56437606D01*
X132380000Y-56862500D02*
X133671627Y-56862500D01*
%TO.N,/MICBIAS*%
X134126500Y-57262500D02*
X132380000Y-57262500D01*
X134239000Y-57150000D02*
X134126500Y-57262500D01*
%TO.N,/TH*%
X127508000Y-58817000D02*
X127901000Y-58817000D01*
X127901000Y-58817000D02*
X130429000Y-61345000D01*
X125515000Y-60810000D02*
X127508000Y-58817000D01*
X125349000Y-60810000D02*
X125515000Y-60810000D01*
%TO.N,/MICBIAS*%
X127508000Y-62680000D02*
X127238000Y-62950000D01*
X127508000Y-60817000D02*
X127508000Y-62680000D01*
X130274000Y-62950000D02*
X130429000Y-62795000D01*
X127238000Y-62950000D02*
X130274000Y-62950000D01*
%TO.N,Net-(C19-Pad1)*%
X139239994Y-60990000D02*
X136377994Y-63852000D01*
X136377994Y-63852000D02*
X126140000Y-63852000D01*
X126140000Y-63852000D02*
X125238000Y-62950000D01*
X132969000Y-60811500D02*
X133731000Y-60811500D01*
X132969000Y-60811500D02*
X139061494Y-60811500D01*
X139061494Y-60811500D02*
X139239994Y-60990000D01*
%TO.N,/MICIN*%
X135868500Y-62886500D02*
X135890000Y-62865000D01*
X132969000Y-62886500D02*
X135868500Y-62886500D01*
X132042000Y-61959500D02*
X132969000Y-62886500D01*
X132042000Y-59600500D02*
X132042000Y-61959500D01*
X132380000Y-59262500D02*
X132042000Y-59600500D01*
%TO.N,Net-(U1-BIAS)*%
X134429000Y-55562000D02*
X132224500Y-55562000D01*
X135037000Y-56170000D02*
X134429000Y-55562000D01*
X135037000Y-57254152D02*
X135037000Y-56170000D01*
X134628652Y-57662500D02*
X135037000Y-57254152D01*
X132224500Y-55562000D02*
X131530000Y-54867500D01*
X132380000Y-57662500D02*
X134628652Y-57662500D01*
%TO.N,Net-(U1-CT)*%
X130327000Y-55965500D02*
X130327000Y-53219500D01*
X129430000Y-56862500D02*
X130327000Y-55965500D01*
X130327000Y-53219500D02*
X129517500Y-52410000D01*
%TD*%
%TA.AperFunction,Conductor*%
%TO.N,GND*%
G36*
X137642297Y-55255185D02*
G01*
X137662939Y-55271819D01*
X144743034Y-62351914D01*
X144776519Y-62413237D01*
X144779353Y-62439595D01*
X144779353Y-63330000D01*
X144784499Y-63401960D01*
X144784500Y-63401965D01*
X144825045Y-63540050D01*
X144825047Y-63540053D01*
X144902857Y-63661128D01*
X145011627Y-63755377D01*
X145026314Y-63762084D01*
X145027675Y-63762706D01*
X145080479Y-63808461D01*
X145100163Y-63875500D01*
X145080478Y-63942540D01*
X145027674Y-63988294D01*
X144976163Y-63999500D01*
X137343736Y-63999500D01*
X137276697Y-63979815D01*
X137230942Y-63927011D01*
X137220998Y-63857853D01*
X137250023Y-63794297D01*
X137256055Y-63787819D01*
X138678853Y-62365020D01*
X138740176Y-62331535D01*
X138766534Y-62328701D01*
X140126067Y-62328701D01*
X140126068Y-62328701D01*
X140185679Y-62322293D01*
X140320527Y-62271998D01*
X140435742Y-62185748D01*
X140521992Y-62070533D01*
X140572287Y-61935685D01*
X140578696Y-61876075D01*
X140578695Y-60103926D01*
X140572287Y-60044315D01*
X140552529Y-59991342D01*
X140521993Y-59909469D01*
X140521989Y-59909462D01*
X140435743Y-59794253D01*
X140435740Y-59794250D01*
X140320531Y-59708004D01*
X140320524Y-59708000D01*
X140185678Y-59657706D01*
X140185679Y-59657706D01*
X140126079Y-59651299D01*
X140126077Y-59651298D01*
X140126069Y-59651298D01*
X140126060Y-59651298D01*
X138353921Y-59651298D01*
X138353915Y-59651299D01*
X138294308Y-59657706D01*
X138159463Y-59708000D01*
X138159456Y-59708004D01*
X138044247Y-59794250D01*
X138044244Y-59794253D01*
X137957998Y-59909462D01*
X137957994Y-59909469D01*
X137907700Y-60044315D01*
X137901293Y-60103914D01*
X137901293Y-60103921D01*
X137901292Y-60103933D01*
X137901292Y-60112000D01*
X137881607Y-60179039D01*
X137828803Y-60224794D01*
X137777292Y-60236000D01*
X134245307Y-60236000D01*
X134178268Y-60216315D01*
X134132513Y-60163511D01*
X134130238Y-60157718D01*
X134128817Y-60154671D01*
X134120179Y-60140666D01*
X134036712Y-60005344D01*
X133912656Y-59881288D01*
X133771549Y-59794253D01*
X133763336Y-59789187D01*
X133763331Y-59789185D01*
X133761862Y-59788698D01*
X133596797Y-59734001D01*
X133596795Y-59734000D01*
X133494016Y-59723500D01*
X133494009Y-59723500D01*
X133317453Y-59723500D01*
X133250414Y-59703815D01*
X133204659Y-59651011D01*
X133194715Y-59581853D01*
X133201271Y-59556166D01*
X133206929Y-59540998D01*
X133215258Y-59518666D01*
X133257130Y-59462732D01*
X133322595Y-59438316D01*
X133331440Y-59438000D01*
X134220447Y-59438000D01*
X134286418Y-59457005D01*
X134397478Y-59526789D01*
X134500349Y-59562785D01*
X134567745Y-59586368D01*
X134567750Y-59586369D01*
X134746996Y-59606565D01*
X134747000Y-59606565D01*
X134747004Y-59606565D01*
X134926249Y-59586369D01*
X134926252Y-59586368D01*
X134926255Y-59586368D01*
X135096522Y-59526789D01*
X135249262Y-59430816D01*
X135376816Y-59303262D01*
X135472789Y-59150522D01*
X135472788Y-59150522D01*
X135476494Y-59144626D01*
X135478260Y-59145735D01*
X135518297Y-59101389D01*
X135555608Y-59086157D01*
X135561249Y-59084868D01*
X135561255Y-59084868D01*
X135731522Y-59025289D01*
X135884262Y-58929316D01*
X136011816Y-58801762D01*
X136107789Y-58649022D01*
X136167368Y-58478755D01*
X136174328Y-58416983D01*
X136187565Y-58299503D01*
X136187565Y-58299496D01*
X136167369Y-58120250D01*
X136167368Y-58120245D01*
X136162325Y-58105833D01*
X136107789Y-57949978D01*
X136011816Y-57797238D01*
X135884262Y-57669684D01*
X135849402Y-57647780D01*
X135731523Y-57573711D01*
X135676277Y-57554380D01*
X135619501Y-57513658D01*
X135593754Y-57448705D01*
X135596842Y-57412475D01*
X135596626Y-57412447D01*
X135597247Y-57407726D01*
X135597460Y-57405235D01*
X135597685Y-57404391D01*
X135597687Y-57404388D01*
X135598460Y-57398518D01*
X135612500Y-57291872D01*
X135612500Y-57291866D01*
X135617465Y-57254152D01*
X135613030Y-57220468D01*
X135612500Y-57212371D01*
X135612500Y-56211780D01*
X135613031Y-56203678D01*
X135617465Y-56169999D01*
X135613481Y-56139739D01*
X135612766Y-56134313D01*
X135612765Y-56134294D01*
X135610322Y-56115736D01*
X135597687Y-56019764D01*
X135597684Y-56019757D01*
X135596836Y-56016589D01*
X135596902Y-56013805D01*
X135596626Y-56011707D01*
X135596953Y-56011663D01*
X135598501Y-55946739D01*
X135637665Y-55888878D01*
X135701894Y-55861376D01*
X135716612Y-55860499D01*
X136050002Y-55860499D01*
X136050008Y-55860499D01*
X136152797Y-55849999D01*
X136319334Y-55794814D01*
X136468656Y-55702712D01*
X136592712Y-55578656D01*
X136684814Y-55429334D01*
X136720879Y-55320494D01*
X136760652Y-55263051D01*
X136825167Y-55236228D01*
X136838585Y-55235500D01*
X137575258Y-55235500D01*
X137642297Y-55255185D01*
G37*
%TD.AperFunction*%
%TA.AperFunction,Conductor*%
G36*
X137814139Y-50819785D02*
G01*
X137859894Y-50872589D01*
X137871100Y-50924100D01*
X137871100Y-51467702D01*
X137876726Y-51514554D01*
X137881722Y-51556161D01*
X137937239Y-51696943D01*
X138028677Y-51817522D01*
X138149256Y-51908960D01*
X138149257Y-51908960D01*
X138149258Y-51908961D01*
X138290036Y-51964477D01*
X138378498Y-51975100D01*
X138378503Y-51975100D01*
X138564703Y-51975100D01*
X138580778Y-51973169D01*
X138653164Y-51964477D01*
X138653165Y-51964476D01*
X138656815Y-51964038D01*
X138686385Y-51964038D01*
X138690034Y-51964476D01*
X138690036Y-51964477D01*
X138769643Y-51974036D01*
X138782178Y-51975542D01*
X138781975Y-51977229D01*
X138841312Y-51998565D01*
X138883842Y-52054000D01*
X138889650Y-52123627D01*
X138873720Y-52163800D01*
X138826189Y-52240859D01*
X138826185Y-52240868D01*
X138821164Y-52256022D01*
X138771001Y-52407403D01*
X138771001Y-52407404D01*
X138771000Y-52407404D01*
X138760500Y-52510183D01*
X138760500Y-53560201D01*
X138760501Y-53560219D01*
X138771000Y-53662996D01*
X138771001Y-53662999D01*
X138826185Y-53829531D01*
X138826187Y-53829536D01*
X138856880Y-53879297D01*
X138918288Y-53978856D01*
X139042344Y-54102912D01*
X139189097Y-54193429D01*
X139235821Y-54245375D01*
X139248000Y-54298967D01*
X139248000Y-54316577D01*
X139247469Y-54324675D01*
X139242818Y-54360006D01*
X139246742Y-54389815D01*
X139248000Y-54399366D01*
X139263455Y-54516766D01*
X139263456Y-54516768D01*
X139323964Y-54662847D01*
X139420218Y-54788288D01*
X139448495Y-54809986D01*
X139454585Y-54815326D01*
X139846918Y-55207659D01*
X140043163Y-55403904D01*
X140048514Y-55410005D01*
X140070212Y-55438282D01*
X140188391Y-55528964D01*
X140195653Y-55534536D01*
X140341732Y-55595044D01*
X140420113Y-55605363D01*
X140498493Y-55615682D01*
X140498494Y-55615682D01*
X140533823Y-55611030D01*
X140541922Y-55610500D01*
X143553072Y-55610500D01*
X143561170Y-55611030D01*
X143596500Y-55615682D01*
X143596501Y-55615682D01*
X143648754Y-55608802D01*
X143753262Y-55595044D01*
X143859547Y-55551018D01*
X143929017Y-55543550D01*
X143991496Y-55574825D01*
X144027148Y-55634914D01*
X144031000Y-55665580D01*
X144031000Y-56010071D01*
X144030469Y-56018169D01*
X144029336Y-56026780D01*
X144025975Y-56052311D01*
X144025818Y-56053500D01*
X144034927Y-56122687D01*
X144041183Y-56170211D01*
X144046456Y-56210260D01*
X144046456Y-56210262D01*
X144102584Y-56345768D01*
X144106964Y-56356341D01*
X144203218Y-56481782D01*
X144231495Y-56503480D01*
X144237585Y-56508820D01*
X144755492Y-57026727D01*
X145213669Y-57484904D01*
X145219022Y-57491007D01*
X145236402Y-57513658D01*
X145240718Y-57519282D01*
X145268995Y-57540980D01*
X145275085Y-57546320D01*
X146008050Y-58279285D01*
X146404504Y-58675739D01*
X147519681Y-59790916D01*
X147553166Y-59852239D01*
X147556000Y-59878597D01*
X147556000Y-60591001D01*
X147556001Y-60591019D01*
X147566500Y-60693796D01*
X147566501Y-60693799D01*
X147621685Y-60860331D01*
X147621687Y-60860336D01*
X147639431Y-60889103D01*
X147713788Y-61009656D01*
X147837844Y-61133712D01*
X147987166Y-61225814D01*
X148153703Y-61280999D01*
X148256491Y-61291500D01*
X148370505Y-61291499D01*
X148437543Y-61311183D01*
X148483298Y-61363987D01*
X148493242Y-61433145D01*
X148464218Y-61496700D01*
X148429625Y-61536622D01*
X148429622Y-61536628D01*
X148369834Y-61667543D01*
X148349353Y-61810001D01*
X148349353Y-63310000D01*
X148354499Y-63381960D01*
X148354500Y-63381965D01*
X148395045Y-63520050D01*
X148395047Y-63520053D01*
X148472857Y-63641128D01*
X148581627Y-63735377D01*
X148621627Y-63753644D01*
X148641468Y-63762706D01*
X148694272Y-63808461D01*
X148713956Y-63875501D01*
X148694271Y-63942540D01*
X148641467Y-63988295D01*
X148589956Y-63999500D01*
X146590275Y-63999500D01*
X146523236Y-63979815D01*
X146477481Y-63927011D01*
X146467537Y-63857853D01*
X146496562Y-63794297D01*
X146524998Y-63770073D01*
X146609657Y-63717655D01*
X146609658Y-63717654D01*
X146609657Y-63717654D01*
X146609660Y-63717653D01*
X146705724Y-63610482D01*
X147205724Y-62860482D01*
X147214911Y-62846187D01*
X147272490Y-62714285D01*
X147285499Y-62611583D01*
X147290576Y-62571506D01*
X147267704Y-62429415D01*
X147267703Y-62429411D01*
X147205725Y-62299519D01*
X146763149Y-61635656D01*
X146705724Y-61549518D01*
X146667143Y-61498872D01*
X146667139Y-61498869D01*
X146667136Y-61498865D01*
X146558377Y-61404625D01*
X146558371Y-61404622D01*
X146427456Y-61344834D01*
X146320812Y-61329502D01*
X146285000Y-61324353D01*
X146284998Y-61324353D01*
X145394595Y-61324353D01*
X145327556Y-61304668D01*
X145306914Y-61288034D01*
X138301489Y-54282609D01*
X138296136Y-54276506D01*
X138289496Y-54267853D01*
X138275451Y-54249549D01*
X138275449Y-54249547D01*
X138275448Y-54249546D01*
X138246963Y-54227689D01*
X138246952Y-54227680D01*
X138155232Y-54157301D01*
X138073224Y-54123332D01*
X138015236Y-54099313D01*
X137961906Y-54092291D01*
X137899098Y-54084023D01*
X137899083Y-54084021D01*
X137872196Y-54080482D01*
X137865000Y-54079535D01*
X137864999Y-54079535D01*
X137864998Y-54079535D01*
X137845965Y-54082040D01*
X137831317Y-54083969D01*
X137823219Y-54084500D01*
X137338741Y-54084500D01*
X137271702Y-54064815D01*
X137225947Y-54012011D01*
X137216003Y-53942853D01*
X137245028Y-53879297D01*
X137251040Y-53872838D01*
X137361398Y-53762480D01*
X137367489Y-53757138D01*
X137394451Y-53736451D01*
X137411405Y-53714356D01*
X137417610Y-53706269D01*
X137417612Y-53706268D01*
X137486699Y-53616233D01*
X137539959Y-53487650D01*
X137544687Y-53476236D01*
X137559500Y-53363720D01*
X137559500Y-53363714D01*
X137564465Y-53326000D01*
X137560030Y-53292316D01*
X137559500Y-53284219D01*
X137559500Y-50924100D01*
X137579185Y-50857061D01*
X137631989Y-50811306D01*
X137683500Y-50800100D01*
X137747100Y-50800100D01*
X137814139Y-50819785D01*
G37*
%TD.AperFunction*%
%TA.AperFunction,Conductor*%
G36*
X151918834Y-61241211D02*
G01*
X151974767Y-61283083D01*
X151999184Y-61348548D01*
X151999500Y-61357393D01*
X151999500Y-63875500D01*
X151979815Y-63942539D01*
X151927011Y-63988294D01*
X151875500Y-63999500D01*
X150281959Y-63999500D01*
X150214920Y-63979815D01*
X150169165Y-63927011D01*
X150159221Y-63857853D01*
X150188246Y-63794297D01*
X150216413Y-63772838D01*
X150215373Y-63771277D01*
X150228230Y-63762706D01*
X150342503Y-63686525D01*
X150434911Y-63576187D01*
X150492490Y-63444285D01*
X150501533Y-63372894D01*
X150510576Y-63301506D01*
X150487704Y-63159415D01*
X150487703Y-63159411D01*
X150425725Y-63029519D01*
X150191567Y-62678282D01*
X150170759Y-62611583D01*
X150189314Y-62544222D01*
X150207055Y-62521823D01*
X151123256Y-61605623D01*
X151184577Y-61572140D01*
X151227119Y-61570367D01*
X151250652Y-61573465D01*
X151286437Y-61568754D01*
X151286461Y-61568751D01*
X151288367Y-61568500D01*
X151288372Y-61568500D01*
X151400888Y-61553687D01*
X151540885Y-61495698D01*
X151562813Y-61478872D01*
X151639012Y-61420403D01*
X151639016Y-61420398D01*
X151661103Y-61403451D01*
X151681790Y-61376489D01*
X151687132Y-61370398D01*
X151787821Y-61269709D01*
X151849143Y-61236227D01*
X151918834Y-61241211D01*
G37*
%TD.AperFunction*%
%TA.AperFunction,Conductor*%
G36*
X149929595Y-48610137D02*
G01*
X149966208Y-48632720D01*
X150050657Y-48684809D01*
X150050660Y-48684810D01*
X150050666Y-48684814D01*
X150217203Y-48739999D01*
X150319991Y-48750500D01*
X151055257Y-48750499D01*
X151122296Y-48770183D01*
X151142938Y-48786818D01*
X151153181Y-48797061D01*
X151186666Y-48858384D01*
X151189500Y-48884742D01*
X151189500Y-60188910D01*
X151169815Y-60255949D01*
X151153185Y-60276586D01*
X151090419Y-60339353D01*
X151049397Y-60380375D01*
X150988074Y-60413859D01*
X150945531Y-60415631D01*
X150922000Y-60412534D01*
X150884280Y-60417500D01*
X150868154Y-60419623D01*
X150771767Y-60432312D01*
X150771764Y-60432312D01*
X150771764Y-60432313D01*
X150713776Y-60456332D01*
X150631772Y-60490298D01*
X150631767Y-60490301D01*
X150542845Y-60558533D01*
X150542824Y-60558549D01*
X150511549Y-60582549D01*
X150490862Y-60609507D01*
X150485510Y-60615608D01*
X150146525Y-60954595D01*
X149833086Y-61268034D01*
X149771763Y-61301519D01*
X149745405Y-61304353D01*
X149578877Y-61304353D01*
X149511838Y-61284668D01*
X149466083Y-61231864D01*
X149456139Y-61162706D01*
X149485164Y-61099150D01*
X149491196Y-61092672D01*
X149526836Y-61057032D01*
X149574212Y-61009656D01*
X149666314Y-60860334D01*
X149721499Y-60693797D01*
X149732000Y-60591009D01*
X149731999Y-59540992D01*
X149729718Y-59518666D01*
X149721499Y-59438203D01*
X149721498Y-59438200D01*
X149690630Y-59345047D01*
X149666314Y-59271666D01*
X149574212Y-59122344D01*
X149574210Y-59122342D01*
X149570420Y-59116197D01*
X149572888Y-59114674D01*
X149551684Y-59062129D01*
X149564716Y-58993486D01*
X149570791Y-58984032D01*
X149570420Y-58983803D01*
X149574210Y-58977657D01*
X149574212Y-58977656D01*
X149666314Y-58828334D01*
X149721499Y-58661797D01*
X149732000Y-58559009D01*
X149731999Y-57846595D01*
X149751683Y-57779557D01*
X149768313Y-57758920D01*
X149852422Y-57674811D01*
X149858499Y-57669483D01*
X149886782Y-57647782D01*
X149983036Y-57522341D01*
X150043544Y-57376262D01*
X150053553Y-57300235D01*
X150064182Y-57219500D01*
X150063243Y-57212371D01*
X150059531Y-57184173D01*
X150059000Y-57176071D01*
X150059000Y-52749428D01*
X150059531Y-52741326D01*
X150064182Y-52705999D01*
X150064182Y-52705998D01*
X150043544Y-52549239D01*
X150043542Y-52549234D01*
X149983038Y-52403163D01*
X149983037Y-52403162D01*
X149983036Y-52403159D01*
X149946449Y-52355478D01*
X149886782Y-52277718D01*
X149858505Y-52256020D01*
X149852404Y-52250669D01*
X149692818Y-52091083D01*
X149659333Y-52029760D01*
X149656499Y-52003402D01*
X149656499Y-51290998D01*
X149656498Y-51290981D01*
X149645999Y-51188203D01*
X149645998Y-51188200D01*
X149641096Y-51173406D01*
X149590814Y-51021666D01*
X149498712Y-50872344D01*
X149498710Y-50872342D01*
X149494920Y-50866197D01*
X149496026Y-50865514D01*
X149472712Y-50807736D01*
X149485747Y-50739093D01*
X149508435Y-50707932D01*
X149542712Y-50673656D01*
X149634814Y-50524334D01*
X149689999Y-50357797D01*
X149700500Y-50255009D01*
X149700499Y-49443182D01*
X149709937Y-49395732D01*
X149725044Y-49359262D01*
X149736254Y-49274116D01*
X149745682Y-49202501D01*
X149745682Y-49202499D01*
X149741031Y-49167173D01*
X149740500Y-49159071D01*
X149740500Y-48715676D01*
X149760185Y-48648637D01*
X149812989Y-48602882D01*
X149882147Y-48592938D01*
X149929595Y-48610137D01*
G37*
%TD.AperFunction*%
%TA.AperFunction,Conductor*%
G36*
X131816903Y-55975184D02*
G01*
X131825352Y-55981125D01*
X131842986Y-55994656D01*
X131842991Y-55994660D01*
X131909503Y-56045696D01*
X131950706Y-56102123D01*
X131954861Y-56171869D01*
X131920649Y-56232790D01*
X131877351Y-56260254D01*
X131787669Y-56293703D01*
X131787664Y-56293706D01*
X131672455Y-56379952D01*
X131672452Y-56379955D01*
X131586206Y-56495164D01*
X131586202Y-56495171D01*
X131535910Y-56630013D01*
X131535909Y-56630017D01*
X131529500Y-56689627D01*
X131529500Y-56689634D01*
X131529500Y-56689635D01*
X131529500Y-57035365D01*
X131529501Y-57035373D01*
X131530992Y-57049248D01*
X131530992Y-57075739D01*
X131529500Y-57089622D01*
X131529500Y-57435365D01*
X131529501Y-57435373D01*
X131530992Y-57449248D01*
X131530992Y-57475739D01*
X131529500Y-57489622D01*
X131529500Y-57835369D01*
X131529501Y-57835376D01*
X131535908Y-57894983D01*
X131582226Y-58019167D01*
X131587210Y-58088859D01*
X131582226Y-58105833D01*
X131535910Y-58230013D01*
X131535909Y-58230017D01*
X131529500Y-58289627D01*
X131529500Y-58289634D01*
X131529500Y-58289635D01*
X131529500Y-58635365D01*
X131529501Y-58635373D01*
X131530992Y-58649248D01*
X131530992Y-58675739D01*
X131529500Y-58689622D01*
X131529500Y-59035365D01*
X131529501Y-59035373D01*
X131530992Y-59049248D01*
X131530991Y-59075740D01*
X131529501Y-59089605D01*
X131529500Y-59089629D01*
X131529500Y-59309264D01*
X131520061Y-59356716D01*
X131481314Y-59450260D01*
X131481313Y-59450264D01*
X131469369Y-59540992D01*
X131465957Y-59566906D01*
X131465955Y-59566919D01*
X131463395Y-59586368D01*
X131461535Y-59600500D01*
X131465396Y-59629831D01*
X131465969Y-59634178D01*
X131466500Y-59642280D01*
X131466500Y-60237585D01*
X131446815Y-60304624D01*
X131394011Y-60350379D01*
X131324854Y-60360323D01*
X131179000Y-60339353D01*
X130288595Y-60339353D01*
X130221556Y-60319668D01*
X130200914Y-60303034D01*
X129597560Y-59699680D01*
X129564075Y-59638357D01*
X129569059Y-59568665D01*
X129610931Y-59512732D01*
X129676395Y-59488315D01*
X129685241Y-59487999D01*
X129827871Y-59487999D01*
X129827872Y-59487999D01*
X129887483Y-59481591D01*
X130022331Y-59431296D01*
X130137546Y-59345046D01*
X130223796Y-59229831D01*
X130274091Y-59094983D01*
X130280500Y-59035373D01*
X130280499Y-58689628D01*
X130279008Y-58675758D01*
X130279008Y-58649248D01*
X130280500Y-58635373D01*
X130280499Y-58289628D01*
X130274091Y-58230017D01*
X130227772Y-58105831D01*
X130222788Y-58036143D01*
X130227773Y-58019167D01*
X130274091Y-57894983D01*
X130280500Y-57835373D01*
X130280499Y-57489628D01*
X130279008Y-57475758D01*
X130279008Y-57449248D01*
X130280500Y-57435373D01*
X130280499Y-57089628D01*
X130279008Y-57075758D01*
X130279008Y-57049248D01*
X130280500Y-57035373D01*
X130280499Y-56877241D01*
X130300183Y-56810202D01*
X130316813Y-56789565D01*
X130704398Y-56401980D01*
X130710489Y-56396638D01*
X130737451Y-56375951D01*
X130760609Y-56345770D01*
X130760612Y-56345768D01*
X130829699Y-56255732D01*
X130865211Y-56169999D01*
X130877745Y-56139739D01*
X130881259Y-56131253D01*
X130887687Y-56115736D01*
X130894588Y-56063312D01*
X130922854Y-55999418D01*
X130981178Y-55960946D01*
X131017520Y-55955499D01*
X131749864Y-55955499D01*
X131816903Y-55975184D01*
G37*
%TD.AperFunction*%
%TA.AperFunction,Conductor*%
G36*
X135119920Y-29324871D02*
G01*
X135127358Y-29331726D01*
X135654049Y-29858416D01*
X135687534Y-29919739D01*
X135682550Y-29989430D01*
X135640679Y-30045364D01*
X135605373Y-30063803D01*
X135510666Y-30095186D01*
X135510663Y-30095187D01*
X135361342Y-30187289D01*
X135237289Y-30311342D01*
X135145187Y-30460663D01*
X135145186Y-30460666D01*
X135090001Y-30627203D01*
X135090001Y-30627204D01*
X135090000Y-30627204D01*
X135079500Y-30729983D01*
X135079500Y-31730001D01*
X135079501Y-31730019D01*
X135090000Y-31832796D01*
X135090001Y-31832799D01*
X135135781Y-31970951D01*
X135145186Y-31999334D01*
X135237288Y-32148656D01*
X135361344Y-32272712D01*
X135510666Y-32364814D01*
X135677203Y-32419999D01*
X135779991Y-32430500D01*
X136479902Y-32430499D01*
X136546941Y-32450183D01*
X136567583Y-32466818D01*
X136651669Y-32550904D01*
X136657020Y-32557005D01*
X136678718Y-32585282D01*
X136765735Y-32652052D01*
X136804159Y-32681536D01*
X136804162Y-32681537D01*
X136804163Y-32681538D01*
X136877198Y-32711790D01*
X136950238Y-32742044D01*
X137028619Y-32752363D01*
X137106999Y-32762682D01*
X137107000Y-32762682D01*
X137142329Y-32758030D01*
X137150428Y-32757500D01*
X137410568Y-32757500D01*
X137477607Y-32777185D01*
X137523362Y-32829989D01*
X137533306Y-32899147D01*
X137515562Y-32947472D01*
X137450211Y-33051476D01*
X137390631Y-33221745D01*
X137390630Y-33221750D01*
X137370435Y-33400996D01*
X137370435Y-33401003D01*
X137390630Y-33580249D01*
X137390631Y-33580254D01*
X137450211Y-33750523D01*
X137546185Y-33903263D01*
X137548445Y-33906097D01*
X137549334Y-33908275D01*
X137549889Y-33909158D01*
X137549734Y-33909255D01*
X137574855Y-33970783D01*
X137575500Y-33983412D01*
X137575500Y-33993608D01*
X137555815Y-34060647D01*
X137514623Y-34100339D01*
X137478137Y-34121917D01*
X137478129Y-34121923D01*
X137361923Y-34238129D01*
X137361917Y-34238137D01*
X137278255Y-34379603D01*
X137278254Y-34379606D01*
X137232402Y-34537426D01*
X137232401Y-34537432D01*
X137229500Y-34574304D01*
X137229500Y-35730696D01*
X137232401Y-35767567D01*
X137232402Y-35767573D01*
X137278254Y-35925393D01*
X137278255Y-35925396D01*
X137278256Y-35925398D01*
X137307748Y-35975267D01*
X137361917Y-36066862D01*
X137361923Y-36066870D01*
X137478129Y-36183076D01*
X137478140Y-36183085D01*
X137478455Y-36183271D01*
X137478650Y-36183480D01*
X137484298Y-36187861D01*
X137483591Y-36188772D01*
X137526136Y-36234343D01*
X137538637Y-36303085D01*
X137511988Y-36367673D01*
X137484078Y-36391856D01*
X137484298Y-36392139D01*
X137479092Y-36396176D01*
X137478455Y-36396729D01*
X137478140Y-36396914D01*
X137478129Y-36396923D01*
X137361923Y-36513129D01*
X137361917Y-36513137D01*
X137278255Y-36654603D01*
X137278254Y-36654606D01*
X137232402Y-36812426D01*
X137232401Y-36812432D01*
X137229500Y-36849304D01*
X137229500Y-38005696D01*
X137232401Y-38042567D01*
X137232402Y-38042573D01*
X137278254Y-38200393D01*
X137278255Y-38200396D01*
X137299894Y-38236986D01*
X137317077Y-38304710D01*
X137294917Y-38370973D01*
X137280844Y-38387788D01*
X137197287Y-38471345D01*
X137105187Y-38620663D01*
X137105186Y-38620666D01*
X137050001Y-38787203D01*
X137050001Y-38787204D01*
X137050000Y-38787204D01*
X137039500Y-38889983D01*
X137039500Y-39890001D01*
X137039501Y-39890019D01*
X137050000Y-39992796D01*
X137050001Y-39992799D01*
X137105185Y-40159331D01*
X137105187Y-40159336D01*
X137197289Y-40308657D01*
X137220077Y-40331445D01*
X137253562Y-40392768D01*
X137248578Y-40462460D01*
X137206706Y-40518393D01*
X137197493Y-40524664D01*
X137094347Y-40588285D01*
X137094343Y-40588288D01*
X136970289Y-40712342D01*
X136878187Y-40861663D01*
X136878185Y-40861668D01*
X136867590Y-40893642D01*
X136823001Y-41028203D01*
X136823001Y-41028204D01*
X136823000Y-41028204D01*
X136812500Y-41130983D01*
X136812500Y-42181001D01*
X136812501Y-42181019D01*
X136823000Y-42283796D01*
X136823001Y-42283799D01*
X136857679Y-42388448D01*
X136878186Y-42450334D01*
X136970288Y-42599656D01*
X137094344Y-42723712D01*
X137243666Y-42815814D01*
X137410203Y-42870999D01*
X137512991Y-42881500D01*
X138288008Y-42881499D01*
X138312188Y-42879029D01*
X138380881Y-42891799D01*
X138412471Y-42914706D01*
X138510184Y-43012419D01*
X138543669Y-43073742D01*
X138538685Y-43143434D01*
X138496813Y-43199367D01*
X138431349Y-43223784D01*
X138422503Y-43224100D01*
X138378498Y-43224100D01*
X138339453Y-43228788D01*
X138290038Y-43234722D01*
X138149256Y-43290239D01*
X138028677Y-43381677D01*
X137937239Y-43502256D01*
X137881722Y-43643038D01*
X137875788Y-43692453D01*
X137871100Y-43731498D01*
X137871100Y-43731503D01*
X137871100Y-44275100D01*
X137851415Y-44342139D01*
X137798611Y-44387894D01*
X137747100Y-44399100D01*
X137203498Y-44399100D01*
X137167457Y-44403428D01*
X137115038Y-44409722D01*
X136974256Y-44465239D01*
X136853677Y-44556677D01*
X136762237Y-44677259D01*
X136759606Y-44681939D01*
X136709588Y-44730724D01*
X136641135Y-44744722D01*
X136604073Y-44735719D01*
X136488762Y-44687956D01*
X136488760Y-44687955D01*
X136371361Y-44672500D01*
X136332000Y-44667318D01*
X136296670Y-44671969D01*
X136288572Y-44672500D01*
X135228098Y-44672500D01*
X135161059Y-44652815D01*
X135140417Y-44636181D01*
X135016818Y-44512582D01*
X134983333Y-44451259D01*
X134980499Y-44424901D01*
X134980499Y-43702129D01*
X134980498Y-43702123D01*
X134980497Y-43702116D01*
X134974091Y-43642517D01*
X134973946Y-43642129D01*
X134923797Y-43507671D01*
X134923793Y-43507664D01*
X134837547Y-43392455D01*
X134837544Y-43392452D01*
X134720104Y-43304536D01*
X134678233Y-43248602D01*
X134673249Y-43178911D01*
X134688876Y-43140174D01*
X134704810Y-43114340D01*
X134704814Y-43114334D01*
X134759999Y-42947797D01*
X134770500Y-42845009D01*
X134770499Y-41794992D01*
X134770220Y-41792264D01*
X134759999Y-41692203D01*
X134759998Y-41692200D01*
X134704814Y-41525666D01*
X134612712Y-41376344D01*
X134488656Y-41252288D01*
X134339334Y-41160186D01*
X134172797Y-41105001D01*
X134172795Y-41105000D01*
X134070010Y-41094500D01*
X133294998Y-41094500D01*
X133294980Y-41094501D01*
X133192203Y-41105000D01*
X133192200Y-41105001D01*
X133025668Y-41160185D01*
X133025663Y-41160187D01*
X132876342Y-41252289D01*
X132752289Y-41376342D01*
X132660187Y-41525663D01*
X132660186Y-41525666D01*
X132605001Y-41692203D01*
X132605001Y-41692204D01*
X132605000Y-41692204D01*
X132594500Y-41794983D01*
X132594500Y-42845001D01*
X132594501Y-42845019D01*
X132605000Y-42947796D01*
X132605001Y-42947799D01*
X132660185Y-43114331D01*
X132660187Y-43114336D01*
X132676124Y-43140174D01*
X132752288Y-43263656D01*
X132876344Y-43387712D01*
X132956007Y-43436848D01*
X133002731Y-43488796D01*
X133013954Y-43557759D01*
X133007092Y-43585719D01*
X132985909Y-43642514D01*
X132985908Y-43642516D01*
X132979501Y-43702116D01*
X132979501Y-43702123D01*
X132979500Y-43702135D01*
X132979500Y-44947870D01*
X132979501Y-44947876D01*
X132985908Y-45007483D01*
X133036202Y-45142328D01*
X133036206Y-45142335D01*
X133122452Y-45257544D01*
X133122455Y-45257547D01*
X133237664Y-45343793D01*
X133237671Y-45343797D01*
X133282618Y-45360561D01*
X133372517Y-45394091D01*
X133432127Y-45400500D01*
X134154901Y-45400499D01*
X134221940Y-45420183D01*
X134242577Y-45436813D01*
X134343182Y-45537417D01*
X134376666Y-45598738D01*
X134379500Y-45625097D01*
X134379500Y-46697870D01*
X134379501Y-46697876D01*
X134385908Y-46757483D01*
X134436202Y-46892328D01*
X134436206Y-46892335D01*
X134522452Y-47007544D01*
X134522455Y-47007547D01*
X134637664Y-47093793D01*
X134637673Y-47093798D01*
X134642965Y-47095772D01*
X134698899Y-47137643D01*
X134723317Y-47203107D01*
X134708466Y-47271380D01*
X134705172Y-47277050D01*
X134675189Y-47325659D01*
X134675186Y-47325666D01*
X134620001Y-47492203D01*
X134620001Y-47492204D01*
X134620000Y-47492204D01*
X134609500Y-47594983D01*
X134609500Y-48645001D01*
X134609501Y-48645019D01*
X134620000Y-48747796D01*
X134620001Y-48747799D01*
X134675185Y-48914331D01*
X134675187Y-48914336D01*
X134767289Y-49063657D01*
X134778578Y-49074946D01*
X134812063Y-49136269D01*
X134807079Y-49205961D01*
X134796436Y-49227723D01*
X134715305Y-49359260D01*
X134705186Y-49375666D01*
X134650001Y-49542203D01*
X134650001Y-49542204D01*
X134650000Y-49542204D01*
X134639500Y-49644983D01*
X134639500Y-50322046D01*
X134619815Y-50389085D01*
X134603181Y-50409727D01*
X134108208Y-50904699D01*
X134095951Y-50914520D01*
X134096134Y-50914741D01*
X134090123Y-50919713D01*
X134042772Y-50970136D01*
X134021889Y-50991019D01*
X134021877Y-50991032D01*
X134017621Y-50996517D01*
X134013837Y-51000947D01*
X133981937Y-51034918D01*
X133981936Y-51034920D01*
X133972284Y-51052476D01*
X133961610Y-51068726D01*
X133949329Y-51084561D01*
X133949324Y-51084568D01*
X133930815Y-51127338D01*
X133928245Y-51132584D01*
X133905803Y-51173406D01*
X133900822Y-51192807D01*
X133894521Y-51211210D01*
X133886562Y-51229602D01*
X133886561Y-51229605D01*
X133879271Y-51275627D01*
X133878087Y-51281346D01*
X133866501Y-51326472D01*
X133866500Y-51326482D01*
X133866500Y-51346516D01*
X133864973Y-51365915D01*
X133861840Y-51385694D01*
X133861840Y-51385695D01*
X133866225Y-51432083D01*
X133866500Y-51437921D01*
X133866500Y-53335500D01*
X133846815Y-53402539D01*
X133794011Y-53448294D01*
X133742500Y-53459500D01*
X133249998Y-53459500D01*
X133249980Y-53459501D01*
X133147203Y-53470000D01*
X133147200Y-53470001D01*
X132980668Y-53525185D01*
X132980663Y-53525187D01*
X132831342Y-53617289D01*
X132707289Y-53741342D01*
X132620446Y-53882138D01*
X132568498Y-53928862D01*
X132499535Y-53940085D01*
X132449811Y-53922580D01*
X132324340Y-53845189D01*
X132324335Y-53845187D01*
X132324334Y-53845186D01*
X132157797Y-53790001D01*
X132157795Y-53790000D01*
X132055016Y-53779500D01*
X131026500Y-53779500D01*
X130959461Y-53759815D01*
X130913706Y-53707011D01*
X130902500Y-53655500D01*
X130902500Y-53261280D01*
X130903031Y-53253178D01*
X130903551Y-53249234D01*
X130907465Y-53219500D01*
X130907406Y-53219055D01*
X130906797Y-53214429D01*
X130902766Y-53183813D01*
X130902765Y-53183794D01*
X130902500Y-53181780D01*
X130887687Y-53069264D01*
X130862659Y-53008841D01*
X130829699Y-52929267D01*
X130760612Y-52839232D01*
X130760609Y-52839229D01*
X130737451Y-52809049D01*
X130737449Y-52809047D01*
X130737448Y-52809046D01*
X130721120Y-52796518D01*
X130710490Y-52788361D01*
X130704400Y-52783020D01*
X130641818Y-52720438D01*
X130608333Y-52659115D01*
X130605499Y-52632757D01*
X130605499Y-51884998D01*
X130605498Y-51884981D01*
X130594999Y-51782203D01*
X130594998Y-51782200D01*
X130587436Y-51759380D01*
X130539814Y-51615666D01*
X130447712Y-51466344D01*
X130323656Y-51342288D01*
X130174334Y-51250186D01*
X130007797Y-51195001D01*
X130007795Y-51195000D01*
X129905010Y-51184500D01*
X129129998Y-51184500D01*
X129129980Y-51184501D01*
X129027203Y-51195000D01*
X129027200Y-51195001D01*
X128860668Y-51250185D01*
X128860663Y-51250187D01*
X128711342Y-51342289D01*
X128587289Y-51466342D01*
X128495187Y-51615663D01*
X128495186Y-51615666D01*
X128440001Y-51782203D01*
X128440001Y-51782204D01*
X128440000Y-51782204D01*
X128429500Y-51884983D01*
X128429500Y-52935001D01*
X128429501Y-52935019D01*
X128440000Y-53037796D01*
X128440001Y-53037799D01*
X128495185Y-53204331D01*
X128495187Y-53204336D01*
X128509262Y-53227155D01*
X128583308Y-53347204D01*
X128587289Y-53353657D01*
X128695951Y-53462319D01*
X128729436Y-53523642D01*
X128724452Y-53593334D01*
X128695951Y-53637681D01*
X128607289Y-53726342D01*
X128515187Y-53875663D01*
X128515185Y-53875668D01*
X128494766Y-53937288D01*
X128460001Y-54042203D01*
X128460001Y-54042204D01*
X128460000Y-54042204D01*
X128449500Y-54144983D01*
X128449500Y-54892757D01*
X128429815Y-54959796D01*
X128413181Y-54980438D01*
X127765608Y-55628011D01*
X127759507Y-55633361D01*
X127732550Y-55654048D01*
X127708549Y-55685324D01*
X127708533Y-55685345D01*
X127640301Y-55774266D01*
X127582313Y-55914263D01*
X127582313Y-55914264D01*
X127572550Y-55988415D01*
X127544282Y-56052311D01*
X127485957Y-56090782D01*
X127463495Y-56095448D01*
X127328749Y-56110630D01*
X127328745Y-56110631D01*
X127158476Y-56170211D01*
X127005737Y-56266184D01*
X126878184Y-56393737D01*
X126782210Y-56546478D01*
X126722631Y-56716747D01*
X126722448Y-56718378D01*
X126722033Y-56719364D01*
X126721080Y-56723541D01*
X126720348Y-56723374D01*
X126695384Y-56782793D01*
X126637791Y-56822351D01*
X126599227Y-56828500D01*
X126472785Y-56828500D01*
X126405746Y-56808815D01*
X126359991Y-56756011D01*
X126349382Y-56692345D01*
X126349650Y-56689627D01*
X126354341Y-56642000D01*
X126335024Y-56445868D01*
X126277814Y-56257273D01*
X126277811Y-56257269D01*
X126277811Y-56257266D01*
X126184913Y-56083467D01*
X126184909Y-56083460D01*
X126059883Y-55931116D01*
X125907539Y-55806090D01*
X125907532Y-55806086D01*
X125733733Y-55713188D01*
X125733727Y-55713186D01*
X125545132Y-55655976D01*
X125545129Y-55655975D01*
X125349000Y-55636659D01*
X125152870Y-55655975D01*
X124964266Y-55713188D01*
X124790467Y-55806086D01*
X124790460Y-55806090D01*
X124638116Y-55931116D01*
X124513090Y-56083460D01*
X124513086Y-56083467D01*
X124420188Y-56257266D01*
X124362975Y-56445870D01*
X124343659Y-56642000D01*
X124362975Y-56838129D01*
X124420188Y-57026733D01*
X124513086Y-57200532D01*
X124513090Y-57200539D01*
X124638116Y-57352883D01*
X124790460Y-57477909D01*
X124790467Y-57477913D01*
X124964266Y-57570811D01*
X124964269Y-57570811D01*
X124964273Y-57570814D01*
X125152868Y-57628024D01*
X125349000Y-57647341D01*
X125464930Y-57635922D01*
X125533574Y-57648940D01*
X125564764Y-57671644D01*
X125674520Y-57781400D01*
X125679861Y-57787490D01*
X125700549Y-57814451D01*
X125711271Y-57822678D01*
X125729486Y-57836656D01*
X125729491Y-57836660D01*
X125820768Y-57906699D01*
X125820767Y-57906699D01*
X125889981Y-57935368D01*
X125919300Y-57947511D01*
X125960764Y-57964687D01*
X126073280Y-57979500D01*
X126111000Y-57984466D01*
X126144688Y-57980030D01*
X126152786Y-57979500D01*
X126257191Y-57979500D01*
X126324230Y-57999185D01*
X126369985Y-58051989D01*
X126379929Y-58121147D01*
X126374897Y-58142504D01*
X126373187Y-58147664D01*
X126373186Y-58147666D01*
X126318001Y-58314203D01*
X126318001Y-58314204D01*
X126318000Y-58314204D01*
X126307500Y-58416983D01*
X126307500Y-59152257D01*
X126287815Y-59219296D01*
X126271181Y-59239938D01*
X125837937Y-59673181D01*
X125776614Y-59706666D01*
X125750256Y-59709500D01*
X124848998Y-59709500D01*
X124848980Y-59709501D01*
X124746203Y-59720000D01*
X124746200Y-59720001D01*
X124579668Y-59775185D01*
X124579663Y-59775187D01*
X124430342Y-59867289D01*
X124306289Y-59991342D01*
X124232339Y-60111235D01*
X124180391Y-60157959D01*
X124111428Y-60169182D01*
X124047346Y-60141338D01*
X124008490Y-60083269D01*
X124002800Y-60046138D01*
X124002800Y-49620000D01*
X124684341Y-49620000D01*
X124704936Y-49855403D01*
X124704938Y-49855413D01*
X124766094Y-50083655D01*
X124766096Y-50083659D01*
X124766097Y-50083663D01*
X124865965Y-50297830D01*
X124865967Y-50297834D01*
X124907954Y-50357797D01*
X125001505Y-50491401D01*
X125168599Y-50658495D01*
X125190253Y-50673657D01*
X125362165Y-50794032D01*
X125362167Y-50794033D01*
X125362170Y-50794035D01*
X125576337Y-50893903D01*
X125804592Y-50955063D01*
X125992918Y-50971539D01*
X126039999Y-50975659D01*
X126040000Y-50975659D01*
X126040001Y-50975659D01*
X126079234Y-50972226D01*
X126275408Y-50955063D01*
X126503663Y-50893903D01*
X126717830Y-50794035D01*
X126911401Y-50658495D01*
X127078495Y-50491401D01*
X127214035Y-50297830D01*
X127313903Y-50083663D01*
X127375063Y-49855408D01*
X127395659Y-49620000D01*
X127375063Y-49384592D01*
X127326940Y-49204991D01*
X127313905Y-49156344D01*
X127313904Y-49156343D01*
X127313903Y-49156337D01*
X127214035Y-48942171D01*
X127194544Y-48914334D01*
X127078494Y-48748597D01*
X126911402Y-48581506D01*
X126911395Y-48581501D01*
X126717834Y-48445967D01*
X126717830Y-48445965D01*
X126638584Y-48409012D01*
X126503663Y-48346097D01*
X126503659Y-48346096D01*
X126503655Y-48346094D01*
X126275413Y-48284938D01*
X126275403Y-48284936D01*
X126040001Y-48264341D01*
X126039999Y-48264341D01*
X125804596Y-48284936D01*
X125804586Y-48284938D01*
X125576344Y-48346094D01*
X125576335Y-48346098D01*
X125362171Y-48445964D01*
X125362169Y-48445965D01*
X125168597Y-48581505D01*
X125001505Y-48748597D01*
X124865965Y-48942169D01*
X124865964Y-48942171D01*
X124766098Y-49156335D01*
X124766094Y-49156344D01*
X124704938Y-49384586D01*
X124704936Y-49384596D01*
X124684341Y-49619999D01*
X124684341Y-49620000D01*
X124002800Y-49620000D01*
X124002800Y-45437870D01*
X124689500Y-45437870D01*
X124689501Y-45437876D01*
X124695908Y-45497483D01*
X124746202Y-45632328D01*
X124746206Y-45632335D01*
X124832452Y-45747544D01*
X124832455Y-45747547D01*
X124947664Y-45833793D01*
X124947671Y-45833797D01*
X125082517Y-45884091D01*
X125082516Y-45884091D01*
X125089444Y-45884835D01*
X125142127Y-45890500D01*
X126937872Y-45890499D01*
X126997483Y-45884091D01*
X127132331Y-45833796D01*
X127247546Y-45747546D01*
X127333796Y-45632331D01*
X127384091Y-45497483D01*
X127390500Y-45437873D01*
X127390499Y-43642128D01*
X127384091Y-43582517D01*
X127356175Y-43507671D01*
X127333797Y-43447671D01*
X127333793Y-43447664D01*
X127247547Y-43332455D01*
X127247544Y-43332452D01*
X127132335Y-43246206D01*
X127132328Y-43246202D01*
X126997482Y-43195908D01*
X126997483Y-43195908D01*
X126937883Y-43189501D01*
X126937881Y-43189500D01*
X126937873Y-43189500D01*
X126937864Y-43189500D01*
X125142129Y-43189500D01*
X125142123Y-43189501D01*
X125082516Y-43195908D01*
X124947671Y-43246202D01*
X124947664Y-43246206D01*
X124832455Y-43332452D01*
X124832452Y-43332455D01*
X124746206Y-43447664D01*
X124746202Y-43447671D01*
X124695908Y-43582517D01*
X124689501Y-43642116D01*
X124689501Y-43642123D01*
X124689500Y-43642135D01*
X124689500Y-45437870D01*
X124002800Y-45437870D01*
X124002800Y-32336361D01*
X124022485Y-32269322D01*
X124075289Y-32223567D01*
X124144447Y-32213623D01*
X124191895Y-32230822D01*
X124206475Y-32239815D01*
X124263857Y-32275209D01*
X124263860Y-32275210D01*
X124263866Y-32275214D01*
X124430403Y-32330399D01*
X124533191Y-32340900D01*
X124995969Y-32340899D01*
X125063008Y-32360583D01*
X125083650Y-32377218D01*
X125816169Y-33109736D01*
X125849654Y-33171059D01*
X125852488Y-33197417D01*
X125852488Y-33222450D01*
X125851179Y-33240419D01*
X125847698Y-33264181D01*
X125852252Y-33316220D01*
X125852488Y-33321626D01*
X125852488Y-33329865D01*
X125856294Y-33362430D01*
X125862988Y-33438947D01*
X125864449Y-33446023D01*
X125864391Y-33446034D01*
X125866022Y-33453393D01*
X125866080Y-33453380D01*
X125867745Y-33460406D01*
X125894013Y-33532580D01*
X125918173Y-33605487D01*
X125921224Y-33612030D01*
X125921170Y-33612054D01*
X125924458Y-33618844D01*
X125924509Y-33618819D01*
X125927749Y-33625269D01*
X125927750Y-33625270D01*
X125927751Y-33625273D01*
X125940736Y-33645016D01*
X125969953Y-33689439D01*
X126010275Y-33754811D01*
X126014754Y-33760475D01*
X126014707Y-33760512D01*
X126019470Y-33766358D01*
X126019516Y-33766320D01*
X126024161Y-33771856D01*
X126080006Y-33824542D01*
X126725127Y-34469663D01*
X126758612Y-34530986D01*
X126753628Y-34600677D01*
X126727641Y-34642437D01*
X126701736Y-34669895D01*
X124736358Y-36635272D01*
X124722729Y-36647051D01*
X124703468Y-36661390D01*
X124669898Y-36701397D01*
X124666253Y-36705376D01*
X124660409Y-36711222D01*
X124640059Y-36736959D01*
X124590695Y-36795789D01*
X124586729Y-36801819D01*
X124586682Y-36801788D01*
X124582630Y-36808147D01*
X124582679Y-36808177D01*
X124578889Y-36814321D01*
X124546424Y-36883941D01*
X124511960Y-36952566D01*
X124509488Y-36959357D01*
X124509432Y-36959336D01*
X124506960Y-36966450D01*
X124507015Y-36966469D01*
X124504742Y-36973327D01*
X124498784Y-37002185D01*
X124489207Y-37048565D01*
X124479800Y-37088259D01*
X124471498Y-37123286D01*
X124470661Y-37130454D01*
X124470601Y-37130447D01*
X124469835Y-37137945D01*
X124469895Y-37137951D01*
X124469265Y-37145140D01*
X124471500Y-37221916D01*
X124471500Y-37909294D01*
X124470191Y-37927263D01*
X124466710Y-37951025D01*
X124471264Y-38003064D01*
X124471500Y-38008470D01*
X124471500Y-38016709D01*
X124475306Y-38049274D01*
X124482000Y-38125791D01*
X124483461Y-38132867D01*
X124483403Y-38132878D01*
X124485034Y-38140237D01*
X124485092Y-38140224D01*
X124486757Y-38147250D01*
X124513025Y-38219424D01*
X124537185Y-38292331D01*
X124540236Y-38298874D01*
X124540182Y-38298898D01*
X124543470Y-38305688D01*
X124543521Y-38305663D01*
X124546761Y-38312113D01*
X124546762Y-38312114D01*
X124546763Y-38312117D01*
X124566332Y-38341870D01*
X124588965Y-38376283D01*
X124629287Y-38441655D01*
X124633766Y-38447319D01*
X124633719Y-38447356D01*
X124638482Y-38453202D01*
X124638528Y-38453164D01*
X124643173Y-38458700D01*
X124699017Y-38511385D01*
X126551270Y-40363638D01*
X126563051Y-40377270D01*
X126577388Y-40396528D01*
X126617409Y-40430111D01*
X126621397Y-40433766D01*
X126627216Y-40439585D01*
X126627220Y-40439588D01*
X126627223Y-40439591D01*
X126652959Y-40459940D01*
X126711786Y-40509302D01*
X126711787Y-40509302D01*
X126711789Y-40509304D01*
X126717818Y-40513270D01*
X126717785Y-40513319D01*
X126724147Y-40517372D01*
X126724179Y-40517321D01*
X126730319Y-40521108D01*
X126730323Y-40521111D01*
X126765132Y-40537343D01*
X126799941Y-40553575D01*
X126868565Y-40588039D01*
X126868567Y-40588040D01*
X126868569Y-40588040D01*
X126875357Y-40590511D01*
X126875336Y-40590567D01*
X126882457Y-40593043D01*
X126882476Y-40592986D01*
X126889322Y-40595254D01*
X126889327Y-40595257D01*
X126889332Y-40595258D01*
X126889335Y-40595259D01*
X126964565Y-40610792D01*
X127039279Y-40628500D01*
X127039282Y-40628500D01*
X127039286Y-40628501D01*
X127046453Y-40629339D01*
X127046446Y-40629398D01*
X127053944Y-40630164D01*
X127053950Y-40630105D01*
X127061139Y-40630734D01*
X127061143Y-40630733D01*
X127061144Y-40630734D01*
X127137917Y-40628500D01*
X128928023Y-40628500D01*
X128953094Y-40631060D01*
X128995688Y-40639855D01*
X129070405Y-40657564D01*
X129070415Y-40657564D01*
X129077578Y-40658402D01*
X129077313Y-40660665D01*
X129133791Y-40677249D01*
X129140791Y-40682890D01*
X129141162Y-40682396D01*
X129148262Y-40687711D01*
X129263477Y-40773961D01*
X129263478Y-40773961D01*
X129263479Y-40773962D01*
X129398325Y-40824256D01*
X129398324Y-40824256D01*
X129405252Y-40825000D01*
X129457935Y-40830665D01*
X130853680Y-40830664D01*
X130913291Y-40824256D01*
X131048139Y-40773961D01*
X131163354Y-40687711D01*
X131249604Y-40572496D01*
X131299899Y-40437648D01*
X131306308Y-40378038D01*
X131306307Y-40077816D01*
X131306308Y-40077809D01*
X131306307Y-39891362D01*
X131325991Y-39824323D01*
X131333419Y-39815109D01*
X131333012Y-39814797D01*
X131337962Y-39808346D01*
X131359663Y-39780063D01*
X131364999Y-39773978D01*
X131912160Y-39226818D01*
X131973483Y-39193333D01*
X131999841Y-39190499D01*
X132560002Y-39190499D01*
X132560008Y-39190499D01*
X132662797Y-39179999D01*
X132829334Y-39124814D01*
X132978656Y-39032712D01*
X133062319Y-38949049D01*
X133123642Y-38915564D01*
X133193334Y-38920548D01*
X133229990Y-38944106D01*
X133230681Y-38943234D01*
X133236341Y-38947709D01*
X133236344Y-38947712D01*
X133385666Y-39039814D01*
X133552203Y-39094999D01*
X133654991Y-39105500D01*
X134705008Y-39105499D01*
X134705016Y-39105498D01*
X134705019Y-39105498D01*
X134761302Y-39099748D01*
X134807797Y-39094999D01*
X134974334Y-39039814D01*
X135123656Y-38947712D01*
X135247712Y-38823656D01*
X135339814Y-38674334D01*
X135390397Y-38521682D01*
X135430168Y-38464240D01*
X135494684Y-38437417D01*
X135563460Y-38449732D01*
X135571148Y-38454569D01*
X135571420Y-38454110D01*
X135600563Y-38471345D01*
X135719602Y-38541744D01*
X135761224Y-38553836D01*
X135877426Y-38587597D01*
X135877429Y-38587597D01*
X135877431Y-38587598D01*
X135889722Y-38588565D01*
X135914304Y-38590500D01*
X135914306Y-38590500D01*
X136345696Y-38590500D01*
X136364131Y-38589049D01*
X136382569Y-38587598D01*
X136382571Y-38587597D01*
X136382573Y-38587597D01*
X136424191Y-38575505D01*
X136540398Y-38541744D01*
X136681865Y-38458081D01*
X136798081Y-38341865D01*
X136881744Y-38200398D01*
X136927598Y-38042569D01*
X136930282Y-38008470D01*
X136930500Y-38005696D01*
X136930500Y-36849304D01*
X136927598Y-36812432D01*
X136927597Y-36812426D01*
X136881745Y-36654606D01*
X136881744Y-36654603D01*
X136881744Y-36654602D01*
X136798081Y-36513135D01*
X136798079Y-36513133D01*
X136798076Y-36513129D01*
X136681870Y-36396923D01*
X136681867Y-36396921D01*
X136681865Y-36396919D01*
X136681549Y-36396732D01*
X136681353Y-36396522D01*
X136675702Y-36392139D01*
X136676409Y-36391227D01*
X136633866Y-36345664D01*
X136621362Y-36276923D01*
X136648006Y-36212333D01*
X136675921Y-36188144D01*
X136675702Y-36187861D01*
X136680911Y-36183820D01*
X136681550Y-36183267D01*
X136681865Y-36183081D01*
X136798081Y-36066865D01*
X136881744Y-35925398D01*
X136927598Y-35767569D01*
X136930500Y-35730694D01*
X136930500Y-34574306D01*
X136927598Y-34537431D01*
X136926288Y-34532923D01*
X136881745Y-34379606D01*
X136881744Y-34379603D01*
X136881744Y-34379602D01*
X136798081Y-34238135D01*
X136798079Y-34238133D01*
X136798076Y-34238129D01*
X136681870Y-34121923D01*
X136681862Y-34121917D01*
X136540396Y-34038255D01*
X136540393Y-34038254D01*
X136382573Y-33992402D01*
X136382567Y-33992401D01*
X136345696Y-33989500D01*
X136345694Y-33989500D01*
X136079729Y-33989500D01*
X136012690Y-33969815D01*
X135992048Y-33953181D01*
X135401818Y-33362950D01*
X135368333Y-33301627D01*
X135365499Y-33275269D01*
X135365499Y-32959998D01*
X135365498Y-32959981D01*
X135354999Y-32857203D01*
X135354998Y-32857200D01*
X135345348Y-32828078D01*
X135299814Y-32690666D01*
X135207712Y-32541344D01*
X135083656Y-32417288D01*
X134959809Y-32340899D01*
X134934336Y-32325187D01*
X134934331Y-32325185D01*
X134932862Y-32324698D01*
X134767797Y-32270001D01*
X134767795Y-32270000D01*
X134665016Y-32259500D01*
X134665009Y-32259500D01*
X134164730Y-32259500D01*
X134097691Y-32239815D01*
X134077049Y-32223181D01*
X133824819Y-31970951D01*
X133791334Y-31909628D01*
X133788500Y-31883270D01*
X133788500Y-31628705D01*
X133789809Y-31610735D01*
X133790978Y-31602753D01*
X133793289Y-31586977D01*
X133788735Y-31534931D01*
X133788500Y-31529528D01*
X133788500Y-31521297D01*
X133788500Y-31521291D01*
X133784693Y-31488724D01*
X133777999Y-31412203D01*
X133777999Y-31412201D01*
X133776539Y-31405129D01*
X133776597Y-31405116D01*
X133774965Y-31397757D01*
X133774906Y-31397772D01*
X133773242Y-31390753D01*
X133773241Y-31390745D01*
X133746974Y-31318576D01*
X133722814Y-31245666D01*
X133722809Y-31245659D01*
X133719760Y-31239118D01*
X133719815Y-31239091D01*
X133716533Y-31232313D01*
X133716480Y-31232340D01*
X133713235Y-31225880D01*
X133671028Y-31161708D01*
X133630710Y-31096342D01*
X133626234Y-31090682D01*
X133626281Y-31090644D01*
X133621519Y-31084799D01*
X133621474Y-31084838D01*
X133616834Y-31079309D01*
X133616832Y-31079307D01*
X133616830Y-31079304D01*
X133586061Y-31050275D01*
X133560965Y-31026597D01*
X132943123Y-30408755D01*
X132909638Y-30347432D01*
X132914622Y-30277740D01*
X132956494Y-30221807D01*
X132996209Y-30201998D01*
X133046840Y-30187288D01*
X133099998Y-30171844D01*
X133241465Y-30088181D01*
X133357681Y-29971965D01*
X133418586Y-29868980D01*
X133469654Y-29821296D01*
X133525318Y-29808100D01*
X134073695Y-29808100D01*
X134091665Y-29809409D01*
X134115423Y-29812889D01*
X134167468Y-29808335D01*
X134172870Y-29808100D01*
X134181104Y-29808100D01*
X134181109Y-29808100D01*
X134192727Y-29806741D01*
X134213676Y-29804293D01*
X134226428Y-29803177D01*
X134290197Y-29797599D01*
X134290205Y-29797596D01*
X134297266Y-29796139D01*
X134297278Y-29796198D01*
X134304643Y-29794565D01*
X134304629Y-29794506D01*
X134311646Y-29792841D01*
X134311655Y-29792841D01*
X134383823Y-29766574D01*
X134456734Y-29742414D01*
X134456743Y-29742407D01*
X134463282Y-29739360D01*
X134463308Y-29739416D01*
X134470084Y-29736135D01*
X134470057Y-29736082D01*
X134476514Y-29732838D01*
X134476513Y-29732838D01*
X134476517Y-29732837D01*
X134502268Y-29715899D01*
X134529451Y-29702458D01*
X134588522Y-29681789D01*
X134741262Y-29585816D01*
X134868816Y-29458262D01*
X134934683Y-29353434D01*
X134987018Y-29307144D01*
X135056071Y-29296496D01*
X135119920Y-29324871D01*
G37*
%TD.AperFunction*%
%TA.AperFunction,Conductor*%
G36*
X146697703Y-51965029D02*
G01*
X146704181Y-51971061D01*
X147167181Y-52434061D01*
X147200666Y-52495384D01*
X147203500Y-52521742D01*
X147203500Y-53089719D01*
X147202969Y-53097821D01*
X147198535Y-53131498D01*
X147203021Y-53165583D01*
X147203023Y-53165598D01*
X147205154Y-53181785D01*
X147218313Y-53281736D01*
X147252273Y-53363720D01*
X147263497Y-53390817D01*
X147276302Y-53421733D01*
X147276303Y-53421735D01*
X147346680Y-53513452D01*
X147346689Y-53513463D01*
X147368546Y-53541948D01*
X147368547Y-53541949D01*
X147368549Y-53541951D01*
X147374045Y-53546168D01*
X147395506Y-53562636D01*
X147401609Y-53567989D01*
X147498181Y-53664561D01*
X147531666Y-53725884D01*
X147534500Y-53752242D01*
X147534500Y-54500001D01*
X147534501Y-54500019D01*
X147545000Y-54602796D01*
X147545001Y-54602799D01*
X147600185Y-54769331D01*
X147600186Y-54769334D01*
X147692288Y-54918656D01*
X147692290Y-54918658D01*
X147696766Y-54924319D01*
X147694929Y-54925771D01*
X147723032Y-54977238D01*
X147718048Y-55046930D01*
X147707405Y-55068692D01*
X147621689Y-55207659D01*
X147621685Y-55207668D01*
X147612221Y-55236228D01*
X147566501Y-55374203D01*
X147566501Y-55374204D01*
X147566500Y-55374204D01*
X147556000Y-55476983D01*
X147556000Y-55797403D01*
X147536315Y-55864442D01*
X147483511Y-55910197D01*
X147414353Y-55920141D01*
X147350797Y-55891116D01*
X147344319Y-55885084D01*
X146528819Y-55069584D01*
X146495334Y-55008261D01*
X146492500Y-54981903D01*
X146492500Y-52058742D01*
X146512185Y-51991703D01*
X146564989Y-51945948D01*
X146634147Y-51936004D01*
X146697703Y-51965029D01*
G37*
%TD.AperFunction*%
%TA.AperFunction,Conductor*%
G36*
X140298600Y-45432282D02*
G01*
X140333929Y-45427630D01*
X140342028Y-45427100D01*
X143394296Y-45427100D01*
X143402394Y-45427630D01*
X143437724Y-45432282D01*
X143445852Y-45432282D01*
X143445852Y-45433604D01*
X143506565Y-45443071D01*
X143558822Y-45489449D01*
X143576835Y-45540462D01*
X143582161Y-45584816D01*
X143582161Y-45614383D01*
X143577325Y-45654663D01*
X143571100Y-45706498D01*
X143571100Y-45892702D01*
X143576822Y-45940354D01*
X143582161Y-45984817D01*
X143582161Y-46014383D01*
X143576318Y-46063040D01*
X143571100Y-46106498D01*
X143571100Y-46292702D01*
X143574298Y-46319334D01*
X143582161Y-46384817D01*
X143582161Y-46414383D01*
X143578099Y-46448213D01*
X143571100Y-46506498D01*
X143571100Y-46506503D01*
X143571100Y-46696408D01*
X143569800Y-46696408D01*
X143555364Y-46759249D01*
X143505388Y-46808078D01*
X143463412Y-46821502D01*
X143447820Y-46823555D01*
X143447806Y-46823557D01*
X143443681Y-46824100D01*
X143443680Y-46824100D01*
X143331164Y-46838913D01*
X143331163Y-46838913D01*
X143191166Y-46896901D01*
X143102245Y-46965133D01*
X143102224Y-46965149D01*
X143070948Y-46989150D01*
X143050261Y-47016107D01*
X143044910Y-47022208D01*
X142497608Y-47569510D01*
X142491507Y-47574861D01*
X142464550Y-47595548D01*
X142440549Y-47626824D01*
X142440533Y-47626845D01*
X142390745Y-47691731D01*
X142372302Y-47715766D01*
X142372300Y-47715769D01*
X142314313Y-47855763D01*
X142314313Y-47855764D01*
X142298957Y-47972406D01*
X142298955Y-47972419D01*
X142294535Y-48006000D01*
X142298969Y-48039678D01*
X142299500Y-48047780D01*
X142299500Y-48703500D01*
X142279815Y-48770539D01*
X142227011Y-48816294D01*
X142175500Y-48827500D01*
X139860499Y-48827500D01*
X139793460Y-48807815D01*
X139747705Y-48755011D01*
X139736499Y-48703500D01*
X139736499Y-48591379D01*
X139737030Y-48583277D01*
X139737264Y-48581505D01*
X139741464Y-48549599D01*
X139736765Y-48513912D01*
X139736764Y-48513893D01*
X139735599Y-48505046D01*
X139721686Y-48399363D01*
X139663697Y-48259366D01*
X139663696Y-48259365D01*
X139663696Y-48259364D01*
X139641764Y-48230782D01*
X139593659Y-48168090D01*
X139593655Y-48168085D01*
X139571448Y-48139146D01*
X139559341Y-48129856D01*
X139544489Y-48118460D01*
X139538399Y-48113119D01*
X139247489Y-47822209D01*
X139242136Y-47816106D01*
X139239486Y-47812653D01*
X139221451Y-47789149D01*
X139221449Y-47789147D01*
X139221448Y-47789146D01*
X139192963Y-47767289D01*
X139192952Y-47767280D01*
X139169443Y-47749240D01*
X139128240Y-47692812D01*
X139124086Y-47623066D01*
X139157247Y-47563186D01*
X139638522Y-47081911D01*
X139644599Y-47076583D01*
X139672882Y-47054882D01*
X139769136Y-46929441D01*
X139829644Y-46783362D01*
X139833199Y-46756362D01*
X139850283Y-46626600D01*
X139845631Y-46591265D01*
X139845100Y-46583163D01*
X139845100Y-45726696D01*
X139864785Y-45659657D01*
X139881415Y-45639019D01*
X140069397Y-45451036D01*
X140130718Y-45417553D01*
X140173256Y-45415780D01*
X140298600Y-45432282D01*
G37*
%TD.AperFunction*%
%TA.AperFunction,Conductor*%
G36*
X148442127Y-46148000D02*
G01*
X148837872Y-46147999D01*
X148837873Y-46147998D01*
X148837885Y-46147998D01*
X148876744Y-46143820D01*
X148903252Y-46143820D01*
X148942127Y-46148000D01*
X149062982Y-46147999D01*
X149130022Y-46167683D01*
X149138469Y-46173623D01*
X149139659Y-46174536D01*
X149139661Y-46174536D01*
X149139663Y-46174538D01*
X149212698Y-46204790D01*
X149285738Y-46235044D01*
X149364119Y-46245363D01*
X149442499Y-46255682D01*
X149442500Y-46255682D01*
X149477829Y-46251030D01*
X149485928Y-46250500D01*
X149574092Y-46250500D01*
X149641131Y-46270185D01*
X149679642Y-46314274D01*
X149681398Y-46313192D01*
X149685120Y-46319227D01*
X149685644Y-46321145D01*
X149686475Y-46322096D01*
X149688239Y-46325879D01*
X149687086Y-46326416D01*
X149703557Y-46386620D01*
X149682631Y-46453282D01*
X149667259Y-46471999D01*
X149128576Y-47010681D01*
X149067253Y-47044166D01*
X149040895Y-47047000D01*
X148973635Y-47047000D01*
X148906596Y-47027315D01*
X148860841Y-46974511D01*
X148856593Y-46963954D01*
X148807789Y-46824480D01*
X148805918Y-46821502D01*
X148711816Y-46671740D01*
X148584262Y-46544186D01*
X148548861Y-46521942D01*
X148431523Y-46448213D01*
X148262418Y-46389041D01*
X148205642Y-46348319D01*
X148179895Y-46283366D01*
X148193351Y-46214805D01*
X148241738Y-46164402D01*
X148303372Y-46147999D01*
X148337872Y-46147999D01*
X148337885Y-46147998D01*
X148376744Y-46143820D01*
X148403252Y-46143820D01*
X148442127Y-46148000D01*
G37*
%TD.AperFunction*%
%TA.AperFunction,Conductor*%
G36*
X147205494Y-44762185D02*
G01*
X147226136Y-44778819D01*
X147453181Y-45005864D01*
X147486666Y-45067187D01*
X147489500Y-45093545D01*
X147489500Y-45695370D01*
X147489501Y-45695376D01*
X147495908Y-45754983D01*
X147546202Y-45889828D01*
X147546206Y-45889835D01*
X147632452Y-46005044D01*
X147632455Y-46005047D01*
X147747664Y-46091293D01*
X147747671Y-46091297D01*
X147788428Y-46106498D01*
X147882517Y-46141591D01*
X147895048Y-46142938D01*
X147959596Y-46169675D01*
X147999445Y-46227066D01*
X148001940Y-46296892D01*
X147966288Y-46356981D01*
X147909385Y-46387118D01*
X147902748Y-46388632D01*
X147732476Y-46448213D01*
X147579739Y-46544185D01*
X147470510Y-46653414D01*
X147409187Y-46686898D01*
X147339495Y-46681914D01*
X147295148Y-46653413D01*
X146876777Y-46235042D01*
X146447420Y-45805685D01*
X146442080Y-45799595D01*
X146420382Y-45771318D01*
X146294941Y-45675064D01*
X146294940Y-45675063D01*
X146294938Y-45675062D01*
X146245689Y-45654663D01*
X146191285Y-45610822D01*
X146169220Y-45544528D01*
X146186499Y-45476829D01*
X146205455Y-45452426D01*
X146879064Y-44778819D01*
X146940387Y-44745334D01*
X146966745Y-44742500D01*
X147138455Y-44742500D01*
X147205494Y-44762185D01*
G37*
%TD.AperFunction*%
%TA.AperFunction,Conductor*%
G36*
X151942539Y-25420185D02*
G01*
X151988294Y-25472989D01*
X151999500Y-25524500D01*
X151999500Y-43798403D01*
X151979815Y-43865442D01*
X151927011Y-43911197D01*
X151857853Y-43921141D01*
X151794297Y-43892116D01*
X151787819Y-43886084D01*
X150291818Y-42390083D01*
X150258333Y-42328760D01*
X150255499Y-42302402D01*
X150255499Y-41589998D01*
X150255498Y-41589981D01*
X150244999Y-41487203D01*
X150244998Y-41487200D01*
X150221814Y-41417235D01*
X150189814Y-41320666D01*
X150097712Y-41171344D01*
X149973656Y-41047288D01*
X149824334Y-40955186D01*
X149657797Y-40900001D01*
X149657795Y-40900000D01*
X149555016Y-40889500D01*
X149555009Y-40889500D01*
X148842597Y-40889500D01*
X148775558Y-40869815D01*
X148754916Y-40853181D01*
X147936818Y-40035083D01*
X147903333Y-39973760D01*
X147900499Y-39947402D01*
X147900499Y-39519998D01*
X147900498Y-39519981D01*
X147889999Y-39417203D01*
X147889998Y-39417200D01*
X147880063Y-39387218D01*
X147834814Y-39250666D01*
X147742712Y-39101344D01*
X147618656Y-38977288D01*
X147477136Y-38889998D01*
X147469336Y-38885187D01*
X147469331Y-38885185D01*
X147458316Y-38881535D01*
X147302797Y-38830001D01*
X147302795Y-38830000D01*
X147200016Y-38819500D01*
X147200009Y-38819500D01*
X146262597Y-38819500D01*
X146195558Y-38799815D01*
X146174916Y-38783181D01*
X145251818Y-37860083D01*
X145218333Y-37798760D01*
X145215499Y-37772402D01*
X145215499Y-37059998D01*
X145215498Y-37059981D01*
X145204999Y-36957203D01*
X145204998Y-36957200D01*
X145195905Y-36929759D01*
X145149814Y-36790666D01*
X145057712Y-36641344D01*
X144933656Y-36517288D01*
X144803363Y-36436923D01*
X144784336Y-36425187D01*
X144784331Y-36425185D01*
X144728106Y-36406554D01*
X144617797Y-36370001D01*
X144617795Y-36370000D01*
X144515010Y-36359500D01*
X143464998Y-36359500D01*
X143464980Y-36359501D01*
X143362203Y-36370000D01*
X143362200Y-36370001D01*
X143195668Y-36425185D01*
X143195663Y-36425187D01*
X143046345Y-36517287D01*
X142964922Y-36598710D01*
X142903598Y-36632194D01*
X142833907Y-36627210D01*
X142777973Y-36585338D01*
X142770509Y-36574149D01*
X142758083Y-36553138D01*
X142758076Y-36553129D01*
X142641870Y-36436923D01*
X142641867Y-36436921D01*
X142641865Y-36436919D01*
X142641549Y-36436732D01*
X142641353Y-36436522D01*
X142635702Y-36432139D01*
X142636409Y-36431227D01*
X142593866Y-36385664D01*
X142581362Y-36316923D01*
X142608006Y-36252333D01*
X142635921Y-36228144D01*
X142635702Y-36227861D01*
X142640911Y-36223820D01*
X142641550Y-36223267D01*
X142641865Y-36223081D01*
X142758081Y-36106865D01*
X142841744Y-35965398D01*
X142887598Y-35807569D01*
X142890500Y-35770694D01*
X142890500Y-35504729D01*
X142910185Y-35437690D01*
X142926819Y-35417048D01*
X143827048Y-34516819D01*
X143888371Y-34483334D01*
X143914729Y-34480500D01*
X148136534Y-34480500D01*
X148203573Y-34500185D01*
X148249328Y-34552989D01*
X148259272Y-34622147D01*
X148230247Y-34685703D01*
X148217069Y-34698786D01*
X148180241Y-34730241D01*
X148021738Y-34915823D01*
X148021737Y-34915826D01*
X147894222Y-35123910D01*
X147800830Y-35349380D01*
X147800828Y-35349387D01*
X147800828Y-35349388D01*
X147785468Y-35413367D01*
X147743853Y-35586702D01*
X147724706Y-35830000D01*
X147743853Y-36073297D01*
X147743853Y-36073300D01*
X147743854Y-36073302D01*
X147800029Y-36307286D01*
X147800830Y-36310619D01*
X147894222Y-36536089D01*
X148021737Y-36744173D01*
X148021738Y-36744176D01*
X148061446Y-36790668D01*
X148180241Y-36929759D01*
X148308686Y-37039461D01*
X148365823Y-37088261D01*
X148365826Y-37088262D01*
X148573910Y-37215777D01*
X148799381Y-37309169D01*
X148799378Y-37309169D01*
X148799384Y-37309170D01*
X148799388Y-37309172D01*
X149036698Y-37366146D01*
X149280000Y-37385294D01*
X149523302Y-37366146D01*
X149760612Y-37309172D01*
X149986089Y-37215777D01*
X150194179Y-37088259D01*
X150379759Y-36929759D01*
X150538259Y-36744179D01*
X150665777Y-36536089D01*
X150759172Y-36310612D01*
X150816146Y-36073302D01*
X150835294Y-35830000D01*
X150816146Y-35586698D01*
X150759172Y-35349388D01*
X150665777Y-35123911D01*
X150665777Y-35123910D01*
X150538262Y-34915826D01*
X150538261Y-34915823D01*
X150458645Y-34822605D01*
X150379759Y-34730241D01*
X150276954Y-34642437D01*
X150217233Y-34591430D01*
X150179040Y-34532923D01*
X150178542Y-34463055D01*
X150198810Y-34422415D01*
X150262366Y-34338255D01*
X150334459Y-34193471D01*
X150357403Y-34147394D01*
X150357403Y-34147393D01*
X150357405Y-34147389D01*
X150415756Y-33942310D01*
X150435429Y-33730000D01*
X150415756Y-33517690D01*
X150357405Y-33312611D01*
X150357403Y-33312606D01*
X150357403Y-33312605D01*
X150262367Y-33121746D01*
X150206816Y-33048186D01*
X150133872Y-32951593D01*
X150125084Y-32943582D01*
X149991318Y-32821637D01*
X149955036Y-32761926D01*
X149956797Y-32692078D01*
X149991318Y-32638363D01*
X150038893Y-32594992D01*
X150133872Y-32508407D01*
X150262366Y-32338255D01*
X150288977Y-32284812D01*
X150357403Y-32147394D01*
X150357403Y-32147393D01*
X150357405Y-32147389D01*
X150415756Y-31942310D01*
X150435429Y-31730000D01*
X150435428Y-31729994D01*
X150433605Y-31710326D01*
X150415756Y-31517690D01*
X150357405Y-31312611D01*
X150357403Y-31312606D01*
X150357403Y-31312605D01*
X150262367Y-31121746D01*
X150219534Y-31065027D01*
X150133872Y-30951593D01*
X149991317Y-30821636D01*
X149955036Y-30761926D01*
X149956797Y-30692078D01*
X149991318Y-30638363D01*
X150003560Y-30627203D01*
X150133872Y-30508407D01*
X150262366Y-30338255D01*
X150275767Y-30311342D01*
X150357403Y-30147394D01*
X150357403Y-30147393D01*
X150357405Y-30147389D01*
X150415756Y-29942310D01*
X150435429Y-29730000D01*
X150415756Y-29517690D01*
X150357405Y-29312611D01*
X150357403Y-29312606D01*
X150357403Y-29312605D01*
X150262366Y-29121745D01*
X150198812Y-29037587D01*
X150174119Y-28972226D01*
X150188684Y-28903891D01*
X150217233Y-28868569D01*
X150221140Y-28865232D01*
X150379759Y-28729759D01*
X150538259Y-28544179D01*
X150665777Y-28336089D01*
X150759172Y-28110612D01*
X150816146Y-27873302D01*
X150835294Y-27630000D01*
X150816146Y-27386698D01*
X150759172Y-27149388D01*
X150759169Y-27149380D01*
X150665777Y-26923910D01*
X150538262Y-26715826D01*
X150538261Y-26715823D01*
X150458570Y-26622517D01*
X150379759Y-26530241D01*
X150255035Y-26423717D01*
X150194176Y-26371738D01*
X150194173Y-26371737D01*
X149986089Y-26244222D01*
X149760618Y-26150830D01*
X149760621Y-26150830D01*
X149654992Y-26125470D01*
X149523302Y-26093854D01*
X149523300Y-26093853D01*
X149523297Y-26093853D01*
X149280000Y-26074706D01*
X149036702Y-26093853D01*
X148799380Y-26150830D01*
X148573910Y-26244222D01*
X148365826Y-26371737D01*
X148365823Y-26371738D01*
X148180241Y-26530241D01*
X148021738Y-26715823D01*
X148021737Y-26715826D01*
X147894222Y-26923910D01*
X147800830Y-27149380D01*
X147743853Y-27386702D01*
X147724706Y-27630000D01*
X147743853Y-27873297D01*
X147743853Y-27873300D01*
X147743854Y-27873302D01*
X147790511Y-28067641D01*
X147800830Y-28110619D01*
X147894222Y-28336089D01*
X148021737Y-28544173D01*
X148021738Y-28544176D01*
X148075449Y-28607063D01*
X148180241Y-28729759D01*
X148267481Y-28804269D01*
X148342766Y-28868569D01*
X148380959Y-28927076D01*
X148381457Y-28996944D01*
X148361188Y-29037586D01*
X148297633Y-29121746D01*
X148202597Y-29312604D01*
X148202595Y-29312610D01*
X148202595Y-29312611D01*
X148198623Y-29326567D01*
X148161344Y-29385658D01*
X148098034Y-29415215D01*
X148028794Y-29405851D01*
X147991678Y-29380310D01*
X144223549Y-25612181D01*
X144190064Y-25550858D01*
X144195048Y-25481166D01*
X144236920Y-25425233D01*
X144302384Y-25400816D01*
X144311230Y-25400500D01*
X151875500Y-25400500D01*
X151942539Y-25420185D01*
G37*
%TD.AperFunction*%
%TA.AperFunction,Conductor*%
G36*
X142969771Y-38302170D02*
G01*
X142979786Y-38311154D01*
X143046344Y-38377712D01*
X143195666Y-38469814D01*
X143362203Y-38524999D01*
X143464991Y-38535500D01*
X144177402Y-38535499D01*
X144244441Y-38555183D01*
X144265083Y-38571818D01*
X145080483Y-39387218D01*
X145113968Y-39448541D01*
X145108984Y-39518233D01*
X145080483Y-39562580D01*
X144248882Y-40394181D01*
X144187559Y-40427666D01*
X144161201Y-40430500D01*
X143448798Y-40430500D01*
X143448780Y-40430501D01*
X143346003Y-40441000D01*
X143346000Y-40441001D01*
X143179468Y-40496185D01*
X143179463Y-40496187D01*
X143030142Y-40588289D01*
X142906089Y-40712342D01*
X142813987Y-40861663D01*
X142813985Y-40861668D01*
X142803390Y-40893642D01*
X142758801Y-41028203D01*
X142758801Y-41028204D01*
X142758800Y-41028204D01*
X142748300Y-41130983D01*
X142748300Y-42181001D01*
X142748302Y-42181022D01*
X142755616Y-42252628D01*
X142742846Y-42321321D01*
X142694964Y-42372204D01*
X142627174Y-42389124D01*
X142618375Y-42388448D01*
X142494004Y-42374435D01*
X142493996Y-42374435D01*
X142314750Y-42394630D01*
X142314742Y-42394632D01*
X142208653Y-42431754D01*
X142138874Y-42435315D01*
X142101727Y-42419706D01*
X141954523Y-42327211D01*
X141784254Y-42267631D01*
X141784249Y-42267630D01*
X141605004Y-42247435D01*
X141604996Y-42247435D01*
X141425750Y-42267630D01*
X141425745Y-42267631D01*
X141255476Y-42327211D01*
X141102737Y-42423184D01*
X140975184Y-42550737D01*
X140879211Y-42703476D01*
X140819631Y-42873745D01*
X140819630Y-42873750D01*
X140799435Y-43052996D01*
X140799435Y-43053005D01*
X140804393Y-43097014D01*
X140792338Y-43165836D01*
X140744988Y-43217215D01*
X140695950Y-43234012D01*
X140686377Y-43235161D01*
X140656817Y-43235161D01*
X140608159Y-43229318D01*
X140564702Y-43224100D01*
X140564697Y-43224100D01*
X140471697Y-43224100D01*
X140404658Y-43204415D01*
X140384016Y-43187781D01*
X139024818Y-41828583D01*
X138991333Y-41767260D01*
X138988499Y-41740902D01*
X138988499Y-41130998D01*
X138988498Y-41130981D01*
X138977999Y-41028203D01*
X138977998Y-41028200D01*
X138961127Y-40977288D01*
X138922814Y-40861666D01*
X138830712Y-40712344D01*
X138817459Y-40699091D01*
X138783974Y-40637768D01*
X138788958Y-40568076D01*
X138830830Y-40512143D01*
X138840027Y-40505882D01*
X138958656Y-40432712D01*
X139082712Y-40308656D01*
X139174814Y-40159334D01*
X139229999Y-39992797D01*
X139240500Y-39890009D01*
X139240499Y-38889992D01*
X139240011Y-38885220D01*
X139252774Y-38816530D01*
X139300649Y-38765641D01*
X139368437Y-38748714D01*
X139434616Y-38771123D01*
X139451049Y-38784929D01*
X139451400Y-38785280D01*
X139451402Y-38785282D01*
X139566060Y-38873262D01*
X139576843Y-38881536D01*
X139722922Y-38942044D01*
X139765960Y-38947710D01*
X139879683Y-38962682D01*
X139879684Y-38962682D01*
X139915013Y-38958030D01*
X139923112Y-38957500D01*
X141157072Y-38957500D01*
X141165170Y-38958030D01*
X141200500Y-38962682D01*
X141200501Y-38962682D01*
X141252754Y-38955802D01*
X141357262Y-38942044D01*
X141503341Y-38881536D01*
X141514124Y-38873262D01*
X141628782Y-38785282D01*
X141650483Y-38756999D01*
X141655811Y-38750922D01*
X141742969Y-38663764D01*
X141804290Y-38630281D01*
X141840372Y-38627829D01*
X141871523Y-38630281D01*
X141874305Y-38630500D01*
X141874306Y-38630500D01*
X142305696Y-38630500D01*
X142324131Y-38629049D01*
X142342569Y-38627598D01*
X142342571Y-38627597D01*
X142342573Y-38627597D01*
X142387742Y-38614474D01*
X142500398Y-38581744D01*
X142641865Y-38498081D01*
X142758081Y-38381865D01*
X142785374Y-38335713D01*
X142836439Y-38288032D01*
X142905181Y-38275526D01*
X142969771Y-38302170D01*
G37*
%TD.AperFunction*%
%TA.AperFunction,Conductor*%
G36*
X129888134Y-32060948D02*
G01*
X129932481Y-32089449D01*
X130026144Y-32183112D01*
X130175466Y-32275214D01*
X130342003Y-32330399D01*
X130444791Y-32340900D01*
X131173753Y-32340899D01*
X131240792Y-32360583D01*
X131286547Y-32413387D01*
X131294462Y-32436768D01*
X131294631Y-32437253D01*
X131294632Y-32437255D01*
X131299156Y-32450183D01*
X131354210Y-32607521D01*
X131396805Y-32675310D01*
X131450184Y-32760262D01*
X131577738Y-32887816D01*
X131635207Y-32923926D01*
X131723276Y-32979264D01*
X131730478Y-32983789D01*
X131900745Y-33043368D01*
X131900750Y-33043369D01*
X132079996Y-33063565D01*
X132080000Y-33063565D01*
X132080004Y-33063565D01*
X132259249Y-33043369D01*
X132259252Y-33043368D01*
X132259255Y-33043368D01*
X132429522Y-32983789D01*
X132436724Y-32979264D01*
X132467385Y-32959998D01*
X132521064Y-32926269D01*
X132588297Y-32907269D01*
X132655133Y-32927636D01*
X132674715Y-32943582D01*
X132878181Y-33147048D01*
X132911666Y-33208371D01*
X132914500Y-33234729D01*
X132914500Y-33735001D01*
X132914501Y-33735019D01*
X132925000Y-33837796D01*
X132925001Y-33837799D01*
X132980185Y-34004331D01*
X132980187Y-34004336D01*
X133001109Y-34038256D01*
X133072288Y-34153656D01*
X133196344Y-34277712D01*
X133345666Y-34369814D01*
X133512203Y-34424999D01*
X133614991Y-34435500D01*
X134300269Y-34435499D01*
X134367308Y-34455183D01*
X134387950Y-34471818D01*
X135293181Y-35377048D01*
X135326666Y-35438371D01*
X135329500Y-35464729D01*
X135329500Y-35730696D01*
X135332401Y-35767567D01*
X135332402Y-35767573D01*
X135378254Y-35925393D01*
X135378255Y-35925396D01*
X135378256Y-35925398D01*
X135407748Y-35975267D01*
X135461917Y-36066862D01*
X135461923Y-36066870D01*
X135578129Y-36183076D01*
X135578140Y-36183085D01*
X135578455Y-36183271D01*
X135578650Y-36183480D01*
X135584298Y-36187861D01*
X135583591Y-36188772D01*
X135626136Y-36234343D01*
X135638637Y-36303085D01*
X135611988Y-36367673D01*
X135584078Y-36391856D01*
X135584298Y-36392139D01*
X135579092Y-36396176D01*
X135578455Y-36396729D01*
X135578140Y-36396914D01*
X135578129Y-36396923D01*
X135461923Y-36513129D01*
X135461914Y-36513141D01*
X135401014Y-36616120D01*
X135349946Y-36663804D01*
X135294282Y-36677000D01*
X134833705Y-36677000D01*
X134815735Y-36675691D01*
X134791972Y-36672210D01*
X134746533Y-36676186D01*
X134739931Y-36676764D01*
X134734530Y-36677000D01*
X134726289Y-36677000D01*
X134704579Y-36679537D01*
X134693724Y-36680806D01*
X134678419Y-36682145D01*
X134617199Y-36687501D01*
X134610132Y-36688960D01*
X134610120Y-36688904D01*
X134602763Y-36690535D01*
X134602777Y-36690592D01*
X134595743Y-36692259D01*
X134523575Y-36718525D01*
X134450665Y-36742685D01*
X134444126Y-36745735D01*
X134444101Y-36745683D01*
X134437308Y-36748971D01*
X134437334Y-36749022D01*
X134430885Y-36752261D01*
X134366716Y-36794465D01*
X134298706Y-36836415D01*
X134231314Y-36854857D01*
X134164650Y-36833936D01*
X134145926Y-36818559D01*
X134079630Y-36752263D01*
X133976308Y-36648940D01*
X133953643Y-36612870D01*
X133951812Y-36613753D01*
X133948792Y-36607483D01*
X133943280Y-36598710D01*
X133852816Y-36454738D01*
X133725262Y-36327184D01*
X133645272Y-36276923D01*
X133572521Y-36231210D01*
X133402249Y-36171630D01*
X133380615Y-36169193D01*
X133316201Y-36142126D01*
X133276646Y-36084531D01*
X133270499Y-36045973D01*
X133270499Y-35629998D01*
X133270498Y-35629981D01*
X133259999Y-35527203D01*
X133259998Y-35527200D01*
X133239297Y-35464729D01*
X133204814Y-35360666D01*
X133112712Y-35211344D01*
X132988656Y-35087288D01*
X132839334Y-34995186D01*
X132672797Y-34940001D01*
X132672795Y-34940000D01*
X132570010Y-34929500D01*
X131569998Y-34929500D01*
X131569980Y-34929501D01*
X131467203Y-34940000D01*
X131467198Y-34940002D01*
X131463951Y-34941078D01*
X131461830Y-34941150D01*
X131460578Y-34941419D01*
X131460530Y-34941195D01*
X131394122Y-34943478D01*
X131334081Y-34907744D01*
X131302891Y-34845223D01*
X131301660Y-34836624D01*
X131300153Y-34822605D01*
X131249859Y-34687760D01*
X131249855Y-34687753D01*
X131163609Y-34572544D01*
X131163606Y-34572541D01*
X131048397Y-34486295D01*
X131048390Y-34486291D01*
X130913544Y-34435997D01*
X130913545Y-34435997D01*
X130853945Y-34429590D01*
X130853943Y-34429589D01*
X130853935Y-34429589D01*
X130853927Y-34429589D01*
X130507478Y-34429589D01*
X130461697Y-34420828D01*
X130351628Y-34377100D01*
X130351624Y-34377099D01*
X130178033Y-34351672D01*
X130003264Y-34366963D01*
X130003262Y-34366964D01*
X129833263Y-34423295D01*
X129794260Y-34429589D01*
X129458192Y-34429589D01*
X129458185Y-34429590D01*
X129398578Y-34435997D01*
X129263733Y-34486291D01*
X129263730Y-34486293D01*
X129160925Y-34563253D01*
X129095460Y-34587670D01*
X129027187Y-34572818D01*
X129017932Y-34566667D01*
X129017869Y-34566768D01*
X128995940Y-34552989D01*
X128859233Y-34467090D01*
X128859229Y-34467088D01*
X128852955Y-34464067D01*
X128853836Y-34462237D01*
X128817770Y-34439571D01*
X127389807Y-33011607D01*
X127356322Y-32950284D01*
X127353488Y-32923926D01*
X127353488Y-32898893D01*
X127354797Y-32880923D01*
X127358271Y-32857203D01*
X127358277Y-32857165D01*
X127353723Y-32805121D01*
X127353488Y-32799720D01*
X127353488Y-32791484D01*
X127353488Y-32791479D01*
X127349679Y-32758893D01*
X127342986Y-32682391D01*
X127342983Y-32682382D01*
X127341526Y-32675323D01*
X127341586Y-32675310D01*
X127339954Y-32667952D01*
X127339896Y-32667966D01*
X127338229Y-32660935D01*
X127338229Y-32660933D01*
X127311957Y-32588751D01*
X127287802Y-32515854D01*
X127287800Y-32515851D01*
X127285688Y-32511321D01*
X127275197Y-32442243D01*
X127303718Y-32378460D01*
X127362195Y-32340221D01*
X127385468Y-32335560D01*
X127435997Y-32330399D01*
X127602534Y-32275214D01*
X127751856Y-32183112D01*
X127801319Y-32133649D01*
X127862642Y-32100164D01*
X127932334Y-32105148D01*
X127976681Y-32133649D01*
X128026144Y-32183112D01*
X128175466Y-32275214D01*
X128342003Y-32330399D01*
X128444791Y-32340900D01*
X129244808Y-32340899D01*
X129244816Y-32340898D01*
X129244819Y-32340898D01*
X129301102Y-32335148D01*
X129347597Y-32330399D01*
X129514134Y-32275214D01*
X129663456Y-32183112D01*
X129757119Y-32089449D01*
X129818442Y-32055964D01*
X129888134Y-32060948D01*
G37*
%TD.AperFunction*%
%TA.AperFunction,Conductor*%
G36*
X142997909Y-26513285D02*
G01*
X143018551Y-26529919D01*
X148091386Y-31602753D01*
X148124871Y-31664076D01*
X148127176Y-31701871D01*
X148124571Y-31729994D01*
X148124571Y-31729999D01*
X148124571Y-31730000D01*
X148144244Y-31942310D01*
X148180193Y-32068657D01*
X148202596Y-32147392D01*
X148202596Y-32147394D01*
X148297632Y-32338253D01*
X148382159Y-32450183D01*
X148426128Y-32508407D01*
X148434297Y-32515854D01*
X148568682Y-32638363D01*
X148604963Y-32698075D01*
X148603202Y-32767922D01*
X148568682Y-32821636D01*
X148529672Y-32857200D01*
X148431016Y-32947137D01*
X148368212Y-32977754D01*
X148347477Y-32979500D01*
X143616205Y-32979500D01*
X143598235Y-32978191D01*
X143574472Y-32974710D01*
X143529390Y-32978655D01*
X143522433Y-32979264D01*
X143517032Y-32979500D01*
X143508788Y-32979500D01*
X143476207Y-32983308D01*
X143399699Y-32990001D01*
X143392633Y-32991461D01*
X143392621Y-32991404D01*
X143385254Y-32993038D01*
X143385268Y-32993094D01*
X143378251Y-32994756D01*
X143306073Y-33021026D01*
X143233162Y-33045187D01*
X143226619Y-33048238D01*
X143226594Y-33048186D01*
X143219810Y-33051470D01*
X143219836Y-33051521D01*
X143213385Y-33054761D01*
X143149223Y-33096961D01*
X143083846Y-33137285D01*
X143078182Y-33141765D01*
X143078146Y-33141719D01*
X143072298Y-33146484D01*
X143072335Y-33146528D01*
X143066810Y-33151164D01*
X143066804Y-33151169D01*
X143066804Y-33151170D01*
X143014114Y-33207017D01*
X142606242Y-33614890D01*
X142227951Y-33993181D01*
X142166628Y-34026666D01*
X142140270Y-34029500D01*
X141874304Y-34029500D01*
X141837432Y-34032401D01*
X141837426Y-34032402D01*
X141679606Y-34078254D01*
X141679603Y-34078255D01*
X141538137Y-34161917D01*
X141538129Y-34161923D01*
X141421923Y-34278129D01*
X141421917Y-34278137D01*
X141338255Y-34419603D01*
X141338254Y-34419606D01*
X141292402Y-34577426D01*
X141292401Y-34577432D01*
X141289500Y-34614304D01*
X141289500Y-35342218D01*
X141269815Y-35409257D01*
X141253181Y-35429899D01*
X141237899Y-35445181D01*
X141176576Y-35478666D01*
X141150218Y-35481500D01*
X141114500Y-35481500D01*
X141047461Y-35461815D01*
X141001706Y-35409011D01*
X140990500Y-35357500D01*
X140990500Y-34614304D01*
X140987598Y-34577432D01*
X140987597Y-34577426D01*
X140947546Y-34439571D01*
X140941744Y-34419602D01*
X140920267Y-34383286D01*
X140903000Y-34320166D01*
X140903000Y-34291248D01*
X140922685Y-34224209D01*
X140953996Y-34193471D01*
X140952987Y-34192195D01*
X140958654Y-34187713D01*
X140958653Y-34187713D01*
X140958656Y-34187712D01*
X141082712Y-34063656D01*
X141174814Y-33914334D01*
X141229999Y-33747797D01*
X141240500Y-33645009D01*
X141240499Y-32594992D01*
X141239861Y-32588751D01*
X141229999Y-32492203D01*
X141216075Y-32450183D01*
X141181250Y-32345091D01*
X141178849Y-32275266D01*
X141214580Y-32215224D01*
X141277101Y-32184031D01*
X141346560Y-32191591D01*
X141364048Y-32200548D01*
X141500666Y-32284814D01*
X141667203Y-32339999D01*
X141769991Y-32350500D01*
X142570008Y-32350499D01*
X142570016Y-32350498D01*
X142570019Y-32350498D01*
X142626302Y-32344748D01*
X142672797Y-32339999D01*
X142839334Y-32284814D01*
X142988656Y-32192712D01*
X143112712Y-32068656D01*
X143204814Y-31919334D01*
X143259999Y-31752797D01*
X143270500Y-31650009D01*
X143270499Y-30649992D01*
X143259999Y-30547203D01*
X143204814Y-30380666D01*
X143112712Y-30231344D01*
X142988656Y-30107288D01*
X142879564Y-30040000D01*
X142839336Y-30015187D01*
X142839331Y-30015185D01*
X142772927Y-29993181D01*
X142672797Y-29960001D01*
X142672795Y-29960000D01*
X142570016Y-29949500D01*
X142570009Y-29949500D01*
X142015238Y-29949500D01*
X141948199Y-29929815D01*
X141902444Y-29877011D01*
X141892018Y-29811617D01*
X141902565Y-29718004D01*
X141902565Y-29717996D01*
X141882369Y-29538750D01*
X141882368Y-29538745D01*
X141879864Y-29531588D01*
X141822789Y-29368478D01*
X141726816Y-29215738D01*
X141599262Y-29088184D01*
X141541962Y-29052180D01*
X141446523Y-28992211D01*
X141276254Y-28932631D01*
X141276249Y-28932630D01*
X141097004Y-28912435D01*
X141096996Y-28912435D01*
X140963383Y-28927489D01*
X140894561Y-28915434D01*
X140843182Y-28868085D01*
X140825500Y-28804269D01*
X140825500Y-28779090D01*
X140845185Y-28712051D01*
X140897101Y-28666706D01*
X140902830Y-28664035D01*
X141096401Y-28528495D01*
X141263495Y-28361401D01*
X141399035Y-28167830D01*
X141498903Y-27953663D01*
X141560063Y-27725408D01*
X141580659Y-27490000D01*
X141560063Y-27254592D01*
X141498903Y-27026337D01*
X141399035Y-26812171D01*
X141399034Y-26812169D01*
X141312597Y-26688723D01*
X141290270Y-26622517D01*
X141307280Y-26554749D01*
X141358229Y-26506937D01*
X141414172Y-26493600D01*
X142930870Y-26493600D01*
X142997909Y-26513285D01*
G37*
%TD.AperFunction*%
%TA.AperFunction,Conductor*%
G36*
X131446937Y-25420185D02*
G01*
X131492692Y-25472989D01*
X131502636Y-25542147D01*
X131473611Y-25605703D01*
X131414833Y-25643477D01*
X131414493Y-25643576D01*
X131329206Y-25668354D01*
X131329203Y-25668355D01*
X131187737Y-25752017D01*
X131187729Y-25752023D01*
X131071523Y-25868229D01*
X131071514Y-25868241D01*
X131010614Y-25971220D01*
X130959546Y-26018904D01*
X130903882Y-26032100D01*
X129494016Y-26032100D01*
X129487383Y-26031744D01*
X129477681Y-26030700D01*
X129477673Y-26030700D01*
X129232547Y-26030700D01*
X129214579Y-26029391D01*
X129200374Y-26027310D01*
X129169476Y-26030014D01*
X129164334Y-26030464D01*
X129158932Y-26030700D01*
X127681929Y-26030700D01*
X127681923Y-26030701D01*
X127622316Y-26037108D01*
X127487471Y-26087402D01*
X127487464Y-26087406D01*
X127372255Y-26173652D01*
X127372252Y-26173655D01*
X127286006Y-26288864D01*
X127286002Y-26288871D01*
X127235708Y-26423717D01*
X127229301Y-26483316D01*
X127229300Y-26483335D01*
X127229300Y-28279070D01*
X127229301Y-28279076D01*
X127235708Y-28338683D01*
X127286002Y-28473528D01*
X127286006Y-28473535D01*
X127372252Y-28588744D01*
X127372255Y-28588747D01*
X127487464Y-28674993D01*
X127487471Y-28674997D01*
X127622317Y-28725291D01*
X127622316Y-28725291D01*
X127629244Y-28726035D01*
X127681927Y-28731700D01*
X129477672Y-28731699D01*
X129537283Y-28725291D01*
X129672131Y-28674996D01*
X129787346Y-28588746D01*
X129873596Y-28473531D01*
X129923891Y-28338683D01*
X129930300Y-28279073D01*
X129930300Y-27657100D01*
X129949985Y-27590061D01*
X130002789Y-27544306D01*
X130054300Y-27533100D01*
X130865100Y-27533100D01*
X130932139Y-27552785D01*
X130977894Y-27605589D01*
X130989100Y-27657100D01*
X130989100Y-29815900D01*
X130969415Y-29882939D01*
X130916611Y-29928694D01*
X130865100Y-29939900D01*
X130444798Y-29939900D01*
X130444780Y-29939901D01*
X130342003Y-29950400D01*
X130342000Y-29950401D01*
X130175468Y-30005585D01*
X130175463Y-30005587D01*
X130026142Y-30097689D01*
X129932481Y-30191351D01*
X129871158Y-30224836D01*
X129801466Y-30219852D01*
X129757119Y-30191351D01*
X129663457Y-30097689D01*
X129663456Y-30097688D01*
X129552905Y-30029500D01*
X129514136Y-30005587D01*
X129514131Y-30005585D01*
X129476698Y-29993181D01*
X129347597Y-29950401D01*
X129347595Y-29950400D01*
X129244810Y-29939900D01*
X128444798Y-29939900D01*
X128444780Y-29939901D01*
X128342003Y-29950400D01*
X128342000Y-29950401D01*
X128175468Y-30005585D01*
X128175463Y-30005587D01*
X128026142Y-30097689D01*
X127976681Y-30147151D01*
X127915358Y-30180636D01*
X127845666Y-30175652D01*
X127801319Y-30147151D01*
X127751857Y-30097689D01*
X127751856Y-30097688D01*
X127641305Y-30029500D01*
X127602536Y-30005587D01*
X127602531Y-30005585D01*
X127565098Y-29993181D01*
X127435997Y-29950401D01*
X127435995Y-29950400D01*
X127333210Y-29939900D01*
X126583198Y-29939900D01*
X126583180Y-29939901D01*
X126480403Y-29950400D01*
X126480400Y-29950401D01*
X126313868Y-30005585D01*
X126313863Y-30005587D01*
X126164542Y-30097689D01*
X126040485Y-30221746D01*
X126038737Y-30224582D01*
X126037029Y-30226117D01*
X126036007Y-30227411D01*
X126035785Y-30227236D01*
X125986789Y-30271305D01*
X125917826Y-30282526D01*
X125853744Y-30254682D01*
X125827663Y-30224582D01*
X125825914Y-30221746D01*
X125701857Y-30097689D01*
X125701856Y-30097688D01*
X125591305Y-30029500D01*
X125552536Y-30005587D01*
X125552531Y-30005585D01*
X125515098Y-29993181D01*
X125385997Y-29950401D01*
X125385995Y-29950400D01*
X125283210Y-29939900D01*
X124533198Y-29939900D01*
X124533180Y-29939901D01*
X124430403Y-29950400D01*
X124430400Y-29950401D01*
X124263868Y-30005585D01*
X124263859Y-30005589D01*
X124191896Y-30049977D01*
X124124504Y-30068417D01*
X124057841Y-30047494D01*
X124013071Y-29993852D01*
X124002800Y-29944438D01*
X124002800Y-25524500D01*
X124022485Y-25457461D01*
X124075289Y-25411706D01*
X124126800Y-25400500D01*
X131379898Y-25400500D01*
X131446937Y-25420185D01*
G37*
%TD.AperFunction*%
%TD*%
M02*
