M48
; DRILL file {KiCad 7.0.9} date Tue Aug 20 21:58:47 2024
; FORMAT={-:-/ absolute / inch / decimal}
; #@! TF.CreationDate,2024-08-20T21:58:47+03:00
; #@! TF.GenerationSoftware,Kicad,Pcbnew,7.0.9
; #@! TF.FileFunction,Plated,1,2,PTH
FMAT,2
INCH
; #@! TA.AperFunction,Plated,PTH,ViaDrill
T1C0.0157
; #@! TA.AperFunction,Plated,PTH,ComponentDrill
T2C0.0236
; #@! TA.AperFunction,Plated,PTH,ComponentDrill
T3C0.0315
; #@! TA.AperFunction,Plated,PTH,ComponentDrill
T4C0.0335
; #@! TA.AperFunction,Plated,PTH,ComponentDrill
T5C0.0394
; #@! TA.AperFunction,Plated,PTH,ComponentDrill
T6C0.0630
%
G90
G05
T1
X4.935Y-2.23
X4.975Y-1.49
X5.01Y-1.155
X5.02Y-2.24
X5.05Y-1.5243
X5.0594Y-1.3855
X5.06Y-1.4727
X5.0684Y-2.2238
X5.135Y-2.4152
X5.135Y-2.4722
X5.16Y-1.3
X5.16Y-2.2859
X5.2Y-1.27
X5.21Y-1.98
X5.245Y-1.455
X5.2618Y-2.152
X5.2794Y-2.222
X5.285Y-1.14
X5.285Y-1.225
X5.285Y-2.25
X5.305Y-2.315
X5.33Y-2.2953
X5.36Y-1.55
X5.375Y-1.745
X5.44Y-1.315
X5.4527Y-1.8207
X5.455Y-1.975
X5.459Y-1.926
X5.515Y-1.87
X5.525Y-1.17
X5.54Y-2.145
X5.555Y-1.17
X5.5603Y-2.075
X5.575Y-1.695
X5.585Y-2.05
X5.595Y-1.295
X5.61Y-1.7
X5.6498Y-1.9202
X5.65Y-1.56
X5.6535Y-1.8894
X5.67Y-1.395
X5.705Y-1.2
X5.7648Y-1.8652
X5.775Y-1.79
X5.775Y-2.06
X5.805Y-2.47
X5.83Y-1.8572
X5.93Y-2.36
X5.93Y-2.47
T3
X5.4819Y-2.4012
X5.5819Y-2.4012
T4
X5.8772Y-1.1705
X5.8772Y-1.2492
X5.8772Y-1.328
T5
X4.9622Y-1.078
X4.9622Y-1.7535
X4.9622Y-1.8535
X4.9622Y-1.9535
X5.0622Y-1.078
X5.4207Y-1.0823
X5.5207Y-1.0823
X5.6207Y-1.0823
T6
X5.8772Y-1.0878
X5.8772Y-1.4106
T2
G00X4.9498Y-1.3114
M15
G01X4.9183Y-1.3114
M16
G05
G00X4.9498Y-1.6516
M15
G01X4.9183Y-1.6516
M16
G05
G00X5.1203Y-1.3114
M15
G01X5.077Y-1.3114
M16
G05
G00X5.1203Y-1.6516
M15
G01X5.077Y-1.6516
M16
G05
T0
M30
